<?xml version="1.0" encoding="utf-8" standalone="no"?>
<!DOCTYPE svg PUBLIC "-//W3C//DTD SVG 1.1//EN"
  "http://www.w3.org/Graphics/SVG/1.1/DTD/svg11.dtd">
<!-- Created with matplotlib (https://matplotlib.org/) -->
<svg height="345.6pt" version="1.1" viewBox="0 0 460.8 345.6" width="460.8pt" xmlns="http://www.w3.org/2000/svg" xmlns:xlink="http://www.w3.org/1999/xlink">
 <defs>
  <style type="text/css">
*{stroke-linecap:butt;stroke-linejoin:round;}
  </style>
 </defs>
 <g id="figure_1">
  <g id="patch_1">
   <path d="M 0 345.6 
L 460.8 345.6 
L 460.8 0 
L 0 0 
z
" style="fill:#ffffff;"/>
  </g>
  <g id="axes_1">
   <g id="patch_2">
    <path d="M 57.6 307.584 
L 414.72 307.584 
L 414.72 41.472 
L 57.6 41.472 
z
" style="fill:#ffffff;"/>
   </g>
   <g id="patch_3">
    <path clip-path="url(#pc9fe97c1ce)" d="M 73.832727 307.584 
L 74.69905 307.584 
L 74.69905 272.7846 
L 73.832727 272.7846 
z
" style="fill:#1f77b4;"/>
   </g>
   <g id="patch_4">
    <path clip-path="url(#pc9fe97c1ce)" d="M 74.915631 307.584 
L 75.781954 307.584 
L 75.781954 257.144564 
L 74.915631 257.144564 
z
" style="fill:#1f77b4;"/>
   </g>
   <g id="patch_5">
    <path clip-path="url(#pc9fe97c1ce)" d="M 75.998535 307.584 
L 76.864858 307.584 
L 76.864858 218.79365 
L 75.998535 218.79365 
z
" style="fill:#1f77b4;"/>
   </g>
   <g id="patch_6">
    <path clip-path="url(#pc9fe97c1ce)" d="M 77.081439 307.584 
L 77.947762 307.584 
L 77.947762 243.72303 
L 77.081439 243.72303 
z
" style="fill:#1f77b4;"/>
   </g>
   <g id="patch_7">
    <path clip-path="url(#pc9fe97c1ce)" d="M 78.164342 307.584 
L 79.030665 307.584 
L 79.030665 297.252846 
L 78.164342 297.252846 
z
" style="fill:#1f77b4;"/>
   </g>
   <g id="patch_8">
    <path clip-path="url(#pc9fe97c1ce)" d="M 79.247246 307.584 
L 80.113569 307.584 
L 80.113569 213.350289 
L 79.247246 213.350289 
z
" style="fill:#1f77b4;"/>
   </g>
   <g id="patch_9">
    <path clip-path="url(#pc9fe97c1ce)" d="M 80.33015 307.584 
L 81.196473 307.584 
L 81.196473 294.168648 
L 80.33015 294.168648 
z
" style="fill:#1f77b4;"/>
   </g>
   <g id="patch_10">
    <path clip-path="url(#pc9fe97c1ce)" d="M 81.413054 307.584 
L 82.279377 307.584 
L 82.279377 247.494705 
L 81.413054 247.494705 
z
" style="fill:#1f77b4;"/>
   </g>
   <g id="patch_11">
    <path clip-path="url(#pc9fe97c1ce)" d="M 82.495957 307.584 
L 83.36228 307.584 
L 83.36228 241.19872 
L 82.495957 241.19872 
z
" style="fill:#1f77b4;"/>
   </g>
   <g id="patch_12">
    <path clip-path="url(#pc9fe97c1ce)" d="M 83.578861 307.584 
L 84.445184 307.584 
L 84.445184 258.242541 
L 83.578861 258.242541 
z
" style="fill:#1f77b4;"/>
   </g>
   <g id="patch_13">
    <path clip-path="url(#pc9fe97c1ce)" d="M 84.661765 307.584 
L 85.528088 307.584 
L 85.528088 271.65203 
L 84.661765 271.65203 
z
" style="fill:#1f77b4;"/>
   </g>
   <g id="patch_14">
    <path clip-path="url(#pc9fe97c1ce)" d="M 85.744669 307.584 
L 86.610992 307.584 
L 86.610992 267.696336 
L 85.744669 267.696336 
z
" style="fill:#1f77b4;"/>
   </g>
   <g id="patch_15">
    <path clip-path="url(#pc9fe97c1ce)" d="M 86.827572 307.584 
L 87.693895 307.584 
L 87.693895 281.281459 
L 86.827572 281.281459 
z
" style="fill:#1f77b4;"/>
   </g>
   <g id="patch_16">
    <path clip-path="url(#pc9fe97c1ce)" d="M 87.910476 307.584 
L 88.776799 307.584 
L 88.776799 281.896163 
L 87.910476 281.896163 
z
" style="fill:#1f77b4;"/>
   </g>
   <g id="patch_17">
    <path clip-path="url(#pc9fe97c1ce)" d="M 88.99338 307.584 
L 89.859703 307.584 
L 89.859703 274.107211 
L 88.99338 274.107211 
z
" style="fill:#1f77b4;"/>
   </g>
   <g id="patch_18">
    <path clip-path="url(#pc9fe97c1ce)" d="M 90.076284 307.584 
L 90.942607 307.584 
L 90.942607 294.30711 
L 90.076284 294.30711 
z
" style="fill:#1f77b4;"/>
   </g>
   <g id="patch_19">
    <path clip-path="url(#pc9fe97c1ce)" d="M 91.159187 307.584 
L 92.02551 307.584 
L 92.02551 251.498834 
L 91.159187 251.498834 
z
" style="fill:#1f77b4;"/>
   </g>
   <g id="patch_20">
    <path clip-path="url(#pc9fe97c1ce)" d="M 92.242091 307.584 
L 93.108414 307.584 
L 93.108414 242.287536 
L 92.242091 242.287536 
z
" style="fill:#1f77b4;"/>
   </g>
   <g id="patch_21">
    <path clip-path="url(#pc9fe97c1ce)" d="M 93.324995 307.584 
L 94.191318 307.584 
L 94.191318 293.449147 
L 93.324995 293.449147 
z
" style="fill:#1f77b4;"/>
   </g>
   <g id="patch_22">
    <path clip-path="url(#pc9fe97c1ce)" d="M 94.407899 307.584 
L 95.274222 307.584 
L 95.274222 259.491345 
L 94.407899 259.491345 
z
" style="fill:#1f77b4;"/>
   </g>
   <g id="patch_23">
    <path clip-path="url(#pc9fe97c1ce)" d="M 95.490802 307.584 
L 96.357125 307.584 
L 96.357125 243.059693 
L 95.490802 243.059693 
z
" style="fill:#1f77b4;"/>
   </g>
   <g id="patch_24">
    <path clip-path="url(#pc9fe97c1ce)" d="M 96.573706 307.584 
L 97.440029 307.584 
L 97.440029 284.478621 
L 96.573706 284.478621 
z
" style="fill:#1f77b4;"/>
   </g>
   <g id="patch_25">
    <path clip-path="url(#pc9fe97c1ce)" d="M 97.65661 307.584 
L 98.522933 307.584 
L 98.522933 253.290146 
L 97.65661 253.290146 
z
" style="fill:#1f77b4;"/>
   </g>
   <g id="patch_26">
    <path clip-path="url(#pc9fe97c1ce)" d="M 98.739514 307.584 
L 99.605837 307.584 
L 99.605837 235.847413 
L 98.739514 235.847413 
z
" style="fill:#1f77b4;"/>
   </g>
   <g id="patch_27">
    <path clip-path="url(#pc9fe97c1ce)" d="M 99.822417 307.584 
L 100.68874 307.584 
L 100.68874 294.551294 
L 99.822417 294.551294 
z
" style="fill:#1f77b4;"/>
   </g>
   <g id="patch_28">
    <path clip-path="url(#pc9fe97c1ce)" d="M 100.905321 307.584 
L 101.771644 307.584 
L 101.771644 303.008675 
L 100.905321 303.008675 
z
" style="fill:#1f77b4;"/>
   </g>
   <g id="patch_29">
    <path clip-path="url(#pc9fe97c1ce)" d="M 101.988225 307.584 
L 102.854548 307.584 
L 102.854548 301.157135 
L 101.988225 301.157135 
z
" style="fill:#1f77b4;"/>
   </g>
   <g id="patch_30">
    <path clip-path="url(#pc9fe97c1ce)" d="M 103.071129 307.584 
L 103.937452 307.584 
L 103.937452 297.257177 
L 103.071129 297.257177 
z
" style="fill:#1f77b4;"/>
   </g>
   <g id="patch_31">
    <path clip-path="url(#pc9fe97c1ce)" d="M 104.154032 307.584 
L 105.020355 307.584 
L 105.020355 276.331867 
L 104.154032 276.331867 
z
" style="fill:#1f77b4;"/>
   </g>
   <g id="patch_32">
    <path clip-path="url(#pc9fe97c1ce)" d="M 105.236936 307.584 
L 106.103259 307.584 
L 106.103259 306.784237 
L 105.236936 306.784237 
z
" style="fill:#1f77b4;"/>
   </g>
   <g id="patch_33">
    <path clip-path="url(#pc9fe97c1ce)" d="M 106.31984 307.584 
L 107.186163 307.584 
L 107.186163 289.306194 
L 106.31984 289.306194 
z
" style="fill:#1f77b4;"/>
   </g>
   <g id="patch_34">
    <path clip-path="url(#pc9fe97c1ce)" d="M 107.402744 307.584 
L 108.269067 307.584 
L 108.269067 278.357368 
L 107.402744 278.357368 
z
" style="fill:#1f77b4;"/>
   </g>
   <g id="patch_35">
    <path clip-path="url(#pc9fe97c1ce)" d="M 108.485647 307.584 
L 109.35197 307.584 
L 109.35197 264.195441 
L 108.485647 264.195441 
z
" style="fill:#1f77b4;"/>
   </g>
   <g id="patch_36">
    <path clip-path="url(#pc9fe97c1ce)" d="M 109.568551 307.584 
L 110.434874 307.584 
L 110.434874 270.791206 
L 109.568551 270.791206 
z
" style="fill:#1f77b4;"/>
   </g>
   <g id="patch_37">
    <path clip-path="url(#pc9fe97c1ce)" d="M 110.651455 307.584 
L 111.517778 307.584 
L 111.517778 281.099594 
L 110.651455 281.099594 
z
" style="fill:#1f77b4;"/>
   </g>
   <g id="patch_38">
    <path clip-path="url(#pc9fe97c1ce)" d="M 111.734359 307.584 
L 112.600682 307.584 
L 112.600682 287.722058 
L 111.734359 287.722058 
z
" style="fill:#1f77b4;"/>
   </g>
   <g id="patch_39">
    <path clip-path="url(#pc9fe97c1ce)" d="M 112.817262 307.584 
L 113.683585 307.584 
L 113.683585 300.463481 
L 112.817262 300.463481 
z
" style="fill:#1f77b4;"/>
   </g>
   <g id="patch_40">
    <path clip-path="url(#pc9fe97c1ce)" d="M 113.900166 307.584 
L 114.766489 307.584 
L 114.766489 286.974724 
L 113.900166 286.974724 
z
" style="fill:#1f77b4;"/>
   </g>
   <g id="patch_41">
    <path clip-path="url(#pc9fe97c1ce)" d="M 114.98307 307.584 
L 115.849393 307.584 
L 115.849393 278.761404 
L 114.98307 278.761404 
z
" style="fill:#1f77b4;"/>
   </g>
   <g id="patch_42">
    <path clip-path="url(#pc9fe97c1ce)" d="M 116.065974 307.584 
L 116.932297 307.584 
L 116.932297 291.291355 
L 116.065974 291.291355 
z
" style="fill:#1f77b4;"/>
   </g>
   <g id="patch_43">
    <path clip-path="url(#pc9fe97c1ce)" d="M 117.148877 307.584 
L 118.0152 307.584 
L 118.0152 300.15539 
L 117.148877 300.15539 
z
" style="fill:#1f77b4;"/>
   </g>
   <g id="patch_44">
    <path clip-path="url(#pc9fe97c1ce)" d="M 118.231781 307.584 
L 119.098104 307.584 
L 119.098104 285.33569 
L 118.231781 285.33569 
z
" style="fill:#1f77b4;"/>
   </g>
   <g id="patch_45">
    <path clip-path="url(#pc9fe97c1ce)" d="M 119.314685 307.584 
L 120.181008 307.584 
L 120.181008 290.228444 
L 119.314685 290.228444 
z
" style="fill:#1f77b4;"/>
   </g>
   <g id="patch_46">
    <path clip-path="url(#pc9fe97c1ce)" d="M 120.397589 307.584 
L 121.263912 307.584 
L 121.263912 256.073 
L 120.397589 256.073 
z
" style="fill:#1f77b4;"/>
   </g>
   <g id="patch_47">
    <path clip-path="url(#pc9fe97c1ce)" d="M 121.480492 307.584 
L 122.346815 307.584 
L 122.346815 291.314519 
L 121.480492 291.314519 
z
" style="fill:#1f77b4;"/>
   </g>
   <g id="patch_48">
    <path clip-path="url(#pc9fe97c1ce)" d="M 122.563396 307.584 
L 123.429719 307.584 
L 123.429719 246.401728 
L 122.563396 246.401728 
z
" style="fill:#1f77b4;"/>
   </g>
   <g id="patch_49">
    <path clip-path="url(#pc9fe97c1ce)" d="M 123.6463 307.584 
L 124.512623 307.584 
L 124.512623 243.871393 
L 123.6463 243.871393 
z
" style="fill:#1f77b4;"/>
   </g>
   <g id="patch_50">
    <path clip-path="url(#pc9fe97c1ce)" d="M 124.729204 307.584 
L 125.595527 307.584 
L 125.595527 296.740559 
L 124.729204 296.740559 
z
" style="fill:#1f77b4;"/>
   </g>
   <g id="patch_51">
    <path clip-path="url(#pc9fe97c1ce)" d="M 125.812107 307.584 
L 126.67843 307.584 
L 126.67843 298.806877 
L 125.812107 298.806877 
z
" style="fill:#1f77b4;"/>
   </g>
   <g id="patch_52">
    <path clip-path="url(#pc9fe97c1ce)" d="M 126.895011 307.584 
L 127.761334 307.584 
L 127.761334 279.747462 
L 126.895011 279.747462 
z
" style="fill:#1f77b4;"/>
   </g>
   <g id="patch_53">
    <path clip-path="url(#pc9fe97c1ce)" d="M 127.977915 307.584 
L 128.844238 307.584 
L 128.844238 301.850705 
L 127.977915 301.850705 
z
" style="fill:#1f77b4;"/>
   </g>
   <g id="patch_54">
    <path clip-path="url(#pc9fe97c1ce)" d="M 129.060819 307.584 
L 129.927142 307.584 
L 129.927142 179.562098 
L 129.060819 179.562098 
z
" style="fill:#1f77b4;"/>
   </g>
   <g id="patch_55">
    <path clip-path="url(#pc9fe97c1ce)" d="M 130.143722 307.584 
L 131.010045 307.584 
L 131.010045 217.634515 
L 130.143722 217.634515 
z
" style="fill:#1f77b4;"/>
   </g>
   <g id="patch_56">
    <path clip-path="url(#pc9fe97c1ce)" d="M 131.226626 307.584 
L 132.092949 307.584 
L 132.092949 290.968208 
L 131.226626 290.968208 
z
" style="fill:#1f77b4;"/>
   </g>
   <g id="patch_57">
    <path clip-path="url(#pc9fe97c1ce)" d="M 132.30953 307.584 
L 133.175853 307.584 
L 133.175853 202.593852 
L 132.30953 202.593852 
z
" style="fill:#1f77b4;"/>
   </g>
   <g id="patch_58">
    <path clip-path="url(#pc9fe97c1ce)" d="M 133.392434 307.584 
L 134.258757 307.584 
L 134.258757 284.026526 
L 133.392434 284.026526 
z
" style="fill:#1f77b4;"/>
   </g>
   <g id="patch_59">
    <path clip-path="url(#pc9fe97c1ce)" d="M 134.475337 307.584 
L 135.341661 307.584 
L 135.341661 249.674103 
L 134.475337 249.674103 
z
" style="fill:#1f77b4;"/>
   </g>
   <g id="patch_60">
    <path clip-path="url(#pc9fe97c1ce)" d="M 135.558241 307.584 
L 136.424564 307.584 
L 136.424564 293.34925 
L 135.558241 293.34925 
z
" style="fill:#1f77b4;"/>
   </g>
   <g id="patch_61">
    <path clip-path="url(#pc9fe97c1ce)" d="M 136.641145 307.584 
L 137.507468 307.584 
L 137.507468 280.275907 
L 136.641145 280.275907 
z
" style="fill:#1f77b4;"/>
   </g>
   <g id="patch_62">
    <path clip-path="url(#pc9fe97c1ce)" d="M 137.724049 307.584 
L 138.590372 307.584 
L 138.590372 297.15827 
L 137.724049 297.15827 
z
" style="fill:#1f77b4;"/>
   </g>
   <g id="patch_63">
    <path clip-path="url(#pc9fe97c1ce)" d="M 138.806953 307.584 
L 139.673276 307.584 
L 139.673276 297.940368 
L 138.806953 297.940368 
z
" style="fill:#1f77b4;"/>
   </g>
   <g id="patch_64">
    <path clip-path="url(#pc9fe97c1ce)" d="M 139.889856 307.584 
L 140.756179 307.584 
L 140.756179 270.989178 
L 139.889856 270.989178 
z
" style="fill:#1f77b4;"/>
   </g>
   <g id="patch_65">
    <path clip-path="url(#pc9fe97c1ce)" d="M 140.97276 307.584 
L 141.839083 307.584 
L 141.839083 261.394462 
L 140.97276 261.394462 
z
" style="fill:#1f77b4;"/>
   </g>
   <g id="patch_66">
    <path clip-path="url(#pc9fe97c1ce)" d="M 142.055664 307.584 
L 142.921987 307.584 
L 142.921987 283.512372 
L 142.055664 283.512372 
z
" style="fill:#1f77b4;"/>
   </g>
   <g id="patch_67">
    <path clip-path="url(#pc9fe97c1ce)" d="M 143.138568 307.584 
L 144.004891 307.584 
L 144.004891 303.181396 
L 143.138568 303.181396 
z
" style="fill:#1f77b4;"/>
   </g>
   <g id="patch_68">
    <path clip-path="url(#pc9fe97c1ce)" d="M 144.221471 307.584 
L 145.087794 307.584 
L 145.087794 267.24116 
L 144.221471 267.24116 
z
" style="fill:#1f77b4;"/>
   </g>
   <g id="patch_69">
    <path clip-path="url(#pc9fe97c1ce)" d="M 145.304375 307.584 
L 146.170698 307.584 
L 146.170698 210.278214 
L 145.304375 210.278214 
z
" style="fill:#1f77b4;"/>
   </g>
   <g id="patch_70">
    <path clip-path="url(#pc9fe97c1ce)" d="M 146.387279 307.584 
L 147.253602 307.584 
L 147.253602 241.713712 
L 146.387279 241.713712 
z
" style="fill:#1f77b4;"/>
   </g>
   <g id="patch_71">
    <path clip-path="url(#pc9fe97c1ce)" d="M 147.470183 307.584 
L 148.336506 307.584 
L 148.336506 233.136298 
L 147.470183 233.136298 
z
" style="fill:#1f77b4;"/>
   </g>
   <g id="patch_72">
    <path clip-path="url(#pc9fe97c1ce)" d="M 148.553086 307.584 
L 149.419409 307.584 
L 149.419409 262.063135 
L 148.553086 262.063135 
z
" style="fill:#1f77b4;"/>
   </g>
   <g id="patch_73">
    <path clip-path="url(#pc9fe97c1ce)" d="M 149.63599 307.584 
L 150.502313 307.584 
L 150.502313 265.060509 
L 149.63599 265.060509 
z
" style="fill:#1f77b4;"/>
   </g>
   <g id="patch_74">
    <path clip-path="url(#pc9fe97c1ce)" d="M 150.718894 307.584 
L 151.585217 307.584 
L 151.585217 294.109538 
L 150.718894 294.109538 
z
" style="fill:#1f77b4;"/>
   </g>
   <g id="patch_75">
    <path clip-path="url(#pc9fe97c1ce)" d="M 151.801798 307.584 
L 152.668121 307.584 
L 152.668121 306.17155 
L 151.801798 306.17155 
z
" style="fill:#1f77b4;"/>
   </g>
   <g id="patch_76">
    <path clip-path="url(#pc9fe97c1ce)" d="M 152.884701 307.584 
L 153.751024 307.584 
L 153.751024 287.496129 
L 152.884701 287.496129 
z
" style="fill:#1f77b4;"/>
   </g>
   <g id="patch_77">
    <path clip-path="url(#pc9fe97c1ce)" d="M 153.967605 307.584 
L 154.833928 307.584 
L 154.833928 54.144 
L 153.967605 54.144 
z
" style="fill:#1f77b4;"/>
   </g>
   <g id="patch_78">
    <path clip-path="url(#pc9fe97c1ce)" d="M 155.050509 307.584 
L 155.916832 307.584 
L 155.916832 282.492347 
L 155.050509 282.492347 
z
" style="fill:#1f77b4;"/>
   </g>
   <g id="patch_79">
    <path clip-path="url(#pc9fe97c1ce)" d="M 156.133413 307.584 
L 156.999736 307.584 
L 156.999736 278.303355 
L 156.133413 278.303355 
z
" style="fill:#1f77b4;"/>
   </g>
   <g id="patch_80">
    <path clip-path="url(#pc9fe97c1ce)" d="M 157.216316 307.584 
L 158.082639 307.584 
L 158.082639 299.080754 
L 157.216316 299.080754 
z
" style="fill:#1f77b4;"/>
   </g>
   <g id="patch_81">
    <path clip-path="url(#pc9fe97c1ce)" d="M 158.29922 307.584 
L 159.165543 307.584 
L 159.165543 278.087075 
L 158.29922 278.087075 
z
" style="fill:#1f77b4;"/>
   </g>
   <g id="patch_82">
    <path clip-path="url(#pc9fe97c1ce)" d="M 159.382124 307.584 
L 160.248447 307.584 
L 160.248447 292.468515 
L 159.382124 292.468515 
z
" style="fill:#1f77b4;"/>
   </g>
   <g id="patch_83">
    <path clip-path="url(#pc9fe97c1ce)" d="M 160.465028 307.584 
L 161.331351 307.584 
L 161.331351 279.86119 
L 160.465028 279.86119 
z
" style="fill:#1f77b4;"/>
   </g>
   <g id="patch_84">
    <path clip-path="url(#pc9fe97c1ce)" d="M 161.547931 307.584 
L 162.414254 307.584 
L 162.414254 273.708922 
L 161.547931 273.708922 
z
" style="fill:#1f77b4;"/>
   </g>
   <g id="patch_85">
    <path clip-path="url(#pc9fe97c1ce)" d="M 162.630835 307.584 
L 163.497158 307.584 
L 163.497158 231.453919 
L 162.630835 231.453919 
z
" style="fill:#1f77b4;"/>
   </g>
   <g id="patch_86">
    <path clip-path="url(#pc9fe97c1ce)" d="M 163.713739 307.584 
L 164.580062 307.584 
L 164.580062 268.808747 
L 163.713739 268.808747 
z
" style="fill:#1f77b4;"/>
   </g>
   <g id="patch_87">
    <path clip-path="url(#pc9fe97c1ce)" d="M 164.796643 307.584 
L 165.662966 307.584 
L 165.662966 266.540668 
L 164.796643 266.540668 
z
" style="fill:#1f77b4;"/>
   </g>
   <g id="patch_88">
    <path clip-path="url(#pc9fe97c1ce)" d="M 165.879546 307.584 
L 166.745869 307.584 
L 166.745869 278.104804 
L 165.879546 278.104804 
z
" style="fill:#1f77b4;"/>
   </g>
   <g id="patch_89">
    <path clip-path="url(#pc9fe97c1ce)" d="M 166.96245 307.584 
L 167.828773 307.584 
L 167.828773 303.937033 
L 166.96245 303.937033 
z
" style="fill:#1f77b4;"/>
   </g>
   <g id="patch_90">
    <path clip-path="url(#pc9fe97c1ce)" d="M 168.045354 307.584 
L 168.911677 307.584 
L 168.911677 293.576636 
L 168.045354 293.576636 
z
" style="fill:#1f77b4;"/>
   </g>
   <g id="patch_91">
    <path clip-path="url(#pc9fe97c1ce)" d="M 169.128258 307.584 
L 169.994581 307.584 
L 169.994581 280.725576 
L 169.128258 280.725576 
z
" style="fill:#1f77b4;"/>
   </g>
   <g id="patch_92">
    <path clip-path="url(#pc9fe97c1ce)" d="M 170.211161 307.584 
L 171.077484 307.584 
L 171.077484 259.797568 
L 170.211161 259.797568 
z
" style="fill:#1f77b4;"/>
   </g>
   <g id="patch_93">
    <path clip-path="url(#pc9fe97c1ce)" d="M 171.294065 307.584 
L 172.160388 307.584 
L 172.160388 262.879701 
L 171.294065 262.879701 
z
" style="fill:#1f77b4;"/>
   </g>
   <g id="patch_94">
    <path clip-path="url(#pc9fe97c1ce)" d="M 172.376969 307.584 
L 173.243292 307.584 
L 173.243292 230.532006 
L 172.376969 230.532006 
z
" style="fill:#1f77b4;"/>
   </g>
   <g id="patch_95">
    <path clip-path="url(#pc9fe97c1ce)" d="M 173.459873 307.584 
L 174.326196 307.584 
L 174.326196 275.986567 
L 173.459873 275.986567 
z
" style="fill:#1f77b4;"/>
   </g>
   <g id="patch_96">
    <path clip-path="url(#pc9fe97c1ce)" d="M 174.542776 307.584 
L 175.409099 307.584 
L 175.409099 288.910557 
L 174.542776 288.910557 
z
" style="fill:#1f77b4;"/>
   </g>
   <g id="patch_97">
    <path clip-path="url(#pc9fe97c1ce)" d="M 175.62568 307.584 
L 176.492003 307.584 
L 176.492003 281.938065 
L 175.62568 281.938065 
z
" style="fill:#1f77b4;"/>
   </g>
   <g id="patch_98">
    <path clip-path="url(#pc9fe97c1ce)" d="M 176.708584 307.584 
L 177.574907 307.584 
L 177.574907 268.653818 
L 176.708584 268.653818 
z
" style="fill:#1f77b4;"/>
   </g>
   <g id="patch_99">
    <path clip-path="url(#pc9fe97c1ce)" d="M 177.791488 307.584 
L 178.657811 307.584 
L 178.657811 305.05349 
L 177.791488 305.05349 
z
" style="fill:#1f77b4;"/>
   </g>
   <g id="patch_100">
    <path clip-path="url(#pc9fe97c1ce)" d="M 178.874391 307.584 
L 179.740714 307.584 
L 179.740714 264.65323 
L 178.874391 264.65323 
z
" style="fill:#1f77b4;"/>
   </g>
   <g id="patch_101">
    <path clip-path="url(#pc9fe97c1ce)" d="M 179.957295 307.584 
L 180.823618 307.584 
L 180.823618 296.029639 
L 179.957295 296.029639 
z
" style="fill:#1f77b4;"/>
   </g>
   <g id="patch_102">
    <path clip-path="url(#pc9fe97c1ce)" d="M 181.040199 307.584 
L 181.906522 307.584 
L 181.906522 264.614353 
L 181.040199 264.614353 
z
" style="fill:#1f77b4;"/>
   </g>
   <g id="patch_103">
    <path clip-path="url(#pc9fe97c1ce)" d="M 182.123103 307.584 
L 182.989426 307.584 
L 182.989426 281.854606 
L 182.123103 281.854606 
z
" style="fill:#1f77b4;"/>
   </g>
   <g id="patch_104">
    <path clip-path="url(#pc9fe97c1ce)" d="M 183.206006 307.584 
L 184.072329 307.584 
L 184.072329 294.903617 
L 183.206006 294.903617 
z
" style="fill:#1f77b4;"/>
   </g>
   <g id="patch_105">
    <path clip-path="url(#pc9fe97c1ce)" d="M 184.28891 307.584 
L 185.155233 307.584 
L 185.155233 272.244667 
L 184.28891 272.244667 
z
" style="fill:#1f77b4;"/>
   </g>
   <g id="patch_106">
    <path clip-path="url(#pc9fe97c1ce)" d="M 185.371814 307.584 
L 186.238137 307.584 
L 186.238137 265.840176 
L 185.371814 265.840176 
z
" style="fill:#1f77b4;"/>
   </g>
   <g id="patch_107">
    <path clip-path="url(#pc9fe97c1ce)" d="M 186.454718 307.584 
L 187.321041 307.584 
L 187.321041 277.486941 
L 186.454718 277.486941 
z
" style="fill:#1f77b4;"/>
   </g>
   <g id="patch_108">
    <path clip-path="url(#pc9fe97c1ce)" d="M 187.537621 307.584 
L 188.403944 307.584 
L 188.403944 289.005045 
L 187.537621 289.005045 
z
" style="fill:#1f77b4;"/>
   </g>
   <g id="patch_109">
    <path clip-path="url(#pc9fe97c1ce)" d="M 188.620525 307.584 
L 189.486848 307.584 
L 189.486848 277.780162 
L 188.620525 277.780162 
z
" style="fill:#1f77b4;"/>
   </g>
   <g id="patch_110">
    <path clip-path="url(#pc9fe97c1ce)" d="M 189.703429 307.584 
L 190.569752 307.584 
L 190.569752 282.226377 
L 189.703429 282.226377 
z
" style="fill:#1f77b4;"/>
   </g>
   <g id="patch_111">
    <path clip-path="url(#pc9fe97c1ce)" d="M 190.786333 307.584 
L 191.652656 307.584 
L 191.652656 271.781734 
L 190.786333 271.781734 
z
" style="fill:#1f77b4;"/>
   </g>
   <g id="patch_112">
    <path clip-path="url(#pc9fe97c1ce)" d="M 191.869236 307.584 
L 192.735559 307.584 
L 192.735559 245.796985 
L 191.869236 245.796985 
z
" style="fill:#1f77b4;"/>
   </g>
   <g id="patch_113">
    <path clip-path="url(#pc9fe97c1ce)" d="M 192.95214 307.584 
L 193.818463 307.584 
L 193.818463 279.293658 
L 192.95214 279.293658 
z
" style="fill:#1f77b4;"/>
   </g>
   <g id="patch_114">
    <path clip-path="url(#pc9fe97c1ce)" d="M 194.035044 307.584 
L 194.901367 307.584 
L 194.901367 265.081029 
L 194.035044 265.081029 
z
" style="fill:#1f77b4;"/>
   </g>
   <g id="patch_115">
    <path clip-path="url(#pc9fe97c1ce)" d="M 195.117948 307.584 
L 195.984271 307.584 
L 195.984271 298.302351 
L 195.117948 298.302351 
z
" style="fill:#1f77b4;"/>
   </g>
   <g id="patch_116">
    <path clip-path="url(#pc9fe97c1ce)" d="M 196.200851 307.584 
L 197.067174 307.584 
L 197.067174 247.486215 
L 196.200851 247.486215 
z
" style="fill:#1f77b4;"/>
   </g>
   <g id="patch_117">
    <path clip-path="url(#pc9fe97c1ce)" d="M 197.283755 307.584 
L 198.150078 307.584 
L 198.150078 257.473366 
L 197.283755 257.473366 
z
" style="fill:#1f77b4;"/>
   </g>
   <g id="patch_118">
    <path clip-path="url(#pc9fe97c1ce)" d="M 198.366659 307.584 
L 199.232982 307.584 
L 199.232982 255.566601 
L 198.366659 255.566601 
z
" style="fill:#1f77b4;"/>
   </g>
   <g id="patch_119">
    <path clip-path="url(#pc9fe97c1ce)" d="M 199.449563 307.584 
L 200.315886 307.584 
L 200.315886 296.605999 
L 199.449563 296.605999 
z
" style="fill:#1f77b4;"/>
   </g>
   <g id="patch_120">
    <path clip-path="url(#pc9fe97c1ce)" d="M 200.532466 307.584 
L 201.398789 307.584 
L 201.398789 209.134724 
L 200.532466 209.134724 
z
" style="fill:#1f77b4;"/>
   </g>
   <g id="patch_121">
    <path clip-path="url(#pc9fe97c1ce)" d="M 201.61537 307.584 
L 202.481693 307.584 
L 202.481693 205.005756 
L 201.61537 205.005756 
z
" style="fill:#1f77b4;"/>
   </g>
   <g id="patch_122">
    <path clip-path="url(#pc9fe97c1ce)" d="M 202.698274 307.584 
L 203.564597 307.584 
L 203.564597 291.270543 
L 202.698274 291.270543 
z
" style="fill:#1f77b4;"/>
   </g>
   <g id="patch_123">
    <path clip-path="url(#pc9fe97c1ce)" d="M 203.781178 307.584 
L 204.647501 307.584 
L 204.647501 273.251511 
L 203.781178 273.251511 
z
" style="fill:#1f77b4;"/>
   </g>
   <g id="patch_124">
    <path clip-path="url(#pc9fe97c1ce)" d="M 204.864082 307.584 
L 205.730405 307.584 
L 205.730405 277.300115 
L 204.864082 277.300115 
z
" style="fill:#1f77b4;"/>
   </g>
   <g id="patch_125">
    <path clip-path="url(#pc9fe97c1ce)" d="M 205.946985 307.584 
L 206.813308 307.584 
L 206.813308 266.993204 
L 205.946985 266.993204 
z
" style="fill:#1f77b4;"/>
   </g>
   <g id="patch_126">
    <path clip-path="url(#pc9fe97c1ce)" d="M 207.029889 307.584 
L 207.896212 307.584 
L 207.896212 304.874029 
L 207.029889 304.874029 
z
" style="fill:#1f77b4;"/>
   </g>
   <g id="patch_127">
    <path clip-path="url(#pc9fe97c1ce)" d="M 208.112793 307.584 
L 208.979116 307.584 
L 208.979116 249.041435 
L 208.112793 249.041435 
z
" style="fill:#1f77b4;"/>
   </g>
   <g id="patch_128">
    <path clip-path="url(#pc9fe97c1ce)" d="M 209.195697 307.584 
L 210.06202 307.584 
L 210.06202 281.828102 
L 209.195697 281.828102 
z
" style="fill:#1f77b4;"/>
   </g>
   <g id="patch_129">
    <path clip-path="url(#pc9fe97c1ce)" d="M 210.2786 307.584 
L 211.144923 307.584 
L 211.144923 289.460763 
L 210.2786 289.460763 
z
" style="fill:#1f77b4;"/>
   </g>
   <g id="patch_130">
    <path clip-path="url(#pc9fe97c1ce)" d="M 211.361504 307.584 
L 212.227827 307.584 
L 212.227827 254.777885 
L 211.361504 254.777885 
z
" style="fill:#1f77b4;"/>
   </g>
   <g id="patch_131">
    <path clip-path="url(#pc9fe97c1ce)" d="M 212.444408 307.584 
L 213.310731 307.584 
L 213.310731 271.133606 
L 212.444408 271.133606 
z
" style="fill:#1f77b4;"/>
   </g>
   <g id="patch_132">
    <path clip-path="url(#pc9fe97c1ce)" d="M 213.527312 307.584 
L 214.393635 307.584 
L 214.393635 289.167565 
L 213.527312 289.167565 
z
" style="fill:#1f77b4;"/>
   </g>
   <g id="patch_133">
    <path clip-path="url(#pc9fe97c1ce)" d="M 214.610215 307.584 
L 215.476538 307.584 
L 215.476538 278.634736 
L 214.610215 278.634736 
z
" style="fill:#1f77b4;"/>
   </g>
   <g id="patch_134">
    <path clip-path="url(#pc9fe97c1ce)" d="M 215.693119 307.584 
L 216.559442 307.584 
L 216.559442 301.042023 
L 215.693119 301.042023 
z
" style="fill:#1f77b4;"/>
   </g>
   <g id="patch_135">
    <path clip-path="url(#pc9fe97c1ce)" d="M 216.776023 307.584 
L 217.642346 307.584 
L 217.642346 298.271064 
L 216.776023 298.271064 
z
" style="fill:#1f77b4;"/>
   </g>
   <g id="patch_136">
    <path clip-path="url(#pc9fe97c1ce)" d="M 217.858927 307.584 
L 218.72525 307.584 
L 218.72525 302.193057 
L 217.858927 302.193057 
z
" style="fill:#1f77b4;"/>
   </g>
   <g id="patch_137">
    <path clip-path="url(#pc9fe97c1ce)" d="M 218.94183 307.584 
L 219.808153 307.584 
L 219.808153 265.894602 
L 218.94183 265.894602 
z
" style="fill:#1f77b4;"/>
   </g>
   <g id="patch_138">
    <path clip-path="url(#pc9fe97c1ce)" d="M 220.024734 307.584 
L 220.891057 307.584 
L 220.891057 229.088329 
L 220.024734 229.088329 
z
" style="fill:#1f77b4;"/>
   </g>
   <g id="patch_139">
    <path clip-path="url(#pc9fe97c1ce)" d="M 221.107638 307.584 
L 221.973961 307.584 
L 221.973961 294.105367 
L 221.107638 294.105367 
z
" style="fill:#1f77b4;"/>
   </g>
   <g id="patch_140">
    <path clip-path="url(#pc9fe97c1ce)" d="M 222.190542 307.584 
L 223.056865 307.584 
L 223.056865 269.592334 
L 222.190542 269.592334 
z
" style="fill:#1f77b4;"/>
   </g>
   <g id="patch_141">
    <path clip-path="url(#pc9fe97c1ce)" d="M 223.273445 307.584 
L 224.139768 307.584 
L 224.139768 257.892406 
L 223.273445 257.892406 
z
" style="fill:#1f77b4;"/>
   </g>
   <g id="patch_142">
    <path clip-path="url(#pc9fe97c1ce)" d="M 224.356349 307.584 
L 225.222672 307.584 
L 225.222672 240.232045 
L 224.356349 240.232045 
z
" style="fill:#1f77b4;"/>
   </g>
   <g id="patch_143">
    <path clip-path="url(#pc9fe97c1ce)" d="M 225.439253 307.584 
L 226.305576 307.584 
L 226.305576 281.026851 
L 225.439253 281.026851 
z
" style="fill:#1f77b4;"/>
   </g>
   <g id="patch_144">
    <path clip-path="url(#pc9fe97c1ce)" d="M 226.522157 307.584 
L 227.38848 307.584 
L 227.38848 292.700847 
L 226.522157 292.700847 
z
" style="fill:#1f77b4;"/>
   </g>
   <g id="patch_145">
    <path clip-path="url(#pc9fe97c1ce)" d="M 227.60506 307.584 
L 228.471383 307.584 
L 228.471383 275.45677 
L 227.60506 275.45677 
z
" style="fill:#1f77b4;"/>
   </g>
   <g id="patch_146">
    <path clip-path="url(#pc9fe97c1ce)" d="M 228.687964 307.584 
L 229.554287 307.584 
L 229.554287 270.261724 
L 228.687964 270.261724 
z
" style="fill:#1f77b4;"/>
   </g>
   <g id="patch_147">
    <path clip-path="url(#pc9fe97c1ce)" d="M 229.770868 307.584 
L 230.637191 307.584 
L 230.637191 252.782947 
L 229.770868 252.782947 
z
" style="fill:#1f77b4;"/>
   </g>
   <g id="patch_148">
    <path clip-path="url(#pc9fe97c1ce)" d="M 230.853772 307.584 
L 231.720095 307.584 
L 231.720095 270.380975 
L 230.853772 270.380975 
z
" style="fill:#1f77b4;"/>
   </g>
   <g id="patch_149">
    <path clip-path="url(#pc9fe97c1ce)" d="M 231.936675 307.584 
L 232.802998 307.584 
L 232.802998 280.336834 
L 231.936675 280.336834 
z
" style="fill:#1f77b4;"/>
   </g>
   <g id="patch_150">
    <path clip-path="url(#pc9fe97c1ce)" d="M 233.019579 307.584 
L 233.885902 307.584 
L 233.885902 270.947192 
L 233.019579 270.947192 
z
" style="fill:#1f77b4;"/>
   </g>
   <g id="patch_151">
    <path clip-path="url(#pc9fe97c1ce)" d="M 234.102483 307.584 
L 234.968806 307.584 
L 234.968806 295.539938 
L 234.102483 295.539938 
z
" style="fill:#1f77b4;"/>
   </g>
   <g id="patch_152">
    <path clip-path="url(#pc9fe97c1ce)" d="M 235.185387 307.584 
L 236.05171 307.584 
L 236.05171 245.276478 
L 235.185387 245.276478 
z
" style="fill:#1f77b4;"/>
   </g>
   <g id="patch_153">
    <path clip-path="url(#pc9fe97c1ce)" d="M 236.26829 307.584 
L 237.134613 307.584 
L 237.134613 285.122804 
L 236.26829 285.122804 
z
" style="fill:#1f77b4;"/>
   </g>
   <g id="patch_154">
    <path clip-path="url(#pc9fe97c1ce)" d="M 237.351194 307.584 
L 238.217517 307.584 
L 238.217517 265.235746 
L 237.351194 265.235746 
z
" style="fill:#1f77b4;"/>
   </g>
   <g id="patch_155">
    <path clip-path="url(#pc9fe97c1ce)" d="M 238.434098 307.584 
L 239.300421 307.584 
L 239.300421 285.125845 
L 238.434098 285.125845 
z
" style="fill:#1f77b4;"/>
   </g>
   <g id="patch_156">
    <path clip-path="url(#pc9fe97c1ce)" d="M 239.517002 307.584 
L 240.383325 307.584 
L 240.383325 259.397183 
L 239.517002 259.397183 
z
" style="fill:#1f77b4;"/>
   </g>
   <g id="patch_157">
    <path clip-path="url(#pc9fe97c1ce)" d="M 240.599905 307.584 
L 241.466228 307.584 
L 241.466228 279.090754 
L 240.599905 279.090754 
z
" style="fill:#1f77b4;"/>
   </g>
   <g id="patch_158">
    <path clip-path="url(#pc9fe97c1ce)" d="M 241.682809 307.584 
L 242.549132 307.584 
L 242.549132 275.615279 
L 241.682809 275.615279 
z
" style="fill:#1f77b4;"/>
   </g>
   <g id="patch_159">
    <path clip-path="url(#pc9fe97c1ce)" d="M 242.765713 307.584 
L 243.632036 307.584 
L 243.632036 294.27355 
L 242.765713 294.27355 
z
" style="fill:#1f77b4;"/>
   </g>
   <g id="patch_160">
    <path clip-path="url(#pc9fe97c1ce)" d="M 243.848617 307.584 
L 244.71494 307.584 
L 244.71494 278.040153 
L 243.848617 278.040153 
z
" style="fill:#1f77b4;"/>
   </g>
   <g id="patch_161">
    <path clip-path="url(#pc9fe97c1ce)" d="M 244.93152 307.584 
L 245.797843 307.584 
L 245.797843 255.304654 
L 244.93152 255.304654 
z
" style="fill:#1f77b4;"/>
   </g>
   <g id="patch_162">
    <path clip-path="url(#pc9fe97c1ce)" d="M 246.014424 307.584 
L 246.880747 307.584 
L 246.880747 261.865894 
L 246.014424 261.865894 
z
" style="fill:#1f77b4;"/>
   </g>
   <g id="patch_163">
    <path clip-path="url(#pc9fe97c1ce)" d="M 247.097328 307.584 
L 247.963651 307.584 
L 247.963651 296.399769 
L 247.097328 296.399769 
z
" style="fill:#1f77b4;"/>
   </g>
   <g id="patch_164">
    <path clip-path="url(#pc9fe97c1ce)" d="M 248.180232 307.584 
L 249.046555 307.584 
L 249.046555 295.119298 
L 248.180232 295.119298 
z
" style="fill:#1f77b4;"/>
   </g>
   <g id="patch_165">
    <path clip-path="url(#pc9fe97c1ce)" d="M 249.263135 307.584 
L 250.129458 307.584 
L 250.129458 250.938675 
L 249.263135 250.938675 
z
" style="fill:#1f77b4;"/>
   </g>
   <g id="patch_166">
    <path clip-path="url(#pc9fe97c1ce)" d="M 250.346039 307.584 
L 251.212362 307.584 
L 251.212362 266.744742 
L 250.346039 266.744742 
z
" style="fill:#1f77b4;"/>
   </g>
   <g id="patch_167">
    <path clip-path="url(#pc9fe97c1ce)" d="M 251.428943 307.584 
L 252.295266 307.584 
L 252.295266 295.75304 
L 251.428943 295.75304 
z
" style="fill:#1f77b4;"/>
   </g>
   <g id="patch_168">
    <path clip-path="url(#pc9fe97c1ce)" d="M 252.511847 307.584 
L 253.37817 307.584 
L 253.37817 263.966275 
L 252.511847 263.966275 
z
" style="fill:#1f77b4;"/>
   </g>
   <g id="patch_169">
    <path clip-path="url(#pc9fe97c1ce)" d="M 253.59475 307.584 
L 254.461073 307.584 
L 254.461073 275.986085 
L 253.59475 275.986085 
z
" style="fill:#1f77b4;"/>
   </g>
   <g id="patch_170">
    <path clip-path="url(#pc9fe97c1ce)" d="M 254.677654 307.584 
L 255.543977 307.584 
L 255.543977 282.828962 
L 254.677654 282.828962 
z
" style="fill:#1f77b4;"/>
   </g>
   <g id="patch_171">
    <path clip-path="url(#pc9fe97c1ce)" d="M 255.760558 307.584 
L 256.626881 307.584 
L 256.626881 284.178612 
L 255.760558 284.178612 
z
" style="fill:#1f77b4;"/>
   </g>
   <g id="patch_172">
    <path clip-path="url(#pc9fe97c1ce)" d="M 256.843462 307.584 
L 257.709785 307.584 
L 257.709785 277.385612 
L 256.843462 277.385612 
z
" style="fill:#1f77b4;"/>
   </g>
   <g id="patch_173">
    <path clip-path="url(#pc9fe97c1ce)" d="M 257.926365 307.584 
L 258.792688 307.584 
L 258.792688 272.371264 
L 257.926365 272.371264 
z
" style="fill:#1f77b4;"/>
   </g>
   <g id="patch_174">
    <path clip-path="url(#pc9fe97c1ce)" d="M 259.009269 307.584 
L 259.875592 307.584 
L 259.875592 203.096773 
L 259.009269 203.096773 
z
" style="fill:#1f77b4;"/>
   </g>
   <g id="patch_175">
    <path clip-path="url(#pc9fe97c1ce)" d="M 260.092173 307.584 
L 260.958496 307.584 
L 260.958496 260.521709 
L 260.092173 260.521709 
z
" style="fill:#1f77b4;"/>
   </g>
   <g id="patch_176">
    <path clip-path="url(#pc9fe97c1ce)" d="M 261.175077 307.584 
L 262.0414 307.584 
L 262.0414 263.277936 
L 261.175077 263.277936 
z
" style="fill:#1f77b4;"/>
   </g>
   <g id="patch_177">
    <path clip-path="url(#pc9fe97c1ce)" d="M 262.25798 307.584 
L 263.124303 307.584 
L 263.124303 292.828365 
L 262.25798 292.828365 
z
" style="fill:#1f77b4;"/>
   </g>
   <g id="patch_178">
    <path clip-path="url(#pc9fe97c1ce)" d="M 263.340884 307.584 
L 264.207207 307.584 
L 264.207207 281.671354 
L 263.340884 281.671354 
z
" style="fill:#1f77b4;"/>
   </g>
   <g id="patch_179">
    <path clip-path="url(#pc9fe97c1ce)" d="M 264.423788 307.584 
L 265.290111 307.584 
L 265.290111 285.69514 
L 264.423788 285.69514 
z
" style="fill:#1f77b4;"/>
   </g>
   <g id="patch_180">
    <path clip-path="url(#pc9fe97c1ce)" d="M 265.506692 307.584 
L 266.373015 307.584 
L 266.373015 272.94504 
L 265.506692 272.94504 
z
" style="fill:#1f77b4;"/>
   </g>
   <g id="patch_181">
    <path clip-path="url(#pc9fe97c1ce)" d="M 266.589595 307.584 
L 267.455918 307.584 
L 267.455918 294.89991 
L 266.589595 294.89991 
z
" style="fill:#1f77b4;"/>
   </g>
   <g id="patch_182">
    <path clip-path="url(#pc9fe97c1ce)" d="M 267.672499 307.584 
L 268.538822 307.584 
L 268.538822 291.850026 
L 267.672499 291.850026 
z
" style="fill:#1f77b4;"/>
   </g>
   <g id="patch_183">
    <path clip-path="url(#pc9fe97c1ce)" d="M 268.755403 307.584 
L 269.621726 307.584 
L 269.621726 199.465271 
L 268.755403 199.465271 
z
" style="fill:#1f77b4;"/>
   </g>
   <g id="patch_184">
    <path clip-path="url(#pc9fe97c1ce)" d="M 269.838307 307.584 
L 270.70463 307.584 
L 270.70463 276.550772 
L 269.838307 276.550772 
z
" style="fill:#1f77b4;"/>
   </g>
   <g id="patch_185">
    <path clip-path="url(#pc9fe97c1ce)" d="M 270.921211 307.584 
L 271.787534 307.584 
L 271.787534 247.746318 
L 270.921211 247.746318 
z
" style="fill:#1f77b4;"/>
   </g>
   <g id="patch_186">
    <path clip-path="url(#pc9fe97c1ce)" d="M 272.004114 307.584 
L 272.870437 307.584 
L 272.870437 287.145059 
L 272.004114 287.145059 
z
" style="fill:#1f77b4;"/>
   </g>
   <g id="patch_187">
    <path clip-path="url(#pc9fe97c1ce)" d="M 273.087018 307.584 
L 273.953341 307.584 
L 273.953341 300.922994 
L 273.087018 300.922994 
z
" style="fill:#1f77b4;"/>
   </g>
   <g id="patch_188">
    <path clip-path="url(#pc9fe97c1ce)" d="M 274.169922 307.584 
L 275.036245 307.584 
L 275.036245 275.169453 
L 274.169922 275.169453 
z
" style="fill:#1f77b4;"/>
   </g>
   <g id="patch_189">
    <path clip-path="url(#pc9fe97c1ce)" d="M 275.252826 307.584 
L 276.119149 307.584 
L 276.119149 213.088161 
L 275.252826 213.088161 
z
" style="fill:#1f77b4;"/>
   </g>
   <g id="patch_190">
    <path clip-path="url(#pc9fe97c1ce)" d="M 276.335729 307.584 
L 277.202052 307.584 
L 277.202052 283.625958 
L 276.335729 283.625958 
z
" style="fill:#1f77b4;"/>
   </g>
   <g id="patch_191">
    <path clip-path="url(#pc9fe97c1ce)" d="M 277.418633 307.584 
L 278.284956 307.584 
L 278.284956 239.535002 
L 277.418633 239.535002 
z
" style="fill:#1f77b4;"/>
   </g>
   <g id="patch_192">
    <path clip-path="url(#pc9fe97c1ce)" d="M 278.501537 307.584 
L 279.36786 307.584 
L 279.36786 293.638577 
L 278.501537 293.638577 
z
" style="fill:#1f77b4;"/>
   </g>
   <g id="patch_193">
    <path clip-path="url(#pc9fe97c1ce)" d="M 279.584441 307.584 
L 280.450764 307.584 
L 280.450764 270.263842 
L 279.584441 270.263842 
z
" style="fill:#1f77b4;"/>
   </g>
   <g id="patch_194">
    <path clip-path="url(#pc9fe97c1ce)" d="M 280.667344 307.584 
L 281.533667 307.584 
L 281.533667 301.408927 
L 280.667344 301.408927 
z
" style="fill:#1f77b4;"/>
   </g>
   <g id="patch_195">
    <path clip-path="url(#pc9fe97c1ce)" d="M 281.750248 307.584 
L 282.616571 307.584 
L 282.616571 275.86547 
L 281.750248 275.86547 
z
" style="fill:#1f77b4;"/>
   </g>
   <g id="patch_196">
    <path clip-path="url(#pc9fe97c1ce)" d="M 282.833152 307.584 
L 283.699475 307.584 
L 283.699475 246.981438 
L 282.833152 246.981438 
z
" style="fill:#1f77b4;"/>
   </g>
   <g id="patch_197">
    <path clip-path="url(#pc9fe97c1ce)" d="M 283.916056 307.584 
L 284.782379 307.584 
L 284.782379 262.501663 
L 283.916056 262.501663 
z
" style="fill:#1f77b4;"/>
   </g>
   <g id="patch_198">
    <path clip-path="url(#pc9fe97c1ce)" d="M 284.998959 307.584 
L 285.865282 307.584 
L 285.865282 230.798628 
L 284.998959 230.798628 
z
" style="fill:#1f77b4;"/>
   </g>
   <g id="patch_199">
    <path clip-path="url(#pc9fe97c1ce)" d="M 286.081863 307.584 
L 286.948186 307.584 
L 286.948186 266.315461 
L 286.081863 266.315461 
z
" style="fill:#1f77b4;"/>
   </g>
   <g id="patch_200">
    <path clip-path="url(#pc9fe97c1ce)" d="M 287.164767 307.584 
L 288.03109 307.584 
L 288.03109 230.462722 
L 287.164767 230.462722 
z
" style="fill:#1f77b4;"/>
   </g>
   <g id="patch_201">
    <path clip-path="url(#pc9fe97c1ce)" d="M 288.247671 307.584 
L 289.113994 307.584 
L 289.113994 306.463805 
L 288.247671 306.463805 
z
" style="fill:#1f77b4;"/>
   </g>
   <g id="patch_202">
    <path clip-path="url(#pc9fe97c1ce)" d="M 289.330574 307.584 
L 290.196897 307.584 
L 290.196897 253.093993 
L 289.330574 253.093993 
z
" style="fill:#1f77b4;"/>
   </g>
   <g id="patch_203">
    <path clip-path="url(#pc9fe97c1ce)" d="M 290.413478 307.584 
L 291.279801 307.584 
L 291.279801 266.232538 
L 290.413478 266.232538 
z
" style="fill:#1f77b4;"/>
   </g>
   <g id="patch_204">
    <path clip-path="url(#pc9fe97c1ce)" d="M 291.496382 307.584 
L 292.362705 307.584 
L 292.362705 265.773476 
L 291.496382 265.773476 
z
" style="fill:#1f77b4;"/>
   </g>
   <g id="patch_205">
    <path clip-path="url(#pc9fe97c1ce)" d="M 292.579286 307.584 
L 293.445609 307.584 
L 293.445609 270.608446 
L 292.579286 270.608446 
z
" style="fill:#1f77b4;"/>
   </g>
   <g id="patch_206">
    <path clip-path="url(#pc9fe97c1ce)" d="M 293.662189 307.584 
L 294.528512 307.584 
L 294.528512 272.163307 
L 293.662189 272.163307 
z
" style="fill:#1f77b4;"/>
   </g>
   <g id="patch_207">
    <path clip-path="url(#pc9fe97c1ce)" d="M 294.745093 307.584 
L 295.611416 307.584 
L 295.611416 270.680197 
L 294.745093 270.680197 
z
" style="fill:#1f77b4;"/>
   </g>
   <g id="patch_208">
    <path clip-path="url(#pc9fe97c1ce)" d="M 295.827997 307.584 
L 296.69432 307.584 
L 296.69432 231.85058 
L 295.827997 231.85058 
z
" style="fill:#1f77b4;"/>
   </g>
   <g id="patch_209">
    <path clip-path="url(#pc9fe97c1ce)" d="M 296.910901 307.584 
L 297.777224 307.584 
L 297.777224 281.558857 
L 296.910901 281.558857 
z
" style="fill:#1f77b4;"/>
   </g>
   <g id="patch_210">
    <path clip-path="url(#pc9fe97c1ce)" d="M 297.993804 307.584 
L 298.860127 307.584 
L 298.860127 279.965169 
L 297.993804 279.965169 
z
" style="fill:#1f77b4;"/>
   </g>
   <g id="patch_211">
    <path clip-path="url(#pc9fe97c1ce)" d="M 299.076708 307.584 
L 299.943031 307.584 
L 299.943031 278.560579 
L 299.076708 278.560579 
z
" style="fill:#1f77b4;"/>
   </g>
   <g id="patch_212">
    <path clip-path="url(#pc9fe97c1ce)" d="M 300.159612 307.584 
L 301.025935 307.584 
L 301.025935 247.357616 
L 300.159612 247.357616 
z
" style="fill:#1f77b4;"/>
   </g>
   <g id="patch_213">
    <path clip-path="url(#pc9fe97c1ce)" d="M 301.242516 307.584 
L 302.108839 307.584 
L 302.108839 273.711729 
L 301.242516 273.711729 
z
" style="fill:#1f77b4;"/>
   </g>
   <g id="patch_214">
    <path clip-path="url(#pc9fe97c1ce)" d="M 302.325419 307.584 
L 303.191742 307.584 
L 303.191742 277.894103 
L 302.325419 277.894103 
z
" style="fill:#1f77b4;"/>
   </g>
   <g id="patch_215">
    <path clip-path="url(#pc9fe97c1ce)" d="M 303.408323 307.584 
L 304.274646 307.584 
L 304.274646 291.659812 
L 303.408323 291.659812 
z
" style="fill:#1f77b4;"/>
   </g>
   <g id="patch_216">
    <path clip-path="url(#pc9fe97c1ce)" d="M 304.491227 307.584 
L 305.35755 307.584 
L 305.35755 278.253718 
L 304.491227 278.253718 
z
" style="fill:#1f77b4;"/>
   </g>
   <g id="patch_217">
    <path clip-path="url(#pc9fe97c1ce)" d="M 305.574131 307.584 
L 306.440454 307.584 
L 306.440454 276.102282 
L 305.574131 276.102282 
z
" style="fill:#1f77b4;"/>
   </g>
   <g id="patch_218">
    <path clip-path="url(#pc9fe97c1ce)" d="M 306.657034 307.584 
L 307.523357 307.584 
L 307.523357 289.375377 
L 306.657034 289.375377 
z
" style="fill:#1f77b4;"/>
   </g>
   <g id="patch_219">
    <path clip-path="url(#pc9fe97c1ce)" d="M 307.739938 307.584 
L 308.606261 307.584 
L 308.606261 293.303741 
L 307.739938 293.303741 
z
" style="fill:#1f77b4;"/>
   </g>
   <g id="patch_220">
    <path clip-path="url(#pc9fe97c1ce)" d="M 308.822842 307.584 
L 309.689165 307.584 
L 309.689165 274.718555 
L 308.822842 274.718555 
z
" style="fill:#1f77b4;"/>
   </g>
   <g id="patch_221">
    <path clip-path="url(#pc9fe97c1ce)" d="M 309.905746 307.584 
L 310.772069 307.584 
L 310.772069 276.148585 
L 309.905746 276.148585 
z
" style="fill:#1f77b4;"/>
   </g>
   <g id="patch_222">
    <path clip-path="url(#pc9fe97c1ce)" d="M 310.988649 307.584 
L 311.854972 307.584 
L 311.854972 250.590177 
L 310.988649 250.590177 
z
" style="fill:#1f77b4;"/>
   </g>
   <g id="patch_223">
    <path clip-path="url(#pc9fe97c1ce)" d="M 312.071553 307.584 
L 312.937876 307.584 
L 312.937876 269.184247 
L 312.071553 269.184247 
z
" style="fill:#1f77b4;"/>
   </g>
   <g id="patch_224">
    <path clip-path="url(#pc9fe97c1ce)" d="M 313.154457 307.584 
L 314.02078 307.584 
L 314.02078 279.015335 
L 313.154457 279.015335 
z
" style="fill:#1f77b4;"/>
   </g>
   <g id="patch_225">
    <path clip-path="url(#pc9fe97c1ce)" d="M 314.237361 307.584 
L 315.103684 307.584 
L 315.103684 287.266469 
L 314.237361 287.266469 
z
" style="fill:#1f77b4;"/>
   </g>
   <g id="patch_226">
    <path clip-path="url(#pc9fe97c1ce)" d="M 315.320264 307.584 
L 316.186587 307.584 
L 316.186587 264.464345 
L 315.320264 264.464345 
z
" style="fill:#1f77b4;"/>
   </g>
   <g id="patch_227">
    <path clip-path="url(#pc9fe97c1ce)" d="M 316.403168 307.584 
L 317.269491 307.584 
L 317.269491 295.341569 
L 316.403168 295.341569 
z
" style="fill:#1f77b4;"/>
   </g>
   <g id="patch_228">
    <path clip-path="url(#pc9fe97c1ce)" d="M 317.486072 307.584 
L 318.352395 307.584 
L 318.352395 282.921499 
L 317.486072 282.921499 
z
" style="fill:#1f77b4;"/>
   </g>
   <g id="patch_229">
    <path clip-path="url(#pc9fe97c1ce)" d="M 318.568976 307.584 
L 319.435299 307.584 
L 319.435299 286.406787 
L 318.568976 286.406787 
z
" style="fill:#1f77b4;"/>
   </g>
   <g id="patch_230">
    <path clip-path="url(#pc9fe97c1ce)" d="M 319.651879 307.584 
L 320.518202 307.584 
L 320.518202 287.022933 
L 319.651879 287.022933 
z
" style="fill:#1f77b4;"/>
   </g>
   <g id="patch_231">
    <path clip-path="url(#pc9fe97c1ce)" d="M 320.734783 307.584 
L 321.601106 307.584 
L 321.601106 252.189497 
L 320.734783 252.189497 
z
" style="fill:#1f77b4;"/>
   </g>
   <g id="patch_232">
    <path clip-path="url(#pc9fe97c1ce)" d="M 321.817687 307.584 
L 322.68401 307.584 
L 322.68401 301.694194 
L 321.817687 301.694194 
z
" style="fill:#1f77b4;"/>
   </g>
   <g id="patch_233">
    <path clip-path="url(#pc9fe97c1ce)" d="M 322.900591 307.584 
L 323.766914 307.584 
L 323.766914 293.848045 
L 322.900591 293.848045 
z
" style="fill:#1f77b4;"/>
   </g>
   <g id="patch_234">
    <path clip-path="url(#pc9fe97c1ce)" d="M 323.983494 307.584 
L 324.849817 307.584 
L 324.849817 263.126332 
L 323.983494 263.126332 
z
" style="fill:#1f77b4;"/>
   </g>
   <g id="patch_235">
    <path clip-path="url(#pc9fe97c1ce)" d="M 325.066398 307.584 
L 325.932721 307.584 
L 325.932721 263.202816 
L 325.066398 263.202816 
z
" style="fill:#1f77b4;"/>
   </g>
   <g id="patch_236">
    <path clip-path="url(#pc9fe97c1ce)" d="M 326.149302 307.584 
L 327.015625 307.584 
L 327.015625 303.011917 
L 326.149302 303.011917 
z
" style="fill:#1f77b4;"/>
   </g>
   <g id="patch_237">
    <path clip-path="url(#pc9fe97c1ce)" d="M 327.232206 307.584 
L 328.098529 307.584 
L 328.098529 280.410181 
L 327.232206 280.410181 
z
" style="fill:#1f77b4;"/>
   </g>
   <g id="patch_238">
    <path clip-path="url(#pc9fe97c1ce)" d="M 328.315109 307.584 
L 329.181432 307.584 
L 329.181432 222.787499 
L 328.315109 222.787499 
z
" style="fill:#1f77b4;"/>
   </g>
   <g id="patch_239">
    <path clip-path="url(#pc9fe97c1ce)" d="M 329.398013 307.584 
L 330.264336 307.584 
L 330.264336 251.867308 
L 329.398013 251.867308 
z
" style="fill:#1f77b4;"/>
   </g>
   <g id="patch_240">
    <path clip-path="url(#pc9fe97c1ce)" d="M 330.480917 307.584 
L 331.34724 307.584 
L 331.34724 283.957148 
L 330.480917 283.957148 
z
" style="fill:#1f77b4;"/>
   </g>
   <g id="patch_241">
    <path clip-path="url(#pc9fe97c1ce)" d="M 331.563821 307.584 
L 332.430144 307.584 
L 332.430144 304.811029 
L 331.563821 304.811029 
z
" style="fill:#1f77b4;"/>
   </g>
   <g id="patch_242">
    <path clip-path="url(#pc9fe97c1ce)" d="M 332.646724 307.584 
L 333.513047 307.584 
L 333.513047 278.774377 
L 332.646724 278.774377 
z
" style="fill:#1f77b4;"/>
   </g>
   <g id="patch_243">
    <path clip-path="url(#pc9fe97c1ce)" d="M 333.729628 307.584 
L 334.595951 307.584 
L 334.595951 232.890255 
L 333.729628 232.890255 
z
" style="fill:#1f77b4;"/>
   </g>
   <g id="patch_244">
    <path clip-path="url(#pc9fe97c1ce)" d="M 334.812532 307.584 
L 335.678855 307.584 
L 335.678855 236.469071 
L 334.812532 236.469071 
z
" style="fill:#1f77b4;"/>
   </g>
   <g id="patch_245">
    <path clip-path="url(#pc9fe97c1ce)" d="M 335.895436 307.584 
L 336.761759 307.584 
L 336.761759 259.450141 
L 335.895436 259.450141 
z
" style="fill:#1f77b4;"/>
   </g>
   <g id="patch_246">
    <path clip-path="url(#pc9fe97c1ce)" d="M 336.978339 307.584 
L 337.844663 307.584 
L 337.844663 288.846083 
L 336.978339 288.846083 
z
" style="fill:#1f77b4;"/>
   </g>
   <g id="patch_247">
    <path clip-path="url(#pc9fe97c1ce)" d="M 338.061243 307.584 
L 338.927566 307.584 
L 338.927566 268.086901 
L 338.061243 268.086901 
z
" style="fill:#1f77b4;"/>
   </g>
   <g id="patch_248">
    <path clip-path="url(#pc9fe97c1ce)" d="M 339.144147 307.584 
L 340.01047 307.584 
L 340.01047 265.169229 
L 339.144147 265.169229 
z
" style="fill:#1f77b4;"/>
   </g>
   <g id="patch_249">
    <path clip-path="url(#pc9fe97c1ce)" d="M 340.227051 307.584 
L 341.093374 307.584 
L 341.093374 283.150716 
L 340.227051 283.150716 
z
" style="fill:#1f77b4;"/>
   </g>
   <g id="patch_250">
    <path clip-path="url(#pc9fe97c1ce)" d="M 341.309955 307.584 
L 342.176278 307.584 
L 342.176278 275.647662 
L 341.309955 275.647662 
z
" style="fill:#1f77b4;"/>
   </g>
   <g id="patch_251">
    <path clip-path="url(#pc9fe97c1ce)" d="M 342.392858 307.584 
L 343.259181 307.584 
L 343.259181 222.715842 
L 342.392858 222.715842 
z
" style="fill:#1f77b4;"/>
   </g>
   <g id="patch_252">
    <path clip-path="url(#pc9fe97c1ce)" d="M 343.475762 307.584 
L 344.342085 307.584 
L 344.342085 233.054959 
L 343.475762 233.054959 
z
" style="fill:#1f77b4;"/>
   </g>
   <g id="patch_253">
    <path clip-path="url(#pc9fe97c1ce)" d="M 344.558666 307.584 
L 345.424989 307.584 
L 345.424989 293.065211 
L 344.558666 293.065211 
z
" style="fill:#1f77b4;"/>
   </g>
   <g id="patch_254">
    <path clip-path="url(#pc9fe97c1ce)" d="M 345.64157 307.584 
L 346.507893 307.584 
L 346.507893 291.659722 
L 345.64157 291.659722 
z
" style="fill:#1f77b4;"/>
   </g>
   <g id="patch_255">
    <path clip-path="url(#pc9fe97c1ce)" d="M 346.724473 307.584 
L 347.590796 307.584 
L 347.590796 250.451518 
L 346.724473 250.451518 
z
" style="fill:#1f77b4;"/>
   </g>
   <g id="patch_256">
    <path clip-path="url(#pc9fe97c1ce)" d="M 347.807377 307.584 
L 348.6737 307.584 
L 348.6737 275.112809 
L 347.807377 275.112809 
z
" style="fill:#1f77b4;"/>
   </g>
   <g id="patch_257">
    <path clip-path="url(#pc9fe97c1ce)" d="M 348.890281 307.584 
L 349.756604 307.584 
L 349.756604 239.886882 
L 348.890281 239.886882 
z
" style="fill:#1f77b4;"/>
   </g>
   <g id="patch_258">
    <path clip-path="url(#pc9fe97c1ce)" d="M 349.973185 307.584 
L 350.839508 307.584 
L 350.839508 264.283391 
L 349.973185 264.283391 
z
" style="fill:#1f77b4;"/>
   </g>
   <g id="patch_259">
    <path clip-path="url(#pc9fe97c1ce)" d="M 351.056088 307.584 
L 351.922411 307.584 
L 351.922411 184.935333 
L 351.056088 184.935333 
z
" style="fill:#1f77b4;"/>
   </g>
   <g id="patch_260">
    <path clip-path="url(#pc9fe97c1ce)" d="M 352.138992 307.584 
L 353.005315 307.584 
L 353.005315 304.961649 
L 352.138992 304.961649 
z
" style="fill:#1f77b4;"/>
   </g>
   <g id="patch_261">
    <path clip-path="url(#pc9fe97c1ce)" d="M 353.221896 307.584 
L 354.088219 307.584 
L 354.088219 288.883218 
L 353.221896 288.883218 
z
" style="fill:#1f77b4;"/>
   </g>
   <g id="patch_262">
    <path clip-path="url(#pc9fe97c1ce)" d="M 354.3048 307.584 
L 355.171123 307.584 
L 355.171123 264.525801 
L 354.3048 264.525801 
z
" style="fill:#1f77b4;"/>
   </g>
   <g id="patch_263">
    <path clip-path="url(#pc9fe97c1ce)" d="M 355.387703 307.584 
L 356.254026 307.584 
L 356.254026 293.489137 
L 355.387703 293.489137 
z
" style="fill:#1f77b4;"/>
   </g>
   <g id="patch_264">
    <path clip-path="url(#pc9fe97c1ce)" d="M 356.470607 307.584 
L 357.33693 307.584 
L 357.33693 255.150464 
L 356.470607 255.150464 
z
" style="fill:#1f77b4;"/>
   </g>
   <g id="patch_265">
    <path clip-path="url(#pc9fe97c1ce)" d="M 357.553511 307.584 
L 358.419834 307.584 
L 358.419834 299.08297 
L 357.553511 299.08297 
z
" style="fill:#1f77b4;"/>
   </g>
   <g id="patch_266">
    <path clip-path="url(#pc9fe97c1ce)" d="M 358.636415 307.584 
L 359.502738 307.584 
L 359.502738 293.005029 
L 358.636415 293.005029 
z
" style="fill:#1f77b4;"/>
   </g>
   <g id="patch_267">
    <path clip-path="url(#pc9fe97c1ce)" d="M 359.719318 307.584 
L 360.585641 307.584 
L 360.585641 277.087815 
L 359.719318 277.087815 
z
" style="fill:#1f77b4;"/>
   </g>
   <g id="patch_268">
    <path clip-path="url(#pc9fe97c1ce)" d="M 360.802222 307.584 
L 361.668545 307.584 
L 361.668545 293.029673 
L 360.802222 293.029673 
z
" style="fill:#1f77b4;"/>
   </g>
   <g id="patch_269">
    <path clip-path="url(#pc9fe97c1ce)" d="M 361.885126 307.584 
L 362.751449 307.584 
L 362.751449 252.759106 
L 361.885126 252.759106 
z
" style="fill:#1f77b4;"/>
   </g>
   <g id="patch_270">
    <path clip-path="url(#pc9fe97c1ce)" d="M 362.96803 307.584 
L 363.834353 307.584 
L 363.834353 227.810613 
L 362.96803 227.810613 
z
" style="fill:#1f77b4;"/>
   </g>
   <g id="patch_271">
    <path clip-path="url(#pc9fe97c1ce)" d="M 364.050933 307.584 
L 364.917256 307.584 
L 364.917256 283.21271 
L 364.050933 283.21271 
z
" style="fill:#1f77b4;"/>
   </g>
   <g id="patch_272">
    <path clip-path="url(#pc9fe97c1ce)" d="M 365.133837 307.584 
L 366.00016 307.584 
L 366.00016 272.111862 
L 365.133837 272.111862 
z
" style="fill:#1f77b4;"/>
   </g>
   <g id="patch_273">
    <path clip-path="url(#pc9fe97c1ce)" d="M 366.216741 307.584 
L 367.083064 307.584 
L 367.083064 282.951617 
L 366.216741 282.951617 
z
" style="fill:#1f77b4;"/>
   </g>
   <g id="patch_274">
    <path clip-path="url(#pc9fe97c1ce)" d="M 367.299645 307.584 
L 368.165968 307.584 
L 368.165968 268.954546 
L 367.299645 268.954546 
z
" style="fill:#1f77b4;"/>
   </g>
   <g id="patch_275">
    <path clip-path="url(#pc9fe97c1ce)" d="M 368.382548 307.584 
L 369.248871 307.584 
L 369.248871 287.46705 
L 368.382548 287.46705 
z
" style="fill:#1f77b4;"/>
   </g>
   <g id="patch_276">
    <path clip-path="url(#pc9fe97c1ce)" d="M 369.465452 307.584 
L 370.331775 307.584 
L 370.331775 298.551896 
L 369.465452 298.551896 
z
" style="fill:#1f77b4;"/>
   </g>
   <g id="patch_277">
    <path clip-path="url(#pc9fe97c1ce)" d="M 370.548356 307.584 
L 371.414679 307.584 
L 371.414679 263.844291 
L 370.548356 263.844291 
z
" style="fill:#1f77b4;"/>
   </g>
   <g id="patch_278">
    <path clip-path="url(#pc9fe97c1ce)" d="M 371.63126 307.584 
L 372.497583 307.584 
L 372.497583 278.605356 
L 371.63126 278.605356 
z
" style="fill:#1f77b4;"/>
   </g>
   <g id="patch_279">
    <path clip-path="url(#pc9fe97c1ce)" d="M 372.714163 307.584 
L 373.580486 307.584 
L 373.580486 276.159473 
L 372.714163 276.159473 
z
" style="fill:#1f77b4;"/>
   </g>
   <g id="patch_280">
    <path clip-path="url(#pc9fe97c1ce)" d="M 373.797067 307.584 
L 374.66339 307.584 
L 374.66339 270.460098 
L 373.797067 270.460098 
z
" style="fill:#1f77b4;"/>
   </g>
   <g id="patch_281">
    <path clip-path="url(#pc9fe97c1ce)" d="M 374.879971 307.584 
L 375.746294 307.584 
L 375.746294 262.65084 
L 374.879971 262.65084 
z
" style="fill:#1f77b4;"/>
   </g>
   <g id="patch_282">
    <path clip-path="url(#pc9fe97c1ce)" d="M 375.962875 307.584 
L 376.829198 307.584 
L 376.829198 280.066391 
L 375.962875 280.066391 
z
" style="fill:#1f77b4;"/>
   </g>
   <g id="patch_283">
    <path clip-path="url(#pc9fe97c1ce)" d="M 377.045778 307.584 
L 377.912101 307.584 
L 377.912101 287.158407 
L 377.045778 287.158407 
z
" style="fill:#1f77b4;"/>
   </g>
   <g id="patch_284">
    <path clip-path="url(#pc9fe97c1ce)" d="M 378.128682 307.584 
L 378.995005 307.584 
L 378.995005 291.929956 
L 378.128682 291.929956 
z
" style="fill:#1f77b4;"/>
   </g>
   <g id="patch_285">
    <path clip-path="url(#pc9fe97c1ce)" d="M 379.211586 307.584 
L 380.077909 307.584 
L 380.077909 299.363444 
L 379.211586 299.363444 
z
" style="fill:#1f77b4;"/>
   </g>
   <g id="patch_286">
    <path clip-path="url(#pc9fe97c1ce)" d="M 380.29449 307.584 
L 381.160813 307.584 
L 381.160813 284.627377 
L 380.29449 284.627377 
z
" style="fill:#1f77b4;"/>
   </g>
   <g id="patch_287">
    <path clip-path="url(#pc9fe97c1ce)" d="M 381.377393 307.584 
L 382.243716 307.584 
L 382.243716 294.791411 
L 381.377393 294.791411 
z
" style="fill:#1f77b4;"/>
   </g>
   <g id="patch_288">
    <path clip-path="url(#pc9fe97c1ce)" d="M 382.460297 307.584 
L 383.32662 307.584 
L 383.32662 289.011985 
L 382.460297 289.011985 
z
" style="fill:#1f77b4;"/>
   </g>
   <g id="patch_289">
    <path clip-path="url(#pc9fe97c1ce)" d="M 383.543201 307.584 
L 384.409524 307.584 
L 384.409524 251.057019 
L 383.543201 251.057019 
z
" style="fill:#1f77b4;"/>
   </g>
   <g id="patch_290">
    <path clip-path="url(#pc9fe97c1ce)" d="M 384.626105 307.584 
L 385.492428 307.584 
L 385.492428 287.327747 
L 384.626105 287.327747 
z
" style="fill:#1f77b4;"/>
   </g>
   <g id="patch_291">
    <path clip-path="url(#pc9fe97c1ce)" d="M 385.709008 307.584 
L 386.575331 307.584 
L 386.575331 243.309032 
L 385.709008 243.309032 
z
" style="fill:#1f77b4;"/>
   </g>
   <g id="patch_292">
    <path clip-path="url(#pc9fe97c1ce)" d="M 386.791912 307.584 
L 387.658235 307.584 
L 387.658235 299.14163 
L 386.791912 299.14163 
z
" style="fill:#1f77b4;"/>
   </g>
   <g id="patch_293">
    <path clip-path="url(#pc9fe97c1ce)" d="M 387.874816 307.584 
L 388.741139 307.584 
L 388.741139 296.628473 
L 387.874816 296.628473 
z
" style="fill:#1f77b4;"/>
   </g>
   <g id="patch_294">
    <path clip-path="url(#pc9fe97c1ce)" d="M 388.95772 307.584 
L 389.824043 307.584 
L 389.824043 266.001581 
L 388.95772 266.001581 
z
" style="fill:#1f77b4;"/>
   </g>
   <g id="patch_295">
    <path clip-path="url(#pc9fe97c1ce)" d="M 390.040623 307.584 
L 390.906946 307.584 
L 390.906946 285.946794 
L 390.040623 285.946794 
z
" style="fill:#1f77b4;"/>
   </g>
   <g id="patch_296">
    <path clip-path="url(#pc9fe97c1ce)" d="M 391.123527 307.584 
L 391.98985 307.584 
L 391.98985 284.785186 
L 391.123527 284.785186 
z
" style="fill:#1f77b4;"/>
   </g>
   <g id="patch_297">
    <path clip-path="url(#pc9fe97c1ce)" d="M 392.206431 307.584 
L 393.072754 307.584 
L 393.072754 283.717177 
L 392.206431 283.717177 
z
" style="fill:#1f77b4;"/>
   </g>
   <g id="patch_298">
    <path clip-path="url(#pc9fe97c1ce)" d="M 393.289335 307.584 
L 394.155658 307.584 
L 394.155658 102.294952 
L 393.289335 102.294952 
z
" style="fill:#1f77b4;"/>
   </g>
   <g id="patch_299">
    <path clip-path="url(#pc9fe97c1ce)" d="M 394.372238 307.584 
L 395.238561 307.584 
L 395.238561 291.772438 
L 394.372238 291.772438 
z
" style="fill:#1f77b4;"/>
   </g>
   <g id="patch_300">
    <path clip-path="url(#pc9fe97c1ce)" d="M 395.455142 307.584 
L 396.321465 307.584 
L 396.321465 300.041226 
L 395.455142 300.041226 
z
" style="fill:#1f77b4;"/>
   </g>
   <g id="patch_301">
    <path clip-path="url(#pc9fe97c1ce)" d="M 396.538046 307.584 
L 397.404369 307.584 
L 397.404369 278.241616 
L 396.538046 278.241616 
z
" style="fill:#1f77b4;"/>
   </g>
   <g id="patch_302">
    <path clip-path="url(#pc9fe97c1ce)" d="M 397.62095 307.584 
L 398.487273 307.584 
L 398.487273 286.55451 
L 397.62095 286.55451 
z
" style="fill:#1f77b4;"/>
   </g>
   <g id="matplotlib.axis_1">
    <g id="xtick_1">
     <g id="line2d_1">
      <defs>
       <path d="M 0 0 
L 0 3.5 
" id="m7a443efd0d" style="stroke:#000000;stroke-width:0.8;"/>
      </defs>
      <g>
       <use style="stroke:#000000;stroke-width:0.8;" x="74.265889" xlink:href="#m7a443efd0d" y="307.584"/>
      </g>
     </g>
     <g id="text_1">
      <!-- 0 -->
      <defs>
       <path d="M 31.78125 66.40625 
Q 24.171875 66.40625 20.328125 58.90625 
Q 16.5 51.421875 16.5 36.375 
Q 16.5 21.390625 20.328125 13.890625 
Q 24.171875 6.390625 31.78125 6.390625 
Q 39.453125 6.390625 43.28125 13.890625 
Q 47.125 21.390625 47.125 36.375 
Q 47.125 51.421875 43.28125 58.90625 
Q 39.453125 66.40625 31.78125 66.40625 
z
M 31.78125 74.21875 
Q 44.046875 74.21875 50.515625 64.515625 
Q 56.984375 54.828125 56.984375 36.375 
Q 56.984375 17.96875 50.515625 8.265625 
Q 44.046875 -1.421875 31.78125 -1.421875 
Q 19.53125 -1.421875 13.0625 8.265625 
Q 6.59375 17.96875 6.59375 36.375 
Q 6.59375 54.828125 13.0625 64.515625 
Q 19.53125 74.21875 31.78125 74.21875 
z
" id="DejaVuSans-48"/>
      </defs>
      <g transform="translate(71.084639 322.182437)scale(0.1 -0.1)">
       <use xlink:href="#DejaVuSans-48"/>
      </g>
     </g>
    </g>
    <g id="xtick_2">
     <g id="line2d_2">
      <g>
       <use style="stroke:#000000;stroke-width:0.8;" x="128.411076" xlink:href="#m7a443efd0d" y="307.584"/>
      </g>
     </g>
     <g id="text_2">
      <!-- 50 -->
      <defs>
       <path d="M 10.796875 72.90625 
L 49.515625 72.90625 
L 49.515625 64.59375 
L 19.828125 64.59375 
L 19.828125 46.734375 
Q 21.96875 47.46875 24.109375 47.828125 
Q 26.265625 48.1875 28.421875 48.1875 
Q 40.625 48.1875 47.75 41.5 
Q 54.890625 34.8125 54.890625 23.390625 
Q 54.890625 11.625 47.5625 5.09375 
Q 40.234375 -1.421875 26.90625 -1.421875 
Q 22.3125 -1.421875 17.546875 -0.640625 
Q 12.796875 0.140625 7.71875 1.703125 
L 7.71875 11.625 
Q 12.109375 9.234375 16.796875 8.0625 
Q 21.484375 6.890625 26.703125 6.890625 
Q 35.15625 6.890625 40.078125 11.328125 
Q 45.015625 15.765625 45.015625 23.390625 
Q 45.015625 31 40.078125 35.4375 
Q 35.15625 39.890625 26.703125 39.890625 
Q 22.75 39.890625 18.8125 39.015625 
Q 14.890625 38.140625 10.796875 36.28125 
z
" id="DejaVuSans-53"/>
      </defs>
      <g transform="translate(122.048576 322.182437)scale(0.1 -0.1)">
       <use xlink:href="#DejaVuSans-53"/>
       <use x="63.623047" xlink:href="#DejaVuSans-48"/>
      </g>
     </g>
    </g>
    <g id="xtick_3">
     <g id="line2d_3">
      <g>
       <use style="stroke:#000000;stroke-width:0.8;" x="182.556264" xlink:href="#m7a443efd0d" y="307.584"/>
      </g>
     </g>
     <g id="text_3">
      <!-- 100 -->
      <defs>
       <path d="M 12.40625 8.296875 
L 28.515625 8.296875 
L 28.515625 63.921875 
L 10.984375 60.40625 
L 10.984375 69.390625 
L 28.421875 72.90625 
L 38.28125 72.90625 
L 38.28125 8.296875 
L 54.390625 8.296875 
L 54.390625 0 
L 12.40625 0 
z
" id="DejaVuSans-49"/>
      </defs>
      <g transform="translate(173.012514 322.182437)scale(0.1 -0.1)">
       <use xlink:href="#DejaVuSans-49"/>
       <use x="63.623047" xlink:href="#DejaVuSans-48"/>
       <use x="127.246094" xlink:href="#DejaVuSans-48"/>
      </g>
     </g>
    </g>
    <g id="xtick_4">
     <g id="line2d_4">
      <g>
       <use style="stroke:#000000;stroke-width:0.8;" x="236.701452" xlink:href="#m7a443efd0d" y="307.584"/>
      </g>
     </g>
     <g id="text_4">
      <!-- 150 -->
      <g transform="translate(227.157702 322.182437)scale(0.1 -0.1)">
       <use xlink:href="#DejaVuSans-49"/>
       <use x="63.623047" xlink:href="#DejaVuSans-53"/>
       <use x="127.246094" xlink:href="#DejaVuSans-48"/>
      </g>
     </g>
    </g>
    <g id="xtick_5">
     <g id="line2d_5">
      <g>
       <use style="stroke:#000000;stroke-width:0.8;" x="290.84664" xlink:href="#m7a443efd0d" y="307.584"/>
      </g>
     </g>
     <g id="text_5">
      <!-- 200 -->
      <defs>
       <path d="M 19.1875 8.296875 
L 53.609375 8.296875 
L 53.609375 0 
L 7.328125 0 
L 7.328125 8.296875 
Q 12.9375 14.109375 22.625 23.890625 
Q 32.328125 33.6875 34.8125 36.53125 
Q 39.546875 41.84375 41.421875 45.53125 
Q 43.3125 49.21875 43.3125 52.78125 
Q 43.3125 58.59375 39.234375 62.25 
Q 35.15625 65.921875 28.609375 65.921875 
Q 23.96875 65.921875 18.8125 64.3125 
Q 13.671875 62.703125 7.8125 59.421875 
L 7.8125 69.390625 
Q 13.765625 71.78125 18.9375 73 
Q 24.125 74.21875 28.421875 74.21875 
Q 39.75 74.21875 46.484375 68.546875 
Q 53.21875 62.890625 53.21875 53.421875 
Q 53.21875 48.921875 51.53125 44.890625 
Q 49.859375 40.875 45.40625 35.40625 
Q 44.1875 33.984375 37.640625 27.21875 
Q 31.109375 20.453125 19.1875 8.296875 
z
" id="DejaVuSans-50"/>
      </defs>
      <g transform="translate(281.30289 322.182437)scale(0.1 -0.1)">
       <use xlink:href="#DejaVuSans-50"/>
       <use x="63.623047" xlink:href="#DejaVuSans-48"/>
       <use x="127.246094" xlink:href="#DejaVuSans-48"/>
      </g>
     </g>
    </g>
    <g id="xtick_6">
     <g id="line2d_6">
      <g>
       <use style="stroke:#000000;stroke-width:0.8;" x="344.991827" xlink:href="#m7a443efd0d" y="307.584"/>
      </g>
     </g>
     <g id="text_6">
      <!-- 250 -->
      <g transform="translate(335.448077 322.182437)scale(0.1 -0.1)">
       <use xlink:href="#DejaVuSans-50"/>
       <use x="63.623047" xlink:href="#DejaVuSans-53"/>
       <use x="127.246094" xlink:href="#DejaVuSans-48"/>
      </g>
     </g>
    </g>
    <g id="xtick_7">
     <g id="line2d_7">
      <g>
       <use style="stroke:#000000;stroke-width:0.8;" x="399.137015" xlink:href="#m7a443efd0d" y="307.584"/>
      </g>
     </g>
     <g id="text_7">
      <!-- 300 -->
      <defs>
       <path d="M 40.578125 39.3125 
Q 47.65625 37.796875 51.625 33 
Q 55.609375 28.21875 55.609375 21.1875 
Q 55.609375 10.40625 48.1875 4.484375 
Q 40.765625 -1.421875 27.09375 -1.421875 
Q 22.515625 -1.421875 17.65625 -0.515625 
Q 12.796875 0.390625 7.625 2.203125 
L 7.625 11.71875 
Q 11.71875 9.328125 16.59375 8.109375 
Q 21.484375 6.890625 26.8125 6.890625 
Q 36.078125 6.890625 40.9375 10.546875 
Q 45.796875 14.203125 45.796875 21.1875 
Q 45.796875 27.640625 41.28125 31.265625 
Q 36.765625 34.90625 28.71875 34.90625 
L 20.21875 34.90625 
L 20.21875 43.015625 
L 29.109375 43.015625 
Q 36.375 43.015625 40.234375 45.921875 
Q 44.09375 48.828125 44.09375 54.296875 
Q 44.09375 59.90625 40.109375 62.90625 
Q 36.140625 65.921875 28.71875 65.921875 
Q 24.65625 65.921875 20.015625 65.03125 
Q 15.375 64.15625 9.8125 62.3125 
L 9.8125 71.09375 
Q 15.4375 72.65625 20.34375 73.4375 
Q 25.25 74.21875 29.59375 74.21875 
Q 40.828125 74.21875 47.359375 69.109375 
Q 53.90625 64.015625 53.90625 55.328125 
Q 53.90625 49.265625 50.4375 45.09375 
Q 46.96875 40.921875 40.578125 39.3125 
z
" id="DejaVuSans-51"/>
      </defs>
      <g transform="translate(389.593265 322.182437)scale(0.1 -0.1)">
       <use xlink:href="#DejaVuSans-51"/>
       <use x="63.623047" xlink:href="#DejaVuSans-48"/>
       <use x="127.246094" xlink:href="#DejaVuSans-48"/>
      </g>
     </g>
    </g>
    <g id="text_8">
     <!-- Filter -->
     <defs>
      <path d="M 9.8125 72.90625 
L 51.703125 72.90625 
L 51.703125 64.59375 
L 19.671875 64.59375 
L 19.671875 43.109375 
L 48.578125 43.109375 
L 48.578125 34.8125 
L 19.671875 34.8125 
L 19.671875 0 
L 9.8125 0 
z
" id="DejaVuSans-70"/>
      <path d="M 9.421875 54.6875 
L 18.40625 54.6875 
L 18.40625 0 
L 9.421875 0 
z
M 9.421875 75.984375 
L 18.40625 75.984375 
L 18.40625 64.59375 
L 9.421875 64.59375 
z
" id="DejaVuSans-105"/>
      <path d="M 9.421875 75.984375 
L 18.40625 75.984375 
L 18.40625 0 
L 9.421875 0 
z
" id="DejaVuSans-108"/>
      <path d="M 18.3125 70.21875 
L 18.3125 54.6875 
L 36.8125 54.6875 
L 36.8125 47.703125 
L 18.3125 47.703125 
L 18.3125 18.015625 
Q 18.3125 11.328125 20.140625 9.421875 
Q 21.96875 7.515625 27.59375 7.515625 
L 36.8125 7.515625 
L 36.8125 0 
L 27.59375 0 
Q 17.1875 0 13.234375 3.875 
Q 9.28125 7.765625 9.28125 18.015625 
L 9.28125 47.703125 
L 2.6875 47.703125 
L 2.6875 54.6875 
L 9.28125 54.6875 
L 9.28125 70.21875 
z
" id="DejaVuSans-116"/>
      <path d="M 56.203125 29.59375 
L 56.203125 25.203125 
L 14.890625 25.203125 
Q 15.484375 15.921875 20.484375 11.0625 
Q 25.484375 6.203125 34.421875 6.203125 
Q 39.59375 6.203125 44.453125 7.46875 
Q 49.3125 8.734375 54.109375 11.28125 
L 54.109375 2.78125 
Q 49.265625 0.734375 44.1875 -0.34375 
Q 39.109375 -1.421875 33.890625 -1.421875 
Q 20.796875 -1.421875 13.15625 6.1875 
Q 5.515625 13.8125 5.515625 26.8125 
Q 5.515625 40.234375 12.765625 48.109375 
Q 20.015625 56 32.328125 56 
Q 43.359375 56 49.78125 48.890625 
Q 56.203125 41.796875 56.203125 29.59375 
z
M 47.21875 32.234375 
Q 47.125 39.59375 43.09375 43.984375 
Q 39.0625 48.390625 32.421875 48.390625 
Q 24.90625 48.390625 20.390625 44.140625 
Q 15.875 39.890625 15.1875 32.171875 
z
" id="DejaVuSans-101"/>
      <path d="M 41.109375 46.296875 
Q 39.59375 47.171875 37.8125 47.578125 
Q 36.03125 48 33.890625 48 
Q 26.265625 48 22.1875 43.046875 
Q 18.109375 38.09375 18.109375 28.8125 
L 18.109375 0 
L 9.078125 0 
L 9.078125 54.6875 
L 18.109375 54.6875 
L 18.109375 46.1875 
Q 20.953125 51.171875 25.484375 53.578125 
Q 30.03125 56 36.53125 56 
Q 37.453125 56 38.578125 55.875 
Q 39.703125 55.765625 41.0625 55.515625 
z
" id="DejaVuSans-114"/>
     </defs>
     <g transform="translate(223.776406 335.860562)scale(0.1 -0.1)">
      <use xlink:href="#DejaVuSans-70"/>
      <use x="50.269531" xlink:href="#DejaVuSans-105"/>
      <use x="78.052734" xlink:href="#DejaVuSans-108"/>
      <use x="105.835938" xlink:href="#DejaVuSans-116"/>
      <use x="145.044922" xlink:href="#DejaVuSans-101"/>
      <use x="206.568359" xlink:href="#DejaVuSans-114"/>
     </g>
    </g>
   </g>
   <g id="matplotlib.axis_2">
    <g id="ytick_1">
     <g id="line2d_8">
      <defs>
       <path d="M 0 0 
L -3.5 0 
" id="m09bfcc4570" style="stroke:#000000;stroke-width:0.8;"/>
      </defs>
      <g>
       <use style="stroke:#000000;stroke-width:0.8;" x="57.6" xlink:href="#m09bfcc4570" y="307.584"/>
      </g>
     </g>
     <g id="text_9">
      <!-- 0 -->
      <g transform="translate(44.2375 311.383219)scale(0.1 -0.1)">
       <use xlink:href="#DejaVuSans-48"/>
      </g>
     </g>
    </g>
    <g id="ytick_2">
     <g id="line2d_9">
      <g>
       <use style="stroke:#000000;stroke-width:0.8;" x="57.6" xlink:href="#m09bfcc4570" y="277.96171"/>
      </g>
     </g>
     <g id="text_10">
      <!-- 1 -->
      <g transform="translate(44.2375 281.760929)scale(0.1 -0.1)">
       <use xlink:href="#DejaVuSans-49"/>
      </g>
     </g>
    </g>
    <g id="ytick_3">
     <g id="line2d_10">
      <g>
       <use style="stroke:#000000;stroke-width:0.8;" x="57.6" xlink:href="#m09bfcc4570" y="248.33942"/>
      </g>
     </g>
     <g id="text_11">
      <!-- 2 -->
      <g transform="translate(44.2375 252.138639)scale(0.1 -0.1)">
       <use xlink:href="#DejaVuSans-50"/>
      </g>
     </g>
    </g>
    <g id="ytick_4">
     <g id="line2d_11">
      <g>
       <use style="stroke:#000000;stroke-width:0.8;" x="57.6" xlink:href="#m09bfcc4570" y="218.71713"/>
      </g>
     </g>
     <g id="text_12">
      <!-- 3 -->
      <g transform="translate(44.2375 222.516349)scale(0.1 -0.1)">
       <use xlink:href="#DejaVuSans-51"/>
      </g>
     </g>
    </g>
    <g id="ytick_5">
     <g id="line2d_12">
      <g>
       <use style="stroke:#000000;stroke-width:0.8;" x="57.6" xlink:href="#m09bfcc4570" y="189.09484"/>
      </g>
     </g>
     <g id="text_13">
      <!-- 4 -->
      <defs>
       <path d="M 37.796875 64.3125 
L 12.890625 25.390625 
L 37.796875 25.390625 
z
M 35.203125 72.90625 
L 47.609375 72.90625 
L 47.609375 25.390625 
L 58.015625 25.390625 
L 58.015625 17.1875 
L 47.609375 17.1875 
L 47.609375 0 
L 37.796875 0 
L 37.796875 17.1875 
L 4.890625 17.1875 
L 4.890625 26.703125 
z
" id="DejaVuSans-52"/>
      </defs>
      <g transform="translate(44.2375 192.894059)scale(0.1 -0.1)">
       <use xlink:href="#DejaVuSans-52"/>
      </g>
     </g>
    </g>
    <g id="ytick_6">
     <g id="line2d_13">
      <g>
       <use style="stroke:#000000;stroke-width:0.8;" x="57.6" xlink:href="#m09bfcc4570" y="159.47255"/>
      </g>
     </g>
     <g id="text_14">
      <!-- 5 -->
      <g transform="translate(44.2375 163.271769)scale(0.1 -0.1)">
       <use xlink:href="#DejaVuSans-53"/>
      </g>
     </g>
    </g>
    <g id="ytick_7">
     <g id="line2d_14">
      <g>
       <use style="stroke:#000000;stroke-width:0.8;" x="57.6" xlink:href="#m09bfcc4570" y="129.85026"/>
      </g>
     </g>
     <g id="text_15">
      <!-- 6 -->
      <defs>
       <path d="M 33.015625 40.375 
Q 26.375 40.375 22.484375 35.828125 
Q 18.609375 31.296875 18.609375 23.390625 
Q 18.609375 15.53125 22.484375 10.953125 
Q 26.375 6.390625 33.015625 6.390625 
Q 39.65625 6.390625 43.53125 10.953125 
Q 47.40625 15.53125 47.40625 23.390625 
Q 47.40625 31.296875 43.53125 35.828125 
Q 39.65625 40.375 33.015625 40.375 
z
M 52.59375 71.296875 
L 52.59375 62.3125 
Q 48.875 64.0625 45.09375 64.984375 
Q 41.3125 65.921875 37.59375 65.921875 
Q 27.828125 65.921875 22.671875 59.328125 
Q 17.53125 52.734375 16.796875 39.40625 
Q 19.671875 43.65625 24.015625 45.921875 
Q 28.375 48.1875 33.59375 48.1875 
Q 44.578125 48.1875 50.953125 41.515625 
Q 57.328125 34.859375 57.328125 23.390625 
Q 57.328125 12.15625 50.6875 5.359375 
Q 44.046875 -1.421875 33.015625 -1.421875 
Q 20.359375 -1.421875 13.671875 8.265625 
Q 6.984375 17.96875 6.984375 36.375 
Q 6.984375 53.65625 15.1875 63.9375 
Q 23.390625 74.21875 37.203125 74.21875 
Q 40.921875 74.21875 44.703125 73.484375 
Q 48.484375 72.75 52.59375 71.296875 
z
" id="DejaVuSans-54"/>
      </defs>
      <g transform="translate(44.2375 133.649479)scale(0.1 -0.1)">
       <use xlink:href="#DejaVuSans-54"/>
      </g>
     </g>
    </g>
    <g id="ytick_8">
     <g id="line2d_15">
      <g>
       <use style="stroke:#000000;stroke-width:0.8;" x="57.6" xlink:href="#m09bfcc4570" y="100.22797"/>
      </g>
     </g>
     <g id="text_16">
      <!-- 7 -->
      <defs>
       <path d="M 8.203125 72.90625 
L 55.078125 72.90625 
L 55.078125 68.703125 
L 28.609375 0 
L 18.3125 0 
L 43.21875 64.59375 
L 8.203125 64.59375 
z
" id="DejaVuSans-55"/>
      </defs>
      <g transform="translate(44.2375 104.027189)scale(0.1 -0.1)">
       <use xlink:href="#DejaVuSans-55"/>
      </g>
     </g>
    </g>
    <g id="ytick_9">
     <g id="line2d_16">
      <g>
       <use style="stroke:#000000;stroke-width:0.8;" x="57.6" xlink:href="#m09bfcc4570" y="70.60568"/>
      </g>
     </g>
     <g id="text_17">
      <!-- 8 -->
      <defs>
       <path d="M 31.78125 34.625 
Q 24.75 34.625 20.71875 30.859375 
Q 16.703125 27.09375 16.703125 20.515625 
Q 16.703125 13.921875 20.71875 10.15625 
Q 24.75 6.390625 31.78125 6.390625 
Q 38.8125 6.390625 42.859375 10.171875 
Q 46.921875 13.96875 46.921875 20.515625 
Q 46.921875 27.09375 42.890625 30.859375 
Q 38.875 34.625 31.78125 34.625 
z
M 21.921875 38.8125 
Q 15.578125 40.375 12.03125 44.71875 
Q 8.5 49.078125 8.5 55.328125 
Q 8.5 64.0625 14.71875 69.140625 
Q 20.953125 74.21875 31.78125 74.21875 
Q 42.671875 74.21875 48.875 69.140625 
Q 55.078125 64.0625 55.078125 55.328125 
Q 55.078125 49.078125 51.53125 44.71875 
Q 48 40.375 41.703125 38.8125 
Q 48.828125 37.15625 52.796875 32.3125 
Q 56.78125 27.484375 56.78125 20.515625 
Q 56.78125 9.90625 50.3125 4.234375 
Q 43.84375 -1.421875 31.78125 -1.421875 
Q 19.734375 -1.421875 13.25 4.234375 
Q 6.78125 9.90625 6.78125 20.515625 
Q 6.78125 27.484375 10.78125 32.3125 
Q 14.796875 37.15625 21.921875 38.8125 
z
M 18.3125 54.390625 
Q 18.3125 48.734375 21.84375 45.5625 
Q 25.390625 42.390625 31.78125 42.390625 
Q 38.140625 42.390625 41.71875 45.5625 
Q 45.3125 48.734375 45.3125 54.390625 
Q 45.3125 60.0625 41.71875 63.234375 
Q 38.140625 66.40625 31.78125 66.40625 
Q 25.390625 66.40625 21.84375 63.234375 
Q 18.3125 60.0625 18.3125 54.390625 
z
" id="DejaVuSans-56"/>
      </defs>
      <g transform="translate(44.2375 74.404899)scale(0.1 -0.1)">
       <use xlink:href="#DejaVuSans-56"/>
      </g>
     </g>
    </g>
    <g id="text_18">
     <!-- Influence -->
     <defs>
      <path d="M 9.8125 72.90625 
L 19.671875 72.90625 
L 19.671875 0 
L 9.8125 0 
z
" id="DejaVuSans-73"/>
      <path d="M 54.890625 33.015625 
L 54.890625 0 
L 45.90625 0 
L 45.90625 32.71875 
Q 45.90625 40.484375 42.875 44.328125 
Q 39.84375 48.1875 33.796875 48.1875 
Q 26.515625 48.1875 22.3125 43.546875 
Q 18.109375 38.921875 18.109375 30.90625 
L 18.109375 0 
L 9.078125 0 
L 9.078125 54.6875 
L 18.109375 54.6875 
L 18.109375 46.1875 
Q 21.34375 51.125 25.703125 53.5625 
Q 30.078125 56 35.796875 56 
Q 45.21875 56 50.046875 50.171875 
Q 54.890625 44.34375 54.890625 33.015625 
z
" id="DejaVuSans-110"/>
      <path d="M 37.109375 75.984375 
L 37.109375 68.5 
L 28.515625 68.5 
Q 23.6875 68.5 21.796875 66.546875 
Q 19.921875 64.59375 19.921875 59.515625 
L 19.921875 54.6875 
L 34.71875 54.6875 
L 34.71875 47.703125 
L 19.921875 47.703125 
L 19.921875 0 
L 10.890625 0 
L 10.890625 47.703125 
L 2.296875 47.703125 
L 2.296875 54.6875 
L 10.890625 54.6875 
L 10.890625 58.5 
Q 10.890625 67.625 15.140625 71.796875 
Q 19.390625 75.984375 28.609375 75.984375 
z
" id="DejaVuSans-102"/>
      <path d="M 8.5 21.578125 
L 8.5 54.6875 
L 17.484375 54.6875 
L 17.484375 21.921875 
Q 17.484375 14.15625 20.5 10.265625 
Q 23.53125 6.390625 29.59375 6.390625 
Q 36.859375 6.390625 41.078125 11.03125 
Q 45.3125 15.671875 45.3125 23.6875 
L 45.3125 54.6875 
L 54.296875 54.6875 
L 54.296875 0 
L 45.3125 0 
L 45.3125 8.40625 
Q 42.046875 3.421875 37.71875 1 
Q 33.40625 -1.421875 27.6875 -1.421875 
Q 18.265625 -1.421875 13.375 4.4375 
Q 8.5 10.296875 8.5 21.578125 
z
M 31.109375 56 
z
" id="DejaVuSans-117"/>
      <path d="M 48.78125 52.59375 
L 48.78125 44.1875 
Q 44.96875 46.296875 41.140625 47.34375 
Q 37.3125 48.390625 33.40625 48.390625 
Q 24.65625 48.390625 19.8125 42.84375 
Q 14.984375 37.3125 14.984375 27.296875 
Q 14.984375 17.28125 19.8125 11.734375 
Q 24.65625 6.203125 33.40625 6.203125 
Q 37.3125 6.203125 41.140625 7.25 
Q 44.96875 8.296875 48.78125 10.40625 
L 48.78125 2.09375 
Q 45.015625 0.34375 40.984375 -0.53125 
Q 36.96875 -1.421875 32.421875 -1.421875 
Q 20.0625 -1.421875 12.78125 6.34375 
Q 5.515625 14.109375 5.515625 27.296875 
Q 5.515625 40.671875 12.859375 48.328125 
Q 20.21875 56 33.015625 56 
Q 37.15625 56 41.109375 55.140625 
Q 45.0625 54.296875 48.78125 52.59375 
z
" id="DejaVuSans-99"/>
     </defs>
     <g transform="translate(38.157812 197.560812)rotate(-90)scale(0.1 -0.1)">
      <use xlink:href="#DejaVuSans-73"/>
      <use x="29.492188" xlink:href="#DejaVuSans-110"/>
      <use x="92.871094" xlink:href="#DejaVuSans-102"/>
      <use x="128.076172" xlink:href="#DejaVuSans-108"/>
      <use x="155.859375" xlink:href="#DejaVuSans-117"/>
      <use x="219.238281" xlink:href="#DejaVuSans-101"/>
      <use x="280.761719" xlink:href="#DejaVuSans-110"/>
      <use x="344.140625" xlink:href="#DejaVuSans-99"/>
      <use x="399.121094" xlink:href="#DejaVuSans-101"/>
     </g>
    </g>
    <g id="text_19">
     <!-- 1e7 -->
     <defs>
      <path d="M 10.59375 35.5 
L 73.1875 35.5 
L 73.1875 27.203125 
L 10.59375 27.203125 
z
" id="DejaVuSans-8722"/>
     </defs>
     <g transform="translate(57.6 38.472)scale(0.1 -0.1)">
      <use xlink:href="#DejaVuSans-49"/>
      <use x="63.623047" xlink:href="#DejaVuSans-101"/>
      <use x="125.146484" xlink:href="#DejaVuSans-8722"/>
      <use x="208.935547" xlink:href="#DejaVuSans-55"/>
     </g>
    </g>
   </g>
   <g id="patch_303">
    <path d="M 57.6 307.584 
L 57.6 41.472 
" style="fill:none;stroke:#000000;stroke-linecap:square;stroke-linejoin:miter;stroke-width:0.8;"/>
   </g>
   <g id="patch_304">
    <path d="M 414.72 307.584 
L 414.72 41.472 
" style="fill:none;stroke:#000000;stroke-linecap:square;stroke-linejoin:miter;stroke-width:0.8;"/>
   </g>
   <g id="patch_305">
    <path d="M 57.6 307.584 
L 414.72 307.584 
" style="fill:none;stroke:#000000;stroke-linecap:square;stroke-linejoin:miter;stroke-width:0.8;"/>
   </g>
   <g id="patch_306">
    <path d="M 57.6 41.472 
L 414.72 41.472 
" style="fill:none;stroke:#000000;stroke-linecap:square;stroke-linejoin:miter;stroke-width:0.8;"/>
   </g>
   <g id="text_20">
    <!-- Influence of filters on model predictions -->
    <defs>
     <path id="DejaVuSans-32"/>
     <path d="M 30.609375 48.390625 
Q 23.390625 48.390625 19.1875 42.75 
Q 14.984375 37.109375 14.984375 27.296875 
Q 14.984375 17.484375 19.15625 11.84375 
Q 23.34375 6.203125 30.609375 6.203125 
Q 37.796875 6.203125 41.984375 11.859375 
Q 46.1875 17.53125 46.1875 27.296875 
Q 46.1875 37.015625 41.984375 42.703125 
Q 37.796875 48.390625 30.609375 48.390625 
z
M 30.609375 56 
Q 42.328125 56 49.015625 48.375 
Q 55.71875 40.765625 55.71875 27.296875 
Q 55.71875 13.875 49.015625 6.21875 
Q 42.328125 -1.421875 30.609375 -1.421875 
Q 18.84375 -1.421875 12.171875 6.21875 
Q 5.515625 13.875 5.515625 27.296875 
Q 5.515625 40.765625 12.171875 48.375 
Q 18.84375 56 30.609375 56 
z
" id="DejaVuSans-111"/>
     <path d="M 44.28125 53.078125 
L 44.28125 44.578125 
Q 40.484375 46.53125 36.375 47.5 
Q 32.28125 48.484375 27.875 48.484375 
Q 21.1875 48.484375 17.84375 46.4375 
Q 14.5 44.390625 14.5 40.28125 
Q 14.5 37.15625 16.890625 35.375 
Q 19.28125 33.59375 26.515625 31.984375 
L 29.59375 31.296875 
Q 39.15625 29.25 43.1875 25.515625 
Q 47.21875 21.78125 47.21875 15.09375 
Q 47.21875 7.46875 41.1875 3.015625 
Q 35.15625 -1.421875 24.609375 -1.421875 
Q 20.21875 -1.421875 15.453125 -0.5625 
Q 10.6875 0.296875 5.421875 2 
L 5.421875 11.28125 
Q 10.40625 8.6875 15.234375 7.390625 
Q 20.0625 6.109375 24.8125 6.109375 
Q 31.15625 6.109375 34.5625 8.28125 
Q 37.984375 10.453125 37.984375 14.40625 
Q 37.984375 18.0625 35.515625 20.015625 
Q 33.0625 21.96875 24.703125 23.78125 
L 21.578125 24.515625 
Q 13.234375 26.265625 9.515625 29.90625 
Q 5.8125 33.546875 5.8125 39.890625 
Q 5.8125 47.609375 11.28125 51.796875 
Q 16.75 56 26.8125 56 
Q 31.78125 56 36.171875 55.265625 
Q 40.578125 54.546875 44.28125 53.078125 
z
" id="DejaVuSans-115"/>
     <path d="M 52 44.1875 
Q 55.375 50.25 60.0625 53.125 
Q 64.75 56 71.09375 56 
Q 79.640625 56 84.28125 50.015625 
Q 88.921875 44.046875 88.921875 33.015625 
L 88.921875 0 
L 79.890625 0 
L 79.890625 32.71875 
Q 79.890625 40.578125 77.09375 44.375 
Q 74.3125 48.1875 68.609375 48.1875 
Q 61.625 48.1875 57.5625 43.546875 
Q 53.515625 38.921875 53.515625 30.90625 
L 53.515625 0 
L 44.484375 0 
L 44.484375 32.71875 
Q 44.484375 40.625 41.703125 44.40625 
Q 38.921875 48.1875 33.109375 48.1875 
Q 26.21875 48.1875 22.15625 43.53125 
Q 18.109375 38.875 18.109375 30.90625 
L 18.109375 0 
L 9.078125 0 
L 9.078125 54.6875 
L 18.109375 54.6875 
L 18.109375 46.1875 
Q 21.1875 51.21875 25.484375 53.609375 
Q 29.78125 56 35.6875 56 
Q 41.65625 56 45.828125 52.96875 
Q 50 49.953125 52 44.1875 
z
" id="DejaVuSans-109"/>
     <path d="M 45.40625 46.390625 
L 45.40625 75.984375 
L 54.390625 75.984375 
L 54.390625 0 
L 45.40625 0 
L 45.40625 8.203125 
Q 42.578125 3.328125 38.25 0.953125 
Q 33.9375 -1.421875 27.875 -1.421875 
Q 17.96875 -1.421875 11.734375 6.484375 
Q 5.515625 14.40625 5.515625 27.296875 
Q 5.515625 40.1875 11.734375 48.09375 
Q 17.96875 56 27.875 56 
Q 33.9375 56 38.25 53.625 
Q 42.578125 51.265625 45.40625 46.390625 
z
M 14.796875 27.296875 
Q 14.796875 17.390625 18.875 11.75 
Q 22.953125 6.109375 30.078125 6.109375 
Q 37.203125 6.109375 41.296875 11.75 
Q 45.40625 17.390625 45.40625 27.296875 
Q 45.40625 37.203125 41.296875 42.84375 
Q 37.203125 48.484375 30.078125 48.484375 
Q 22.953125 48.484375 18.875 42.84375 
Q 14.796875 37.203125 14.796875 27.296875 
z
" id="DejaVuSans-100"/>
     <path d="M 18.109375 8.203125 
L 18.109375 -20.796875 
L 9.078125 -20.796875 
L 9.078125 54.6875 
L 18.109375 54.6875 
L 18.109375 46.390625 
Q 20.953125 51.265625 25.265625 53.625 
Q 29.59375 56 35.59375 56 
Q 45.5625 56 51.78125 48.09375 
Q 58.015625 40.1875 58.015625 27.296875 
Q 58.015625 14.40625 51.78125 6.484375 
Q 45.5625 -1.421875 35.59375 -1.421875 
Q 29.59375 -1.421875 25.265625 0.953125 
Q 20.953125 3.328125 18.109375 8.203125 
z
M 48.6875 27.296875 
Q 48.6875 37.203125 44.609375 42.84375 
Q 40.53125 48.484375 33.40625 48.484375 
Q 26.265625 48.484375 22.1875 42.84375 
Q 18.109375 37.203125 18.109375 27.296875 
Q 18.109375 17.390625 22.1875 11.75 
Q 26.265625 6.109375 33.40625 6.109375 
Q 40.53125 6.109375 44.609375 11.75 
Q 48.6875 17.390625 48.6875 27.296875 
z
" id="DejaVuSans-112"/>
    </defs>
    <g transform="translate(116.7375 35.472)scale(0.12 -0.12)">
     <use xlink:href="#DejaVuSans-73"/>
     <use x="29.492188" xlink:href="#DejaVuSans-110"/>
     <use x="92.871094" xlink:href="#DejaVuSans-102"/>
     <use x="128.076172" xlink:href="#DejaVuSans-108"/>
     <use x="155.859375" xlink:href="#DejaVuSans-117"/>
     <use x="219.238281" xlink:href="#DejaVuSans-101"/>
     <use x="280.761719" xlink:href="#DejaVuSans-110"/>
     <use x="344.140625" xlink:href="#DejaVuSans-99"/>
     <use x="399.121094" xlink:href="#DejaVuSans-101"/>
     <use x="460.644531" xlink:href="#DejaVuSans-32"/>
     <use x="492.431641" xlink:href="#DejaVuSans-111"/>
     <use x="553.613281" xlink:href="#DejaVuSans-102"/>
     <use x="588.818359" xlink:href="#DejaVuSans-32"/>
     <use x="620.605469" xlink:href="#DejaVuSans-102"/>
     <use x="655.810547" xlink:href="#DejaVuSans-105"/>
     <use x="683.59375" xlink:href="#DejaVuSans-108"/>
     <use x="711.376953" xlink:href="#DejaVuSans-116"/>
     <use x="750.585938" xlink:href="#DejaVuSans-101"/>
     <use x="812.109375" xlink:href="#DejaVuSans-114"/>
     <use x="853.222656" xlink:href="#DejaVuSans-115"/>
     <use x="905.322266" xlink:href="#DejaVuSans-32"/>
     <use x="937.109375" xlink:href="#DejaVuSans-111"/>
     <use x="998.291016" xlink:href="#DejaVuSans-110"/>
     <use x="1061.669922" xlink:href="#DejaVuSans-32"/>
     <use x="1093.457031" xlink:href="#DejaVuSans-109"/>
     <use x="1190.869141" xlink:href="#DejaVuSans-111"/>
     <use x="1252.050781" xlink:href="#DejaVuSans-100"/>
     <use x="1315.527344" xlink:href="#DejaVuSans-101"/>
     <use x="1377.050781" xlink:href="#DejaVuSans-108"/>
     <use x="1404.833984" xlink:href="#DejaVuSans-32"/>
     <use x="1436.621094" xlink:href="#DejaVuSans-112"/>
     <use x="1500.097656" xlink:href="#DejaVuSans-114"/>
     <use x="1538.960938" xlink:href="#DejaVuSans-101"/>
     <use x="1600.484375" xlink:href="#DejaVuSans-100"/>
     <use x="1663.960938" xlink:href="#DejaVuSans-105"/>
     <use x="1691.744141" xlink:href="#DejaVuSans-99"/>
     <use x="1746.724609" xlink:href="#DejaVuSans-116"/>
     <use x="1785.933594" xlink:href="#DejaVuSans-105"/>
     <use x="1813.716797" xlink:href="#DejaVuSans-111"/>
     <use x="1874.898438" xlink:href="#DejaVuSans-110"/>
     <use x="1938.277344" xlink:href="#DejaVuSans-115"/>
    </g>
   </g>
  </g>
 </g>
 <defs>
  <clipPath id="pc9fe97c1ce">
   <rect height="266.112" width="357.12" x="57.6" y="41.472"/>
  </clipPath>
 </defs>
</svg>
