<?xml version="1.0" encoding="utf-8" standalone="no"?>
<!DOCTYPE svg PUBLIC "-//W3C//DTD SVG 1.1//EN"
  "http://www.w3.org/Graphics/SVG/1.1/DTD/svg11.dtd">
<!-- Created with matplotlib (https://matplotlib.org/) -->
<svg height="345.6pt" version="1.1" viewBox="0 0 460.8 345.6" width="460.8pt" xmlns="http://www.w3.org/2000/svg" xmlns:xlink="http://www.w3.org/1999/xlink">
 <defs>
  <style type="text/css">
*{stroke-linecap:butt;stroke-linejoin:round;}
  </style>
 </defs>
 <g id="figure_1">
  <g id="patch_1">
   <path d="M 0 345.6 
L 460.8 345.6 
L 460.8 0 
L 0 0 
z
" style="fill:#ffffff;"/>
  </g>
  <g id="axes_1">
   <g id="patch_2">
    <path d="M 57.6 307.584 
L 414.72 307.584 
L 414.72 41.472 
L 57.6 41.472 
z
" style="fill:#ffffff;"/>
   </g>
   <g id="patch_3">
    <path clip-path="url(#p50b1fed92d)" d="M 73.832727 307.584 
L 75.081399 307.584 
L 75.081399 228.835343 
L 73.832727 228.835343 
z
" style="fill:#1f77b4;"/>
   </g>
   <g id="patch_4">
    <path clip-path="url(#p50b1fed92d)" d="M 75.081399 307.584 
L 76.33007 307.584 
L 76.33007 196.510567 
L 75.081399 196.510567 
z
" style="fill:#1f77b4;"/>
   </g>
   <g id="patch_5">
    <path clip-path="url(#p50b1fed92d)" d="M 76.33007 307.584 
L 77.578741 307.584 
L 77.578741 164.529672 
L 76.33007 164.529672 
z
" style="fill:#1f77b4;"/>
   </g>
   <g id="patch_6">
    <path clip-path="url(#p50b1fed92d)" d="M 77.578741 307.584 
L 78.827413 307.584 
L 78.827413 132.548776 
L 77.578741 132.548776 
z
" style="fill:#1f77b4;"/>
   </g>
   <g id="patch_7">
    <path clip-path="url(#p50b1fed92d)" d="M 78.827413 307.584 
L 80.076084 307.584 
L 80.076084 79.591164 
L 78.827413 79.591164 
z
" style="fill:#1f77b4;"/>
   </g>
   <g id="patch_8">
    <path clip-path="url(#p50b1fed92d)" d="M 80.076084 307.584 
L 81.324755 307.584 
L 81.324755 80.278925 
L 80.076084 80.278925 
z
" style="fill:#1f77b4;"/>
   </g>
   <g id="patch_9">
    <path clip-path="url(#p50b1fed92d)" d="M 81.324755 307.584 
L 82.573427 307.584 
L 82.573427 89.219821 
L 81.324755 89.219821 
z
" style="fill:#1f77b4;"/>
   </g>
   <g id="patch_10">
    <path clip-path="url(#p50b1fed92d)" d="M 82.573427 307.584 
L 83.822098 307.584 
L 83.822098 74.089075 
L 82.573427 74.089075 
z
" style="fill:#1f77b4;"/>
   </g>
   <g id="patch_11">
    <path clip-path="url(#p50b1fed92d)" d="M 83.822098 307.584 
L 85.070769 307.584 
L 85.070769 89.219821 
L 83.822098 89.219821 
z
" style="fill:#1f77b4;"/>
   </g>
   <g id="patch_12">
    <path clip-path="url(#p50b1fed92d)" d="M 85.070769 307.584 
L 86.319441 307.584 
L 86.319441 84.061612 
L 85.070769 84.061612 
z
" style="fill:#1f77b4;"/>
   </g>
   <g id="patch_13">
    <path clip-path="url(#p50b1fed92d)" d="M 86.319441 307.584 
L 87.568112 307.584 
L 87.568112 84.061612 
L 86.319441 84.061612 
z
" style="fill:#1f77b4;"/>
   </g>
   <g id="patch_14">
    <path clip-path="url(#p50b1fed92d)" d="M 87.568112 307.584 
L 88.816783 307.584 
L 88.816783 195.478925 
L 87.568112 195.478925 
z
" style="fill:#1f77b4;"/>
   </g>
   <g id="patch_15">
    <path clip-path="url(#p50b1fed92d)" d="M 88.816783 307.584 
L 90.065455 307.584 
L 90.065455 70.994149 
L 88.816783 70.994149 
z
" style="fill:#1f77b4;"/>
   </g>
   <g id="patch_16">
    <path clip-path="url(#p50b1fed92d)" d="M 90.065455 307.584 
L 91.314126 307.584 
L 91.314126 99.880119 
L 90.065455 99.880119 
z
" style="fill:#1f77b4;"/>
   </g>
   <g id="patch_17">
    <path clip-path="url(#p50b1fed92d)" d="M 91.314126 307.584 
L 92.562797 307.584 
L 92.562797 69.962507 
L 91.314126 69.962507 
z
" style="fill:#1f77b4;"/>
   </g>
   <g id="patch_18">
    <path clip-path="url(#p50b1fed92d)" d="M 92.562797 307.584 
L 93.811469 307.584 
L 93.811469 92.658627 
L 92.562797 92.658627 
z
" style="fill:#1f77b4;"/>
   </g>
   <g id="patch_19">
    <path clip-path="url(#p50b1fed92d)" d="M 93.811469 307.584 
L 95.06014 307.584 
L 95.06014 85.781015 
L 93.811469 85.781015 
z
" style="fill:#1f77b4;"/>
   </g>
   <g id="patch_20">
    <path clip-path="url(#p50b1fed92d)" d="M 95.06014 307.584 
L 96.308811 307.584 
L 96.308811 83.02997 
L 95.06014 83.02997 
z
" style="fill:#1f77b4;"/>
   </g>
   <g id="patch_21">
    <path clip-path="url(#p50b1fed92d)" d="M 96.308811 307.584 
L 97.557483 307.584 
L 97.557483 67.211463 
L 96.308811 67.211463 
z
" style="fill:#1f77b4;"/>
   </g>
   <g id="patch_22">
    <path clip-path="url(#p50b1fed92d)" d="M 97.557483 307.584 
L 98.806154 307.584 
L 98.806154 84.405493 
L 97.557483 84.405493 
z
" style="fill:#1f77b4;"/>
   </g>
   <g id="patch_23">
    <path clip-path="url(#p50b1fed92d)" d="M 98.806154 307.584 
L 100.054825 307.584 
L 100.054825 79.247284 
L 98.806154 79.247284 
z
" style="fill:#1f77b4;"/>
   </g>
   <g id="patch_24">
    <path clip-path="url(#p50b1fed92d)" d="M 100.054825 307.584 
L 101.303497 307.584 
L 101.303497 84.405493 
L 100.054825 84.405493 
z
" style="fill:#1f77b4;"/>
   </g>
   <g id="patch_25">
    <path clip-path="url(#p50b1fed92d)" d="M 101.303497 307.584 
L 102.552168 307.584 
L 102.552168 191.008478 
L 101.303497 191.008478 
z
" style="fill:#1f77b4;"/>
   </g>
   <g id="patch_26">
    <path clip-path="url(#p50b1fed92d)" d="M 102.552168 307.584 
L 103.800839 307.584 
L 103.800839 66.867582 
L 102.552168 66.867582 
z
" style="fill:#1f77b4;"/>
   </g>
   <g id="patch_27">
    <path clip-path="url(#p50b1fed92d)" d="M 103.800839 307.584 
L 105.04951 307.584 
L 105.04951 86.812657 
L 103.800839 86.812657 
z
" style="fill:#1f77b4;"/>
   </g>
   <g id="patch_28">
    <path clip-path="url(#p50b1fed92d)" d="M 105.04951 307.584 
L 106.298182 307.584 
L 106.298182 75.464597 
L 105.04951 75.464597 
z
" style="fill:#1f77b4;"/>
   </g>
   <g id="patch_29">
    <path clip-path="url(#p50b1fed92d)" d="M 106.298182 307.584 
L 107.546853 307.584 
L 107.546853 69.618627 
L 106.298182 69.618627 
z
" style="fill:#1f77b4;"/>
   </g>
   <g id="patch_30">
    <path clip-path="url(#p50b1fed92d)" d="M 107.546853 307.584 
L 108.795524 307.584 
L 108.795524 74.089075 
L 107.546853 74.089075 
z
" style="fill:#1f77b4;"/>
   </g>
   <g id="patch_31">
    <path clip-path="url(#p50b1fed92d)" d="M 108.795524 307.584 
L 110.044196 307.584 
L 110.044196 79.935045 
L 108.795524 79.935045 
z
" style="fill:#1f77b4;"/>
   </g>
   <g id="patch_32">
    <path clip-path="url(#p50b1fed92d)" d="M 110.044196 307.584 
L 111.292867 307.584 
L 111.292867 89.907582 
L 110.044196 89.907582 
z
" style="fill:#1f77b4;"/>
   </g>
   <g id="patch_33">
    <path clip-path="url(#p50b1fed92d)" d="M 111.292867 307.584 
L 112.541538 307.584 
L 112.541538 92.314746 
L 111.292867 92.314746 
z
" style="fill:#1f77b4;"/>
   </g>
   <g id="patch_34">
    <path clip-path="url(#p50b1fed92d)" d="M 112.541538 307.584 
L 113.79021 307.584 
L 113.79021 73.401313 
L 112.541538 73.401313 
z
" style="fill:#1f77b4;"/>
   </g>
   <g id="patch_35">
    <path clip-path="url(#p50b1fed92d)" d="M 113.79021 307.584 
L 115.038881 307.584 
L 115.038881 93.690269 
L 113.79021 93.690269 
z
" style="fill:#1f77b4;"/>
   </g>
   <g id="patch_36">
    <path clip-path="url(#p50b1fed92d)" d="M 115.038881 307.584 
L 116.287552 307.584 
L 116.287552 190.320716 
L 115.038881 190.320716 
z
" style="fill:#1f77b4;"/>
   </g>
   <g id="patch_37">
    <path clip-path="url(#p50b1fed92d)" d="M 116.287552 307.584 
L 117.536224 307.584 
L 117.536224 91.283104 
L 116.287552 91.283104 
z
" style="fill:#1f77b4;"/>
   </g>
   <g id="patch_38">
    <path clip-path="url(#p50b1fed92d)" d="M 117.536224 307.584 
L 118.784895 307.584 
L 118.784895 86.124896 
L 117.536224 86.124896 
z
" style="fill:#1f77b4;"/>
   </g>
   <g id="patch_39">
    <path clip-path="url(#p50b1fed92d)" d="M 118.784895 307.584 
L 120.033566 307.584 
L 120.033566 91.970866 
L 118.784895 91.970866 
z
" style="fill:#1f77b4;"/>
   </g>
   <g id="patch_40">
    <path clip-path="url(#p50b1fed92d)" d="M 120.033566 307.584 
L 121.282238 307.584 
L 121.282238 72.369672 
L 120.033566 72.369672 
z
" style="fill:#1f77b4;"/>
   </g>
   <g id="patch_41">
    <path clip-path="url(#p50b1fed92d)" d="M 121.282238 307.584 
L 122.530909 307.584 
L 122.530909 90.939224 
L 121.282238 90.939224 
z
" style="fill:#1f77b4;"/>
   </g>
   <g id="patch_42">
    <path clip-path="url(#p50b1fed92d)" d="M 122.530909 307.584 
L 123.77958 307.584 
L 123.77958 73.057433 
L 122.530909 73.057433 
z
" style="fill:#1f77b4;"/>
   </g>
   <g id="patch_43">
    <path clip-path="url(#p50b1fed92d)" d="M 123.77958 307.584 
L 125.028252 307.584 
L 125.028252 95.065791 
L 123.77958 95.065791 
z
" style="fill:#1f77b4;"/>
   </g>
   <g id="patch_44">
    <path clip-path="url(#p50b1fed92d)" d="M 125.028252 307.584 
L 126.276923 307.584 
L 126.276923 87.156537 
L 125.028252 87.156537 
z
" style="fill:#1f77b4;"/>
   </g>
   <g id="patch_45">
    <path clip-path="url(#p50b1fed92d)" d="M 126.276923 307.584 
L 127.525594 307.584 
L 127.525594 65.83594 
L 126.276923 65.83594 
z
" style="fill:#1f77b4;"/>
   </g>
   <g id="patch_46">
    <path clip-path="url(#p50b1fed92d)" d="M 127.525594 307.584 
L 128.774266 307.584 
L 128.774266 88.87594 
L 127.525594 88.87594 
z
" style="fill:#1f77b4;"/>
   </g>
   <g id="patch_47">
    <path clip-path="url(#p50b1fed92d)" d="M 128.774266 307.584 
L 130.022937 307.584 
L 130.022937 105.382209 
L 128.774266 105.382209 
z
" style="fill:#1f77b4;"/>
   </g>
   <g id="patch_48">
    <path clip-path="url(#p50b1fed92d)" d="M 130.022937 307.584 
L 131.271608 307.584 
L 131.271608 192.727881 
L 130.022937 192.727881 
z
" style="fill:#1f77b4;"/>
   </g>
   <g id="patch_49">
    <path clip-path="url(#p50b1fed92d)" d="M 131.271608 307.584 
L 132.52028 307.584 
L 132.52028 100.224 
L 131.271608 100.224 
z
" style="fill:#1f77b4;"/>
   </g>
   <g id="patch_50">
    <path clip-path="url(#p50b1fed92d)" d="M 132.52028 307.584 
L 133.768951 307.584 
L 133.768951 77.527881 
L 132.52028 77.527881 
z
" style="fill:#1f77b4;"/>
   </g>
   <g id="patch_51">
    <path clip-path="url(#p50b1fed92d)" d="M 133.768951 307.584 
L 135.017622 307.584 
L 135.017622 101.943403 
L 133.768951 101.943403 
z
" style="fill:#1f77b4;"/>
   </g>
   <g id="patch_52">
    <path clip-path="url(#p50b1fed92d)" d="M 135.017622 307.584 
L 136.266294 307.584 
L 136.266294 96.097433 
L 135.017622 96.097433 
z
" style="fill:#1f77b4;"/>
   </g>
   <g id="patch_53">
    <path clip-path="url(#p50b1fed92d)" d="M 136.266294 307.584 
L 137.514965 307.584 
L 137.514965 87.156537 
L 136.266294 87.156537 
z
" style="fill:#1f77b4;"/>
   </g>
   <g id="patch_54">
    <path clip-path="url(#p50b1fed92d)" d="M 137.514965 307.584 
L 138.763636 307.584 
L 138.763636 78.215642 
L 137.514965 78.215642 
z
" style="fill:#1f77b4;"/>
   </g>
   <g id="patch_55">
    <path clip-path="url(#p50b1fed92d)" d="M 138.763636 307.584 
L 140.012308 307.584 
L 140.012308 96.097433 
L 138.763636 96.097433 
z
" style="fill:#1f77b4;"/>
   </g>
   <g id="patch_56">
    <path clip-path="url(#p50b1fed92d)" d="M 140.012308 307.584 
L 141.260979 307.584 
L 141.260979 79.935045 
L 140.012308 79.935045 
z
" style="fill:#1f77b4;"/>
   </g>
   <g id="patch_57">
    <path clip-path="url(#p50b1fed92d)" d="M 141.260979 307.584 
L 142.50965 307.584 
L 142.50965 79.591164 
L 141.260979 79.591164 
z
" style="fill:#1f77b4;"/>
   </g>
   <g id="patch_58">
    <path clip-path="url(#p50b1fed92d)" d="M 142.50965 307.584 
L 143.758322 307.584 
L 143.758322 78.559522 
L 142.50965 78.559522 
z
" style="fill:#1f77b4;"/>
   </g>
   <g id="patch_59">
    <path clip-path="url(#p50b1fed92d)" d="M 143.758322 307.584 
L 145.006993 307.584 
L 145.006993 191.352358 
L 143.758322 191.352358 
z
" style="fill:#1f77b4;"/>
   </g>
   <g id="patch_60">
    <path clip-path="url(#p50b1fed92d)" d="M 145.006993 307.584 
L 146.255664 307.584 
L 146.255664 67.555343 
L 145.006993 67.555343 
z
" style="fill:#1f77b4;"/>
   </g>
   <g id="patch_61">
    <path clip-path="url(#p50b1fed92d)" d="M 146.255664 307.584 
L 147.504336 307.584 
L 147.504336 87.500418 
L 146.255664 87.500418 
z
" style="fill:#1f77b4;"/>
   </g>
   <g id="patch_62">
    <path clip-path="url(#p50b1fed92d)" d="M 147.504336 307.584 
L 148.753007 307.584 
L 148.753007 82.342209 
L 147.504336 82.342209 
z
" style="fill:#1f77b4;"/>
   </g>
   <g id="patch_63">
    <path clip-path="url(#p50b1fed92d)" d="M 148.753007 307.584 
L 150.001678 307.584 
L 150.001678 84.061612 
L 148.753007 84.061612 
z
" style="fill:#1f77b4;"/>
   </g>
   <g id="patch_64">
    <path clip-path="url(#p50b1fed92d)" d="M 150.001678 307.584 
L 151.25035 307.584 
L 151.25035 86.124896 
L 150.001678 86.124896 
z
" style="fill:#1f77b4;"/>
   </g>
   <g id="patch_65">
    <path clip-path="url(#p50b1fed92d)" d="M 151.25035 307.584 
L 152.499021 307.584 
L 152.499021 80.278925 
L 151.25035 80.278925 
z
" style="fill:#1f77b4;"/>
   </g>
   <g id="patch_66">
    <path clip-path="url(#p50b1fed92d)" d="M 152.499021 307.584 
L 153.747692 307.584 
L 153.747692 82.342209 
L 152.499021 82.342209 
z
" style="fill:#1f77b4;"/>
   </g>
   <g id="patch_67">
    <path clip-path="url(#p50b1fed92d)" d="M 153.747692 307.584 
L 154.996364 307.584 
L 154.996364 89.219821 
L 153.747692 89.219821 
z
" style="fill:#1f77b4;"/>
   </g>
   <g id="patch_68">
    <path clip-path="url(#p50b1fed92d)" d="M 154.996364 307.584 
L 156.245035 307.584 
L 156.245035 86.812657 
L 154.996364 86.812657 
z
" style="fill:#1f77b4;"/>
   </g>
   <g id="patch_69">
    <path clip-path="url(#p50b1fed92d)" d="M 156.245035 307.584 
L 157.493706 307.584 
L 157.493706 77.871761 
L 156.245035 77.871761 
z
" style="fill:#1f77b4;"/>
   </g>
   <g id="patch_70">
    <path clip-path="url(#p50b1fed92d)" d="M 157.493706 307.584 
L 158.742378 307.584 
L 158.742378 193.759522 
L 157.493706 193.759522 
z
" style="fill:#1f77b4;"/>
   </g>
   <g id="patch_71">
    <path clip-path="url(#p50b1fed92d)" d="M 158.742378 307.584 
L 159.991049 307.584 
L 159.991049 96.785194 
L 158.742378 96.785194 
z
" style="fill:#1f77b4;"/>
   </g>
   <g id="patch_72">
    <path clip-path="url(#p50b1fed92d)" d="M 159.991049 307.584 
L 161.23972 307.584 
L 161.23972 78.903403 
L 159.991049 78.903403 
z
" style="fill:#1f77b4;"/>
   </g>
   <g id="patch_73">
    <path clip-path="url(#p50b1fed92d)" d="M 161.23972 307.584 
L 162.488392 307.584 
L 162.488392 83.373851 
L 161.23972 83.373851 
z
" style="fill:#1f77b4;"/>
   </g>
   <g id="patch_74">
    <path clip-path="url(#p50b1fed92d)" d="M 162.488392 307.584 
L 163.737063 307.584 
L 163.737063 85.781015 
L 162.488392 85.781015 
z
" style="fill:#1f77b4;"/>
   </g>
   <g id="patch_75">
    <path clip-path="url(#p50b1fed92d)" d="M 163.737063 307.584 
L 164.985734 307.584 
L 164.985734 86.812657 
L 163.737063 86.812657 
z
" style="fill:#1f77b4;"/>
   </g>
   <g id="patch_76">
    <path clip-path="url(#p50b1fed92d)" d="M 164.985734 307.584 
L 166.234406 307.584 
L 166.234406 83.373851 
L 164.985734 83.373851 
z
" style="fill:#1f77b4;"/>
   </g>
   <g id="patch_77">
    <path clip-path="url(#p50b1fed92d)" d="M 166.234406 307.584 
L 167.483077 307.584 
L 167.483077 83.717731 
L 166.234406 83.717731 
z
" style="fill:#1f77b4;"/>
   </g>
   <g id="patch_78">
    <path clip-path="url(#p50b1fed92d)" d="M 167.483077 307.584 
L 168.731748 307.584 
L 168.731748 87.156537 
L 167.483077 87.156537 
z
" style="fill:#1f77b4;"/>
   </g>
   <g id="patch_79">
    <path clip-path="url(#p50b1fed92d)" d="M 168.731748 307.584 
L 169.98042 307.584 
L 169.98042 87.156537 
L 168.731748 87.156537 
z
" style="fill:#1f77b4;"/>
   </g>
   <g id="patch_80">
    <path clip-path="url(#p50b1fed92d)" d="M 169.98042 307.584 
L 171.229091 307.584 
L 171.229091 91.283104 
L 169.98042 91.283104 
z
" style="fill:#1f77b4;"/>
   </g>
   <g id="patch_81">
    <path clip-path="url(#p50b1fed92d)" d="M 171.229091 307.584 
L 172.477762 307.584 
L 172.477762 96.785194 
L 171.229091 96.785194 
z
" style="fill:#1f77b4;"/>
   </g>
   <g id="patch_82">
    <path clip-path="url(#p50b1fed92d)" d="M 172.477762 307.584 
L 173.726434 307.584 
L 173.726434 198.22997 
L 172.477762 198.22997 
z
" style="fill:#1f77b4;"/>
   </g>
   <g id="patch_83">
    <path clip-path="url(#p50b1fed92d)" d="M 173.726434 307.584 
L 174.975105 307.584 
L 174.975105 90.251463 
L 173.726434 90.251463 
z
" style="fill:#1f77b4;"/>
   </g>
   <g id="patch_84">
    <path clip-path="url(#p50b1fed92d)" d="M 174.975105 307.584 
L 176.223776 307.584 
L 176.223776 85.437134 
L 174.975105 85.437134 
z
" style="fill:#1f77b4;"/>
   </g>
   <g id="patch_85">
    <path clip-path="url(#p50b1fed92d)" d="M 176.223776 307.584 
L 177.472448 307.584 
L 177.472448 95.065791 
L 176.223776 95.065791 
z
" style="fill:#1f77b4;"/>
   </g>
   <g id="patch_86">
    <path clip-path="url(#p50b1fed92d)" d="M 177.472448 307.584 
L 178.721119 307.584 
L 178.721119 91.970866 
L 177.472448 91.970866 
z
" style="fill:#1f77b4;"/>
   </g>
   <g id="patch_87">
    <path clip-path="url(#p50b1fed92d)" d="M 178.721119 307.584 
L 179.96979 307.584 
L 179.96979 89.907582 
L 178.721119 89.907582 
z
" style="fill:#1f77b4;"/>
   </g>
   <g id="patch_88">
    <path clip-path="url(#p50b1fed92d)" d="M 179.96979 307.584 
L 181.218462 307.584 
L 181.218462 88.87594 
L 179.96979 88.87594 
z
" style="fill:#1f77b4;"/>
   </g>
   <g id="patch_89">
    <path clip-path="url(#p50b1fed92d)" d="M 181.218462 307.584 
L 182.467133 307.584 
L 182.467133 97.816836 
L 181.218462 97.816836 
z
" style="fill:#1f77b4;"/>
   </g>
   <g id="patch_90">
    <path clip-path="url(#p50b1fed92d)" d="M 182.467133 307.584 
L 183.715804 307.584 
L 183.715804 84.749373 
L 182.467133 84.749373 
z
" style="fill:#1f77b4;"/>
   </g>
   <g id="patch_91">
    <path clip-path="url(#p50b1fed92d)" d="M 183.715804 307.584 
L 184.964476 307.584 
L 184.964476 90.251463 
L 183.715804 90.251463 
z
" style="fill:#1f77b4;"/>
   </g>
   <g id="patch_92">
    <path clip-path="url(#p50b1fed92d)" d="M 184.964476 307.584 
L 186.213147 307.584 
L 186.213147 92.658627 
L 184.964476 92.658627 
z
" style="fill:#1f77b4;"/>
   </g>
   <g id="patch_93">
    <path clip-path="url(#p50b1fed92d)" d="M 186.213147 307.584 
L 187.461818 307.584 
L 187.461818 194.103403 
L 186.213147 194.103403 
z
" style="fill:#1f77b4;"/>
   </g>
   <g id="patch_94">
    <path clip-path="url(#p50b1fed92d)" d="M 187.461818 307.584 
L 188.71049 307.584 
L 188.71049 106.06997 
L 187.461818 106.06997 
z
" style="fill:#1f77b4;"/>
   </g>
   <g id="patch_95">
    <path clip-path="url(#p50b1fed92d)" d="M 188.71049 307.584 
L 189.959161 307.584 
L 189.959161 84.405493 
L 188.71049 84.405493 
z
" style="fill:#1f77b4;"/>
   </g>
   <g id="patch_96">
    <path clip-path="url(#p50b1fed92d)" d="M 189.959161 307.584 
L 191.207832 307.584 
L 191.207832 78.559522 
L 189.959161 78.559522 
z
" style="fill:#1f77b4;"/>
   </g>
   <g id="patch_97">
    <path clip-path="url(#p50b1fed92d)" d="M 191.207832 307.584 
L 192.456503 307.584 
L 192.456503 85.437134 
L 191.207832 85.437134 
z
" style="fill:#1f77b4;"/>
   </g>
   <g id="patch_98">
    <path clip-path="url(#p50b1fed92d)" d="M 192.456503 307.584 
L 193.705175 307.584 
L 193.705175 89.219821 
L 192.456503 89.219821 
z
" style="fill:#1f77b4;"/>
   </g>
   <g id="patch_99">
    <path clip-path="url(#p50b1fed92d)" d="M 193.705175 307.584 
L 194.953846 307.584 
L 194.953846 79.247284 
L 193.705175 79.247284 
z
" style="fill:#1f77b4;"/>
   </g>
   <g id="patch_100">
    <path clip-path="url(#p50b1fed92d)" d="M 194.953846 307.584 
L 196.202517 307.584 
L 196.202517 91.283104 
L 194.953846 91.283104 
z
" style="fill:#1f77b4;"/>
   </g>
   <g id="patch_101">
    <path clip-path="url(#p50b1fed92d)" d="M 196.202517 307.584 
L 197.451189 307.584 
L 197.451189 76.152358 
L 196.202517 76.152358 
z
" style="fill:#1f77b4;"/>
   </g>
   <g id="patch_102">
    <path clip-path="url(#p50b1fed92d)" d="M 197.451189 307.584 
L 198.69986 307.584 
L 198.69986 92.658627 
L 197.451189 92.658627 
z
" style="fill:#1f77b4;"/>
   </g>
   <g id="patch_103">
    <path clip-path="url(#p50b1fed92d)" d="M 198.69986 307.584 
L 199.948531 307.584 
L 199.948531 78.559522 
L 198.69986 78.559522 
z
" style="fill:#1f77b4;"/>
   </g>
   <g id="patch_104">
    <path clip-path="url(#p50b1fed92d)" d="M 199.948531 307.584 
L 201.197203 307.584 
L 201.197203 192.384 
L 199.948531 192.384 
z
" style="fill:#1f77b4;"/>
   </g>
   <g id="patch_105">
    <path clip-path="url(#p50b1fed92d)" d="M 201.197203 307.584 
L 202.445874 307.584 
L 202.445874 90.595343 
L 201.197203 90.595343 
z
" style="fill:#1f77b4;"/>
   </g>
   <g id="patch_106">
    <path clip-path="url(#p50b1fed92d)" d="M 202.445874 307.584 
L 203.694545 307.584 
L 203.694545 89.219821 
L 202.445874 89.219821 
z
" style="fill:#1f77b4;"/>
   </g>
   <g id="patch_107">
    <path clip-path="url(#p50b1fed92d)" d="M 203.694545 307.584 
L 204.943217 307.584 
L 204.943217 87.844299 
L 203.694545 87.844299 
z
" style="fill:#1f77b4;"/>
   </g>
   <g id="patch_108">
    <path clip-path="url(#p50b1fed92d)" d="M 204.943217 307.584 
L 206.191888 307.584 
L 206.191888 88.188179 
L 204.943217 88.188179 
z
" style="fill:#1f77b4;"/>
   </g>
   <g id="patch_109">
    <path clip-path="url(#p50b1fed92d)" d="M 206.191888 307.584 
L 207.440559 307.584 
L 207.440559 86.124896 
L 206.191888 86.124896 
z
" style="fill:#1f77b4;"/>
   </g>
   <g id="patch_110">
    <path clip-path="url(#p50b1fed92d)" d="M 207.440559 307.584 
L 208.689231 307.584 
L 208.689231 78.903403 
L 207.440559 78.903403 
z
" style="fill:#1f77b4;"/>
   </g>
   <g id="patch_111">
    <path clip-path="url(#p50b1fed92d)" d="M 208.689231 307.584 
L 209.937902 307.584 
L 209.937902 81.654448 
L 208.689231 81.654448 
z
" style="fill:#1f77b4;"/>
   </g>
   <g id="patch_112">
    <path clip-path="url(#p50b1fed92d)" d="M 209.937902 307.584 
L 211.186573 307.584 
L 211.186573 80.278925 
L 209.937902 80.278925 
z
" style="fill:#1f77b4;"/>
   </g>
   <g id="patch_113">
    <path clip-path="url(#p50b1fed92d)" d="M 211.186573 307.584 
L 212.435245 307.584 
L 212.435245 96.097433 
L 211.186573 96.097433 
z
" style="fill:#1f77b4;"/>
   </g>
   <g id="patch_114">
    <path clip-path="url(#p50b1fed92d)" d="M 212.435245 307.584 
L 213.683916 307.584 
L 213.683916 90.595343 
L 212.435245 90.595343 
z
" style="fill:#1f77b4;"/>
   </g>
   <g id="patch_115">
    <path clip-path="url(#p50b1fed92d)" d="M 213.683916 307.584 
L 214.932587 307.584 
L 214.932587 67.899224 
L 213.683916 67.899224 
z
" style="fill:#1f77b4;"/>
   </g>
   <g id="patch_116">
    <path clip-path="url(#p50b1fed92d)" d="M 214.932587 307.584 
L 216.181259 307.584 
L 216.181259 183.099224 
L 214.932587 183.099224 
z
" style="fill:#1f77b4;"/>
   </g>
   <g id="patch_117">
    <path clip-path="url(#p50b1fed92d)" d="M 216.181259 307.584 
L 217.42993 307.584 
L 217.42993 98.504597 
L 216.181259 98.504597 
z
" style="fill:#1f77b4;"/>
   </g>
   <g id="patch_118">
    <path clip-path="url(#p50b1fed92d)" d="M 217.42993 307.584 
L 218.678601 307.584 
L 218.678601 85.093254 
L 217.42993 85.093254 
z
" style="fill:#1f77b4;"/>
   </g>
   <g id="patch_119">
    <path clip-path="url(#p50b1fed92d)" d="M 218.678601 307.584 
L 219.927273 307.584 
L 219.927273 79.591164 
L 218.678601 79.591164 
z
" style="fill:#1f77b4;"/>
   </g>
   <g id="patch_120">
    <path clip-path="url(#p50b1fed92d)" d="M 219.927273 307.584 
L 221.175944 307.584 
L 221.175944 93.690269 
L 219.927273 93.690269 
z
" style="fill:#1f77b4;"/>
   </g>
   <g id="patch_121">
    <path clip-path="url(#p50b1fed92d)" d="M 221.175944 307.584 
L 222.424615 307.584 
L 222.424615 69.274746 
L 221.175944 69.274746 
z
" style="fill:#1f77b4;"/>
   </g>
   <g id="patch_122">
    <path clip-path="url(#p50b1fed92d)" d="M 222.424615 307.584 
L 223.673287 307.584 
L 223.673287 101.599522 
L 222.424615 101.599522 
z
" style="fill:#1f77b4;"/>
   </g>
   <g id="patch_123">
    <path clip-path="url(#p50b1fed92d)" d="M 223.673287 307.584 
L 224.921958 307.584 
L 224.921958 91.283104 
L 223.673287 91.283104 
z
" style="fill:#1f77b4;"/>
   </g>
   <g id="patch_124">
    <path clip-path="url(#p50b1fed92d)" d="M 224.921958 307.584 
L 226.170629 307.584 
L 226.170629 94.72191 
L 224.921958 94.72191 
z
" style="fill:#1f77b4;"/>
   </g>
   <g id="patch_125">
    <path clip-path="url(#p50b1fed92d)" d="M 226.170629 307.584 
L 227.419301 307.584 
L 227.419301 102.631164 
L 226.170629 102.631164 
z
" style="fill:#1f77b4;"/>
   </g>
   <g id="patch_126">
    <path clip-path="url(#p50b1fed92d)" d="M 227.419301 307.584 
L 228.667972 307.584 
L 228.667972 93.690269 
L 227.419301 93.690269 
z
" style="fill:#1f77b4;"/>
   </g>
   <g id="patch_127">
    <path clip-path="url(#p50b1fed92d)" d="M 228.667972 307.584 
L 229.916643 307.584 
L 229.916643 203.388179 
L 228.667972 203.388179 
z
" style="fill:#1f77b4;"/>
   </g>
   <g id="patch_128">
    <path clip-path="url(#p50b1fed92d)" d="M 229.916643 307.584 
L 231.165315 307.584 
L 231.165315 87.156537 
L 229.916643 87.156537 
z
" style="fill:#1f77b4;"/>
   </g>
   <g id="patch_129">
    <path clip-path="url(#p50b1fed92d)" d="M 231.165315 307.584 
L 232.413986 307.584 
L 232.413986 87.844299 
L 231.165315 87.844299 
z
" style="fill:#1f77b4;"/>
   </g>
   <g id="patch_130">
    <path clip-path="url(#p50b1fed92d)" d="M 232.413986 307.584 
L 233.662657 307.584 
L 233.662657 101.943403 
L 232.413986 101.943403 
z
" style="fill:#1f77b4;"/>
   </g>
   <g id="patch_131">
    <path clip-path="url(#p50b1fed92d)" d="M 233.662657 307.584 
L 234.911329 307.584 
L 234.911329 81.654448 
L 233.662657 81.654448 
z
" style="fill:#1f77b4;"/>
   </g>
   <g id="patch_132">
    <path clip-path="url(#p50b1fed92d)" d="M 234.911329 307.584 
L 236.16 307.584 
L 236.16 95.753552 
L 234.911329 95.753552 
z
" style="fill:#1f77b4;"/>
   </g>
   <g id="patch_133">
    <path clip-path="url(#p50b1fed92d)" d="M 236.16 307.584 
L 237.408671 307.584 
L 237.408671 90.939224 
L 236.16 90.939224 
z
" style="fill:#1f77b4;"/>
   </g>
   <g id="patch_134">
    <path clip-path="url(#p50b1fed92d)" d="M 237.408671 307.584 
L 238.657343 307.584 
L 238.657343 88.87594 
L 237.408671 88.87594 
z
" style="fill:#1f77b4;"/>
   </g>
   <g id="patch_135">
    <path clip-path="url(#p50b1fed92d)" d="M 238.657343 307.584 
L 239.906014 307.584 
L 239.906014 85.093254 
L 238.657343 85.093254 
z
" style="fill:#1f77b4;"/>
   </g>
   <g id="patch_136">
    <path clip-path="url(#p50b1fed92d)" d="M 239.906014 307.584 
L 241.154685 307.584 
L 241.154685 109.164896 
L 239.906014 109.164896 
z
" style="fill:#1f77b4;"/>
   </g>
   <g id="patch_137">
    <path clip-path="url(#p50b1fed92d)" d="M 241.154685 307.584 
L 242.403357 307.584 
L 242.403357 87.844299 
L 241.154685 87.844299 
z
" style="fill:#1f77b4;"/>
   </g>
   <g id="patch_138">
    <path clip-path="url(#p50b1fed92d)" d="M 242.403357 307.584 
L 243.652028 307.584 
L 243.652028 212.329075 
L 242.403357 212.329075 
z
" style="fill:#1f77b4;"/>
   </g>
   <g id="patch_139">
    <path clip-path="url(#p50b1fed92d)" d="M 243.652028 307.584 
L 244.900699 307.584 
L 244.900699 90.251463 
L 243.652028 90.251463 
z
" style="fill:#1f77b4;"/>
   </g>
   <g id="patch_140">
    <path clip-path="url(#p50b1fed92d)" d="M 244.900699 307.584 
L 246.149371 307.584 
L 246.149371 102.975045 
L 244.900699 102.975045 
z
" style="fill:#1f77b4;"/>
   </g>
   <g id="patch_141">
    <path clip-path="url(#p50b1fed92d)" d="M 246.149371 307.584 
L 247.398042 307.584 
L 247.398042 83.373851 
L 246.149371 83.373851 
z
" style="fill:#1f77b4;"/>
   </g>
   <g id="patch_142">
    <path clip-path="url(#p50b1fed92d)" d="M 247.398042 307.584 
L 248.646713 307.584 
L 248.646713 80.278925 
L 247.398042 80.278925 
z
" style="fill:#1f77b4;"/>
   </g>
   <g id="patch_143">
    <path clip-path="url(#p50b1fed92d)" d="M 248.646713 307.584 
L 249.895385 307.584 
L 249.895385 95.409672 
L 248.646713 95.409672 
z
" style="fill:#1f77b4;"/>
   </g>
   <g id="patch_144">
    <path clip-path="url(#p50b1fed92d)" d="M 249.895385 307.584 
L 251.144056 307.584 
L 251.144056 86.812657 
L 249.895385 86.812657 
z
" style="fill:#1f77b4;"/>
   </g>
   <g id="patch_145">
    <path clip-path="url(#p50b1fed92d)" d="M 251.144056 307.584 
L 252.392727 307.584 
L 252.392727 86.812657 
L 251.144056 86.812657 
z
" style="fill:#1f77b4;"/>
   </g>
   <g id="patch_146">
    <path clip-path="url(#p50b1fed92d)" d="M 252.392727 307.584 
L 253.641399 307.584 
L 253.641399 87.500418 
L 252.392727 87.500418 
z
" style="fill:#1f77b4;"/>
   </g>
   <g id="patch_147">
    <path clip-path="url(#p50b1fed92d)" d="M 253.641399 307.584 
L 254.89007 307.584 
L 254.89007 96.785194 
L 253.641399 96.785194 
z
" style="fill:#1f77b4;"/>
   </g>
   <g id="patch_148">
    <path clip-path="url(#p50b1fed92d)" d="M 254.89007 307.584 
L 256.138741 307.584 
L 256.138741 83.02997 
L 254.89007 83.02997 
z
" style="fill:#1f77b4;"/>
   </g>
   <g id="patch_149">
    <path clip-path="url(#p50b1fed92d)" d="M 256.138741 307.584 
L 257.387413 307.584 
L 257.387413 195.135045 
L 256.138741 195.135045 
z
" style="fill:#1f77b4;"/>
   </g>
   <g id="patch_150">
    <path clip-path="url(#p50b1fed92d)" d="M 257.387413 307.584 
L 258.636084 307.584 
L 258.636084 75.120716 
L 257.387413 75.120716 
z
" style="fill:#1f77b4;"/>
   </g>
   <g id="patch_151">
    <path clip-path="url(#p50b1fed92d)" d="M 258.636084 307.584 
L 259.884755 307.584 
L 259.884755 81.654448 
L 258.636084 81.654448 
z
" style="fill:#1f77b4;"/>
   </g>
   <g id="patch_152">
    <path clip-path="url(#p50b1fed92d)" d="M 259.884755 307.584 
L 261.133427 307.584 
L 261.133427 89.219821 
L 259.884755 89.219821 
z
" style="fill:#1f77b4;"/>
   </g>
   <g id="patch_153">
    <path clip-path="url(#p50b1fed92d)" d="M 261.133427 307.584 
L 262.382098 307.584 
L 262.382098 84.749373 
L 261.133427 84.749373 
z
" style="fill:#1f77b4;"/>
   </g>
   <g id="patch_154">
    <path clip-path="url(#p50b1fed92d)" d="M 262.382098 307.584 
L 263.630769 307.584 
L 263.630769 97.816836 
L 262.382098 97.816836 
z
" style="fill:#1f77b4;"/>
   </g>
   <g id="patch_155">
    <path clip-path="url(#p50b1fed92d)" d="M 263.630769 307.584 
L 264.879441 307.584 
L 264.879441 88.188179 
L 263.630769 88.188179 
z
" style="fill:#1f77b4;"/>
   </g>
   <g id="patch_156">
    <path clip-path="url(#p50b1fed92d)" d="M 264.879441 307.584 
L 266.128112 307.584 
L 266.128112 66.179821 
L 264.879441 66.179821 
z
" style="fill:#1f77b4;"/>
   </g>
   <g id="patch_157">
    <path clip-path="url(#p50b1fed92d)" d="M 266.128112 307.584 
L 267.376783 307.584 
L 267.376783 89.907582 
L 266.128112 89.907582 
z
" style="fill:#1f77b4;"/>
   </g>
   <g id="patch_158">
    <path clip-path="url(#p50b1fed92d)" d="M 267.376783 307.584 
L 268.625455 307.584 
L 268.625455 94.034149 
L 267.376783 94.034149 
z
" style="fill:#1f77b4;"/>
   </g>
   <g id="patch_159">
    <path clip-path="url(#p50b1fed92d)" d="M 268.625455 307.584 
L 269.874126 307.584 
L 269.874126 90.939224 
L 268.625455 90.939224 
z
" style="fill:#1f77b4;"/>
   </g>
   <g id="patch_160">
    <path clip-path="url(#p50b1fed92d)" d="M 269.874126 307.584 
L 271.122797 307.584 
L 271.122797 80.622806 
L 269.874126 80.622806 
z
" style="fill:#1f77b4;"/>
   </g>
   <g id="patch_161">
    <path clip-path="url(#p50b1fed92d)" d="M 271.122797 307.584 
L 272.371469 307.584 
L 272.371469 201.324896 
L 271.122797 201.324896 
z
" style="fill:#1f77b4;"/>
   </g>
   <g id="patch_162">
    <path clip-path="url(#p50b1fed92d)" d="M 272.371469 307.584 
L 273.62014 307.584 
L 273.62014 85.781015 
L 272.371469 85.781015 
z
" style="fill:#1f77b4;"/>
   </g>
   <g id="patch_163">
    <path clip-path="url(#p50b1fed92d)" d="M 273.62014 307.584 
L 274.868811 307.584 
L 274.868811 89.907582 
L 273.62014 89.907582 
z
" style="fill:#1f77b4;"/>
   </g>
   <g id="patch_164">
    <path clip-path="url(#p50b1fed92d)" d="M 274.868811 307.584 
L 276.117483 307.584 
L 276.117483 81.998328 
L 274.868811 81.998328 
z
" style="fill:#1f77b4;"/>
   </g>
   <g id="patch_165">
    <path clip-path="url(#p50b1fed92d)" d="M 276.117483 307.584 
L 277.366154 307.584 
L 277.366154 83.717731 
L 276.117483 83.717731 
z
" style="fill:#1f77b4;"/>
   </g>
   <g id="patch_166">
    <path clip-path="url(#p50b1fed92d)" d="M 277.366154 307.584 
L 278.614825 307.584 
L 278.614825 83.373851 
L 277.366154 83.373851 
z
" style="fill:#1f77b4;"/>
   </g>
   <g id="patch_167">
    <path clip-path="url(#p50b1fed92d)" d="M 278.614825 307.584 
L 279.863497 307.584 
L 279.863497 84.405493 
L 278.614825 84.405493 
z
" style="fill:#1f77b4;"/>
   </g>
   <g id="patch_168">
    <path clip-path="url(#p50b1fed92d)" d="M 279.863497 307.584 
L 281.112168 307.584 
L 281.112168 91.626985 
L 279.863497 91.626985 
z
" style="fill:#1f77b4;"/>
   </g>
   <g id="patch_169">
    <path clip-path="url(#p50b1fed92d)" d="M 281.112168 307.584 
L 282.360839 307.584 
L 282.360839 92.658627 
L 281.112168 92.658627 
z
" style="fill:#1f77b4;"/>
   </g>
   <g id="patch_170">
    <path clip-path="url(#p50b1fed92d)" d="M 282.360839 307.584 
L 283.60951 307.584 
L 283.60951 89.907582 
L 282.360839 89.907582 
z
" style="fill:#1f77b4;"/>
   </g>
   <g id="patch_171">
    <path clip-path="url(#p50b1fed92d)" d="M 283.60951 307.584 
L 284.858182 307.584 
L 284.858182 87.500418 
L 283.60951 87.500418 
z
" style="fill:#1f77b4;"/>
   </g>
   <g id="patch_172">
    <path clip-path="url(#p50b1fed92d)" d="M 284.858182 307.584 
L 286.106853 307.584 
L 286.106853 193.759522 
L 284.858182 193.759522 
z
" style="fill:#1f77b4;"/>
   </g>
   <g id="patch_173">
    <path clip-path="url(#p50b1fed92d)" d="M 286.106853 307.584 
L 287.355524 307.584 
L 287.355524 68.243104 
L 286.106853 68.243104 
z
" style="fill:#1f77b4;"/>
   </g>
   <g id="patch_174">
    <path clip-path="url(#p50b1fed92d)" d="M 287.355524 307.584 
L 288.604196 307.584 
L 288.604196 87.156537 
L 287.355524 87.156537 
z
" style="fill:#1f77b4;"/>
   </g>
   <g id="patch_175">
    <path clip-path="url(#p50b1fed92d)" d="M 288.604196 307.584 
L 289.852867 307.584 
L 289.852867 91.283104 
L 288.604196 91.283104 
z
" style="fill:#1f77b4;"/>
   </g>
   <g id="patch_176">
    <path clip-path="url(#p50b1fed92d)" d="M 289.852867 307.584 
L 291.101538 307.584 
L 291.101538 91.626985 
L 289.852867 91.626985 
z
" style="fill:#1f77b4;"/>
   </g>
   <g id="patch_177">
    <path clip-path="url(#p50b1fed92d)" d="M 291.101538 307.584 
L 292.35021 307.584 
L 292.35021 89.907582 
L 291.101538 89.907582 
z
" style="fill:#1f77b4;"/>
   </g>
   <g id="patch_178">
    <path clip-path="url(#p50b1fed92d)" d="M 292.35021 307.584 
L 293.598881 307.584 
L 293.598881 79.591164 
L 292.35021 79.591164 
z
" style="fill:#1f77b4;"/>
   </g>
   <g id="patch_179">
    <path clip-path="url(#p50b1fed92d)" d="M 293.598881 307.584 
L 294.847552 307.584 
L 294.847552 84.405493 
L 293.598881 84.405493 
z
" style="fill:#1f77b4;"/>
   </g>
   <g id="patch_180">
    <path clip-path="url(#p50b1fed92d)" d="M 294.847552 307.584 
L 296.096224 307.584 
L 296.096224 92.658627 
L 294.847552 92.658627 
z
" style="fill:#1f77b4;"/>
   </g>
   <g id="patch_181">
    <path clip-path="url(#p50b1fed92d)" d="M 296.096224 307.584 
L 297.344895 307.584 
L 297.344895 80.278925 
L 296.096224 80.278925 
z
" style="fill:#1f77b4;"/>
   </g>
   <g id="patch_182">
    <path clip-path="url(#p50b1fed92d)" d="M 297.344895 307.584 
L 298.593566 307.584 
L 298.593566 85.093254 
L 297.344895 85.093254 
z
" style="fill:#1f77b4;"/>
   </g>
   <g id="patch_183">
    <path clip-path="url(#p50b1fed92d)" d="M 298.593566 307.584 
L 299.842238 307.584 
L 299.842238 198.22997 
L 298.593566 198.22997 
z
" style="fill:#1f77b4;"/>
   </g>
   <g id="patch_184">
    <path clip-path="url(#p50b1fed92d)" d="M 299.842238 307.584 
L 301.090909 307.584 
L 301.090909 75.808478 
L 299.842238 75.808478 
z
" style="fill:#1f77b4;"/>
   </g>
   <g id="patch_185">
    <path clip-path="url(#p50b1fed92d)" d="M 301.090909 307.584 
L 302.33958 307.584 
L 302.33958 91.626985 
L 301.090909 91.626985 
z
" style="fill:#1f77b4;"/>
   </g>
   <g id="patch_186">
    <path clip-path="url(#p50b1fed92d)" d="M 302.33958 307.584 
L 303.588252 307.584 
L 303.588252 91.970866 
L 302.33958 91.970866 
z
" style="fill:#1f77b4;"/>
   </g>
   <g id="patch_187">
    <path clip-path="url(#p50b1fed92d)" d="M 303.588252 307.584 
L 304.836923 307.584 
L 304.836923 87.156537 
L 303.588252 87.156537 
z
" style="fill:#1f77b4;"/>
   </g>
   <g id="patch_188">
    <path clip-path="url(#p50b1fed92d)" d="M 304.836923 307.584 
L 306.085594 307.584 
L 306.085594 83.717731 
L 304.836923 83.717731 
z
" style="fill:#1f77b4;"/>
   </g>
   <g id="patch_189">
    <path clip-path="url(#p50b1fed92d)" d="M 306.085594 307.584 
L 307.334266 307.584 
L 307.334266 89.563701 
L 306.085594 89.563701 
z
" style="fill:#1f77b4;"/>
   </g>
   <g id="patch_190">
    <path clip-path="url(#p50b1fed92d)" d="M 307.334266 307.584 
L 308.582937 307.584 
L 308.582937 73.745194 
L 307.334266 73.745194 
z
" style="fill:#1f77b4;"/>
   </g>
   <g id="patch_191">
    <path clip-path="url(#p50b1fed92d)" d="M 308.582937 307.584 
L 309.831608 307.584 
L 309.831608 86.124896 
L 308.582937 86.124896 
z
" style="fill:#1f77b4;"/>
   </g>
   <g id="patch_192">
    <path clip-path="url(#p50b1fed92d)" d="M 309.831608 307.584 
L 311.08028 307.584 
L 311.08028 88.87594 
L 309.831608 88.87594 
z
" style="fill:#1f77b4;"/>
   </g>
   <g id="patch_193">
    <path clip-path="url(#p50b1fed92d)" d="M 311.08028 307.584 
L 312.328951 307.584 
L 312.328951 104.694448 
L 311.08028 104.694448 
z
" style="fill:#1f77b4;"/>
   </g>
   <g id="patch_194">
    <path clip-path="url(#p50b1fed92d)" d="M 312.328951 307.584 
L 313.577622 307.584 
L 313.577622 97.816836 
L 312.328951 97.816836 
z
" style="fill:#1f77b4;"/>
   </g>
   <g id="patch_195">
    <path clip-path="url(#p50b1fed92d)" d="M 313.577622 307.584 
L 314.826294 307.584 
L 314.826294 194.447284 
L 313.577622 194.447284 
z
" style="fill:#1f77b4;"/>
   </g>
   <g id="patch_196">
    <path clip-path="url(#p50b1fed92d)" d="M 314.826294 307.584 
L 316.074965 307.584 
L 316.074965 71.68191 
L 314.826294 71.68191 
z
" style="fill:#1f77b4;"/>
   </g>
   <g id="patch_197">
    <path clip-path="url(#p50b1fed92d)" d="M 316.074965 307.584 
L 317.323636 307.584 
L 317.323636 82.68609 
L 316.074965 82.68609 
z
" style="fill:#1f77b4;"/>
   </g>
   <g id="patch_198">
    <path clip-path="url(#p50b1fed92d)" d="M 317.323636 307.584 
L 318.572308 307.584 
L 318.572308 89.563701 
L 317.323636 89.563701 
z
" style="fill:#1f77b4;"/>
   </g>
   <g id="patch_199">
    <path clip-path="url(#p50b1fed92d)" d="M 318.572308 307.584 
L 319.820979 307.584 
L 319.820979 64.804299 
L 318.572308 64.804299 
z
" style="fill:#1f77b4;"/>
   </g>
   <g id="patch_200">
    <path clip-path="url(#p50b1fed92d)" d="M 319.820979 307.584 
L 321.06965 307.584 
L 321.06965 103.318925 
L 319.820979 103.318925 
z
" style="fill:#1f77b4;"/>
   </g>
   <g id="patch_201">
    <path clip-path="url(#p50b1fed92d)" d="M 321.06965 307.584 
L 322.318322 307.584 
L 322.318322 75.464597 
L 321.06965 75.464597 
z
" style="fill:#1f77b4;"/>
   </g>
   <g id="patch_202">
    <path clip-path="url(#p50b1fed92d)" d="M 322.318322 307.584 
L 323.566993 307.584 
L 323.566993 88.188179 
L 322.318322 88.188179 
z
" style="fill:#1f77b4;"/>
   </g>
   <g id="patch_203">
    <path clip-path="url(#p50b1fed92d)" d="M 323.566993 307.584 
L 324.815664 307.584 
L 324.815664 79.935045 
L 323.566993 79.935045 
z
" style="fill:#1f77b4;"/>
   </g>
   <g id="patch_204">
    <path clip-path="url(#p50b1fed92d)" d="M 324.815664 307.584 
L 326.064336 307.584 
L 326.064336 86.812657 
L 324.815664 86.812657 
z
" style="fill:#1f77b4;"/>
   </g>
   <g id="patch_205">
    <path clip-path="url(#p50b1fed92d)" d="M 326.064336 307.584 
L 327.313007 307.584 
L 327.313007 83.373851 
L 326.064336 83.373851 
z
" style="fill:#1f77b4;"/>
   </g>
   <g id="patch_206">
    <path clip-path="url(#p50b1fed92d)" d="M 327.313007 307.584 
L 328.561678 307.584 
L 328.561678 196.854448 
L 327.313007 196.854448 
z
" style="fill:#1f77b4;"/>
   </g>
   <g id="patch_207">
    <path clip-path="url(#p50b1fed92d)" d="M 328.561678 307.584 
L 329.81035 307.584 
L 329.81035 54.144 
L 328.561678 54.144 
z
" style="fill:#1f77b4;"/>
   </g>
   <g id="patch_208">
    <path clip-path="url(#p50b1fed92d)" d="M 329.81035 307.584 
L 331.059021 307.584 
L 331.059021 88.188179 
L 329.81035 88.188179 
z
" style="fill:#1f77b4;"/>
   </g>
   <g id="patch_209">
    <path clip-path="url(#p50b1fed92d)" d="M 331.059021 307.584 
L 332.307692 307.584 
L 332.307692 96.097433 
L 331.059021 96.097433 
z
" style="fill:#1f77b4;"/>
   </g>
   <g id="patch_210">
    <path clip-path="url(#p50b1fed92d)" d="M 332.307692 307.584 
L 333.556364 307.584 
L 333.556364 78.559522 
L 332.307692 78.559522 
z
" style="fill:#1f77b4;"/>
   </g>
   <g id="patch_211">
    <path clip-path="url(#p50b1fed92d)" d="M 333.556364 307.584 
L 334.805035 307.584 
L 334.805035 76.496239 
L 333.556364 76.496239 
z
" style="fill:#1f77b4;"/>
   </g>
   <g id="patch_212">
    <path clip-path="url(#p50b1fed92d)" d="M 334.805035 307.584 
L 336.053706 307.584 
L 336.053706 79.247284 
L 334.805035 79.247284 
z
" style="fill:#1f77b4;"/>
   </g>
   <g id="patch_213">
    <path clip-path="url(#p50b1fed92d)" d="M 336.053706 307.584 
L 337.302378 307.584 
L 337.302378 87.156537 
L 336.053706 87.156537 
z
" style="fill:#1f77b4;"/>
   </g>
   <g id="patch_214">
    <path clip-path="url(#p50b1fed92d)" d="M 337.302378 307.584 
L 338.551049 307.584 
L 338.551049 77.184 
L 337.302378 77.184 
z
" style="fill:#1f77b4;"/>
   </g>
   <g id="patch_215">
    <path clip-path="url(#p50b1fed92d)" d="M 338.551049 307.584 
L 339.79972 307.584 
L 339.79972 87.844299 
L 338.551049 87.844299 
z
" style="fill:#1f77b4;"/>
   </g>
   <g id="patch_216">
    <path clip-path="url(#p50b1fed92d)" d="M 339.79972 307.584 
L 341.048392 307.584 
L 341.048392 58.614448 
L 339.79972 58.614448 
z
" style="fill:#1f77b4;"/>
   </g>
   <g id="patch_217">
    <path clip-path="url(#p50b1fed92d)" d="M 341.048392 307.584 
L 342.297063 307.584 
L 342.297063 187.913552 
L 341.048392 187.913552 
z
" style="fill:#1f77b4;"/>
   </g>
   <g id="patch_218">
    <path clip-path="url(#p50b1fed92d)" d="M 342.297063 307.584 
L 343.545734 307.584 
L 343.545734 79.935045 
L 342.297063 79.935045 
z
" style="fill:#1f77b4;"/>
   </g>
   <g id="patch_219">
    <path clip-path="url(#p50b1fed92d)" d="M 343.545734 307.584 
L 344.794406 307.584 
L 344.794406 64.116537 
L 343.545734 64.116537 
z
" style="fill:#1f77b4;"/>
   </g>
   <g id="patch_220">
    <path clip-path="url(#p50b1fed92d)" d="M 344.794406 307.584 
L 346.043077 307.584 
L 346.043077 75.464597 
L 344.794406 75.464597 
z
" style="fill:#1f77b4;"/>
   </g>
   <g id="patch_221">
    <path clip-path="url(#p50b1fed92d)" d="M 346.043077 307.584 
L 347.291748 307.584 
L 347.291748 82.68609 
L 346.043077 82.68609 
z
" style="fill:#1f77b4;"/>
   </g>
   <g id="patch_222">
    <path clip-path="url(#p50b1fed92d)" d="M 347.291748 307.584 
L 348.54042 307.584 
L 348.54042 80.966687 
L 347.291748 80.966687 
z
" style="fill:#1f77b4;"/>
   </g>
   <g id="patch_223">
    <path clip-path="url(#p50b1fed92d)" d="M 348.54042 307.584 
L 349.789091 307.584 
L 349.789091 78.903403 
L 348.54042 78.903403 
z
" style="fill:#1f77b4;"/>
   </g>
   <g id="patch_224">
    <path clip-path="url(#p50b1fed92d)" d="M 349.789091 307.584 
L 351.037762 307.584 
L 351.037762 101.599522 
L 349.789091 101.599522 
z
" style="fill:#1f77b4;"/>
   </g>
   <g id="patch_225">
    <path clip-path="url(#p50b1fed92d)" d="M 351.037762 307.584 
L 352.286434 307.584 
L 352.286434 81.310567 
L 351.037762 81.310567 
z
" style="fill:#1f77b4;"/>
   </g>
   <g id="patch_226">
    <path clip-path="url(#p50b1fed92d)" d="M 352.286434 307.584 
L 353.535105 307.584 
L 353.535105 59.98997 
L 352.286434 59.98997 
z
" style="fill:#1f77b4;"/>
   </g>
   <g id="patch_227">
    <path clip-path="url(#p50b1fed92d)" d="M 353.535105 307.584 
L 354.783776 307.584 
L 354.783776 92.658627 
L 353.535105 92.658627 
z
" style="fill:#1f77b4;"/>
   </g>
   <g id="patch_228">
    <path clip-path="url(#p50b1fed92d)" d="M 354.783776 307.584 
L 356.032448 307.584 
L 356.032448 92.314746 
L 354.783776 92.314746 
z
" style="fill:#1f77b4;"/>
   </g>
   <g id="patch_229">
    <path clip-path="url(#p50b1fed92d)" d="M 356.032448 307.584 
L 357.281119 307.584 
L 357.281119 200.293254 
L 356.032448 200.293254 
z
" style="fill:#1f77b4;"/>
   </g>
   <g id="patch_230">
    <path clip-path="url(#p50b1fed92d)" d="M 357.281119 307.584 
L 358.52979 307.584 
L 358.52979 79.935045 
L 357.281119 79.935045 
z
" style="fill:#1f77b4;"/>
   </g>
   <g id="patch_231">
    <path clip-path="url(#p50b1fed92d)" d="M 358.52979 307.584 
L 359.778462 307.584 
L 359.778462 80.622806 
L 358.52979 80.622806 
z
" style="fill:#1f77b4;"/>
   </g>
   <g id="patch_232">
    <path clip-path="url(#p50b1fed92d)" d="M 359.778462 307.584 
L 361.027133 307.584 
L 361.027133 71.68191 
L 359.778462 71.68191 
z
" style="fill:#1f77b4;"/>
   </g>
   <g id="patch_233">
    <path clip-path="url(#p50b1fed92d)" d="M 361.027133 307.584 
L 362.275804 307.584 
L 362.275804 71.33803 
L 361.027133 71.33803 
z
" style="fill:#1f77b4;"/>
   </g>
   <g id="patch_234">
    <path clip-path="url(#p50b1fed92d)" d="M 362.275804 307.584 
L 363.524476 307.584 
L 363.524476 103.318925 
L 362.275804 103.318925 
z
" style="fill:#1f77b4;"/>
   </g>
   <g id="patch_235">
    <path clip-path="url(#p50b1fed92d)" d="M 363.524476 307.584 
L 364.773147 307.584 
L 364.773147 87.500418 
L 363.524476 87.500418 
z
" style="fill:#1f77b4;"/>
   </g>
   <g id="patch_236">
    <path clip-path="url(#p50b1fed92d)" d="M 364.773147 307.584 
L 366.021818 307.584 
L 366.021818 70.650269 
L 364.773147 70.650269 
z
" style="fill:#1f77b4;"/>
   </g>
   <g id="patch_237">
    <path clip-path="url(#p50b1fed92d)" d="M 366.021818 307.584 
L 367.27049 307.584 
L 367.27049 73.745194 
L 366.021818 73.745194 
z
" style="fill:#1f77b4;"/>
   </g>
   <g id="patch_238">
    <path clip-path="url(#p50b1fed92d)" d="M 367.27049 307.584 
L 368.519161 307.584 
L 368.519161 70.650269 
L 367.27049 70.650269 
z
" style="fill:#1f77b4;"/>
   </g>
   <g id="patch_239">
    <path clip-path="url(#p50b1fed92d)" d="M 368.519161 307.584 
L 369.767832 307.584 
L 369.767832 85.093254 
L 368.519161 85.093254 
z
" style="fill:#1f77b4;"/>
   </g>
   <g id="patch_240">
    <path clip-path="url(#p50b1fed92d)" d="M 369.767832 307.584 
L 371.016503 307.584 
L 371.016503 195.135045 
L 369.767832 195.135045 
z
" style="fill:#1f77b4;"/>
   </g>
   <g id="patch_241">
    <path clip-path="url(#p50b1fed92d)" d="M 371.016503 307.584 
L 372.265175 307.584 
L 372.265175 74.432955 
L 371.016503 74.432955 
z
" style="fill:#1f77b4;"/>
   </g>
   <g id="patch_242">
    <path clip-path="url(#p50b1fed92d)" d="M 372.265175 307.584 
L 373.513846 307.584 
L 373.513846 84.405493 
L 372.265175 84.405493 
z
" style="fill:#1f77b4;"/>
   </g>
   <g id="patch_243">
    <path clip-path="url(#p50b1fed92d)" d="M 373.513846 307.584 
L 374.762517 307.584 
L 374.762517 85.093254 
L 373.513846 85.093254 
z
" style="fill:#1f77b4;"/>
   </g>
   <g id="patch_244">
    <path clip-path="url(#p50b1fed92d)" d="M 374.762517 307.584 
L 376.011189 307.584 
L 376.011189 93.690269 
L 374.762517 93.690269 
z
" style="fill:#1f77b4;"/>
   </g>
   <g id="patch_245">
    <path clip-path="url(#p50b1fed92d)" d="M 376.011189 307.584 
L 377.25986 307.584 
L 377.25986 87.156537 
L 376.011189 87.156537 
z
" style="fill:#1f77b4;"/>
   </g>
   <g id="patch_246">
    <path clip-path="url(#p50b1fed92d)" d="M 377.25986 307.584 
L 378.508531 307.584 
L 378.508531 94.034149 
L 377.25986 94.034149 
z
" style="fill:#1f77b4;"/>
   </g>
   <g id="patch_247">
    <path clip-path="url(#p50b1fed92d)" d="M 378.508531 307.584 
L 379.757203 307.584 
L 379.757203 79.935045 
L 378.508531 79.935045 
z
" style="fill:#1f77b4;"/>
   </g>
   <g id="patch_248">
    <path clip-path="url(#p50b1fed92d)" d="M 379.757203 307.584 
L 381.005874 307.584 
L 381.005874 82.342209 
L 379.757203 82.342209 
z
" style="fill:#1f77b4;"/>
   </g>
   <g id="patch_249">
    <path clip-path="url(#p50b1fed92d)" d="M 381.005874 307.584 
L 382.254545 307.584 
L 382.254545 99.536239 
L 381.005874 99.536239 
z
" style="fill:#1f77b4;"/>
   </g>
   <g id="patch_250">
    <path clip-path="url(#p50b1fed92d)" d="M 382.254545 307.584 
L 383.503217 307.584 
L 383.503217 86.124896 
L 382.254545 86.124896 
z
" style="fill:#1f77b4;"/>
   </g>
   <g id="patch_251">
    <path clip-path="url(#p50b1fed92d)" d="M 383.503217 307.584 
L 384.751888 307.584 
L 384.751888 200.293254 
L 383.503217 200.293254 
z
" style="fill:#1f77b4;"/>
   </g>
   <g id="patch_252">
    <path clip-path="url(#p50b1fed92d)" d="M 384.751888 307.584 
L 386.000559 307.584 
L 386.000559 75.808478 
L 384.751888 75.808478 
z
" style="fill:#1f77b4;"/>
   </g>
   <g id="patch_253">
    <path clip-path="url(#p50b1fed92d)" d="M 386.000559 307.584 
L 387.249231 307.584 
L 387.249231 86.124896 
L 386.000559 86.124896 
z
" style="fill:#1f77b4;"/>
   </g>
   <g id="patch_254">
    <path clip-path="url(#p50b1fed92d)" d="M 387.249231 307.584 
L 388.497902 307.584 
L 388.497902 107.101612 
L 387.249231 107.101612 
z
" style="fill:#1f77b4;"/>
   </g>
   <g id="patch_255">
    <path clip-path="url(#p50b1fed92d)" d="M 388.497902 307.584 
L 389.746573 307.584 
L 389.746573 76.496239 
L 388.497902 76.496239 
z
" style="fill:#1f77b4;"/>
   </g>
   <g id="patch_256">
    <path clip-path="url(#p50b1fed92d)" d="M 389.746573 307.584 
L 390.995245 307.584 
L 390.995245 80.966687 
L 389.746573 80.966687 
z
" style="fill:#1f77b4;"/>
   </g>
   <g id="patch_257">
    <path clip-path="url(#p50b1fed92d)" d="M 390.995245 307.584 
L 392.243916 307.584 
L 392.243916 91.626985 
L 390.995245 91.626985 
z
" style="fill:#1f77b4;"/>
   </g>
   <g id="patch_258">
    <path clip-path="url(#p50b1fed92d)" d="M 392.243916 307.584 
L 393.492587 307.584 
L 393.492587 98.160716 
L 392.243916 98.160716 
z
" style="fill:#1f77b4;"/>
   </g>
   <g id="patch_259">
    <path clip-path="url(#p50b1fed92d)" d="M 393.492587 307.584 
L 394.741259 307.584 
L 394.741259 117.41803 
L 393.492587 117.41803 
z
" style="fill:#1f77b4;"/>
   </g>
   <g id="patch_260">
    <path clip-path="url(#p50b1fed92d)" d="M 394.741259 307.584 
L 395.98993 307.584 
L 395.98993 153.181612 
L 394.741259 153.181612 
z
" style="fill:#1f77b4;"/>
   </g>
   <g id="patch_261">
    <path clip-path="url(#p50b1fed92d)" d="M 395.98993 307.584 
L 397.238601 307.584 
L 397.238601 208.546388 
L 395.98993 208.546388 
z
" style="fill:#1f77b4;"/>
   </g>
   <g id="patch_262">
    <path clip-path="url(#p50b1fed92d)" d="M 397.238601 307.584 
L 398.487273 307.584 
L 398.487273 240.527284 
L 397.238601 240.527284 
z
" style="fill:#1f77b4;"/>
   </g>
   <g id="matplotlib.axis_1">
    <g id="xtick_1">
     <g id="line2d_1">
      <defs>
       <path d="M 0 0 
L 0 3.5 
" id="m9346365f6a" style="stroke:#000000;stroke-width:0.8;"/>
      </defs>
      <g>
       <use style="stroke:#000000;stroke-width:0.8;" x="73.832727" xlink:href="#m9346365f6a" y="307.584"/>
      </g>
     </g>
     <g id="text_1">
      <!-- 0 -->
      <defs>
       <path d="M 31.78125 66.40625 
Q 24.171875 66.40625 20.328125 58.90625 
Q 16.5 51.421875 16.5 36.375 
Q 16.5 21.390625 20.328125 13.890625 
Q 24.171875 6.390625 31.78125 6.390625 
Q 39.453125 6.390625 43.28125 13.890625 
Q 47.125 21.390625 47.125 36.375 
Q 47.125 51.421875 43.28125 58.90625 
Q 39.453125 66.40625 31.78125 66.40625 
z
M 31.78125 74.21875 
Q 44.046875 74.21875 50.515625 64.515625 
Q 56.984375 54.828125 56.984375 36.375 
Q 56.984375 17.96875 50.515625 8.265625 
Q 44.046875 -1.421875 31.78125 -1.421875 
Q 19.53125 -1.421875 13.0625 8.265625 
Q 6.59375 17.96875 6.59375 36.375 
Q 6.59375 54.828125 13.0625 64.515625 
Q 19.53125 74.21875 31.78125 74.21875 
z
" id="DejaVuSans-48"/>
      </defs>
      <g transform="translate(70.651477 322.182437)scale(0.1 -0.1)">
       <use xlink:href="#DejaVuSans-48"/>
      </g>
     </g>
    </g>
    <g id="xtick_2">
     <g id="line2d_2">
      <g>
       <use style="stroke:#000000;stroke-width:0.8;" x="139.155573" xlink:href="#m9346365f6a" y="307.584"/>
      </g>
     </g>
     <g id="text_2">
      <!-- 100 -->
      <defs>
       <path d="M 12.40625 8.296875 
L 28.515625 8.296875 
L 28.515625 63.921875 
L 10.984375 60.40625 
L 10.984375 69.390625 
L 28.421875 72.90625 
L 38.28125 72.90625 
L 38.28125 8.296875 
L 54.390625 8.296875 
L 54.390625 0 
L 12.40625 0 
z
" id="DejaVuSans-49"/>
      </defs>
      <g transform="translate(129.611823 322.182437)scale(0.1 -0.1)">
       <use xlink:href="#DejaVuSans-49"/>
       <use x="63.623047" xlink:href="#DejaVuSans-48"/>
       <use x="127.246094" xlink:href="#DejaVuSans-48"/>
      </g>
     </g>
    </g>
    <g id="xtick_3">
     <g id="line2d_3">
      <g>
       <use style="stroke:#000000;stroke-width:0.8;" x="204.47842" xlink:href="#m9346365f6a" y="307.584"/>
      </g>
     </g>
     <g id="text_3">
      <!-- 200 -->
      <defs>
       <path d="M 19.1875 8.296875 
L 53.609375 8.296875 
L 53.609375 0 
L 7.328125 0 
L 7.328125 8.296875 
Q 12.9375 14.109375 22.625 23.890625 
Q 32.328125 33.6875 34.8125 36.53125 
Q 39.546875 41.84375 41.421875 45.53125 
Q 43.3125 49.21875 43.3125 52.78125 
Q 43.3125 58.59375 39.234375 62.25 
Q 35.15625 65.921875 28.609375 65.921875 
Q 23.96875 65.921875 18.8125 64.3125 
Q 13.671875 62.703125 7.8125 59.421875 
L 7.8125 69.390625 
Q 13.765625 71.78125 18.9375 73 
Q 24.125 74.21875 28.421875 74.21875 
Q 39.75 74.21875 46.484375 68.546875 
Q 53.21875 62.890625 53.21875 53.421875 
Q 53.21875 48.921875 51.53125 44.890625 
Q 49.859375 40.875 45.40625 35.40625 
Q 44.1875 33.984375 37.640625 27.21875 
Q 31.109375 20.453125 19.1875 8.296875 
z
" id="DejaVuSans-50"/>
      </defs>
      <g transform="translate(194.93467 322.182437)scale(0.1 -0.1)">
       <use xlink:href="#DejaVuSans-50"/>
       <use x="63.623047" xlink:href="#DejaVuSans-48"/>
       <use x="127.246094" xlink:href="#DejaVuSans-48"/>
      </g>
     </g>
    </g>
    <g id="xtick_4">
     <g id="line2d_4">
      <g>
       <use style="stroke:#000000;stroke-width:0.8;" x="269.801266" xlink:href="#m9346365f6a" y="307.584"/>
      </g>
     </g>
     <g id="text_4">
      <!-- 300 -->
      <defs>
       <path d="M 40.578125 39.3125 
Q 47.65625 37.796875 51.625 33 
Q 55.609375 28.21875 55.609375 21.1875 
Q 55.609375 10.40625 48.1875 4.484375 
Q 40.765625 -1.421875 27.09375 -1.421875 
Q 22.515625 -1.421875 17.65625 -0.515625 
Q 12.796875 0.390625 7.625 2.203125 
L 7.625 11.71875 
Q 11.71875 9.328125 16.59375 8.109375 
Q 21.484375 6.890625 26.8125 6.890625 
Q 36.078125 6.890625 40.9375 10.546875 
Q 45.796875 14.203125 45.796875 21.1875 
Q 45.796875 27.640625 41.28125 31.265625 
Q 36.765625 34.90625 28.71875 34.90625 
L 20.21875 34.90625 
L 20.21875 43.015625 
L 29.109375 43.015625 
Q 36.375 43.015625 40.234375 45.921875 
Q 44.09375 48.828125 44.09375 54.296875 
Q 44.09375 59.90625 40.109375 62.90625 
Q 36.140625 65.921875 28.71875 65.921875 
Q 24.65625 65.921875 20.015625 65.03125 
Q 15.375 64.15625 9.8125 62.3125 
L 9.8125 71.09375 
Q 15.4375 72.65625 20.34375 73.4375 
Q 25.25 74.21875 29.59375 74.21875 
Q 40.828125 74.21875 47.359375 69.109375 
Q 53.90625 64.015625 53.90625 55.328125 
Q 53.90625 49.265625 50.4375 45.09375 
Q 46.96875 40.921875 40.578125 39.3125 
z
" id="DejaVuSans-51"/>
      </defs>
      <g transform="translate(260.257516 322.182437)scale(0.1 -0.1)">
       <use xlink:href="#DejaVuSans-51"/>
       <use x="63.623047" xlink:href="#DejaVuSans-48"/>
       <use x="127.246094" xlink:href="#DejaVuSans-48"/>
      </g>
     </g>
    </g>
    <g id="xtick_5">
     <g id="line2d_5">
      <g>
       <use style="stroke:#000000;stroke-width:0.8;" x="335.124112" xlink:href="#m9346365f6a" y="307.584"/>
      </g>
     </g>
     <g id="text_5">
      <!-- 400 -->
      <defs>
       <path d="M 37.796875 64.3125 
L 12.890625 25.390625 
L 37.796875 25.390625 
z
M 35.203125 72.90625 
L 47.609375 72.90625 
L 47.609375 25.390625 
L 58.015625 25.390625 
L 58.015625 17.1875 
L 47.609375 17.1875 
L 47.609375 0 
L 37.796875 0 
L 37.796875 17.1875 
L 4.890625 17.1875 
L 4.890625 26.703125 
z
" id="DejaVuSans-52"/>
      </defs>
      <g transform="translate(325.580362 322.182437)scale(0.1 -0.1)">
       <use xlink:href="#DejaVuSans-52"/>
       <use x="63.623047" xlink:href="#DejaVuSans-48"/>
       <use x="127.246094" xlink:href="#DejaVuSans-48"/>
      </g>
     </g>
    </g>
    <g id="xtick_6">
     <g id="line2d_6">
      <g>
       <use style="stroke:#000000;stroke-width:0.8;" x="400.446958" xlink:href="#m9346365f6a" y="307.584"/>
      </g>
     </g>
     <g id="text_6">
      <!-- 500 -->
      <defs>
       <path d="M 10.796875 72.90625 
L 49.515625 72.90625 
L 49.515625 64.59375 
L 19.828125 64.59375 
L 19.828125 46.734375 
Q 21.96875 47.46875 24.109375 47.828125 
Q 26.265625 48.1875 28.421875 48.1875 
Q 40.625 48.1875 47.75 41.5 
Q 54.890625 34.8125 54.890625 23.390625 
Q 54.890625 11.625 47.5625 5.09375 
Q 40.234375 -1.421875 26.90625 -1.421875 
Q 22.3125 -1.421875 17.546875 -0.640625 
Q 12.796875 0.140625 7.71875 1.703125 
L 7.71875 11.625 
Q 12.109375 9.234375 16.796875 8.0625 
Q 21.484375 6.890625 26.703125 6.890625 
Q 35.15625 6.890625 40.078125 11.328125 
Q 45.015625 15.765625 45.015625 23.390625 
Q 45.015625 31 40.078125 35.4375 
Q 35.15625 39.890625 26.703125 39.890625 
Q 22.75 39.890625 18.8125 39.015625 
Q 14.890625 38.140625 10.796875 36.28125 
z
" id="DejaVuSans-53"/>
      </defs>
      <g transform="translate(390.903208 322.182437)scale(0.1 -0.1)">
       <use xlink:href="#DejaVuSans-53"/>
       <use x="63.623047" xlink:href="#DejaVuSans-48"/>
       <use x="127.246094" xlink:href="#DejaVuSans-48"/>
      </g>
     </g>
    </g>
    <g id="text_7">
     <!-- Position -->
     <defs>
      <path d="M 19.671875 64.796875 
L 19.671875 37.40625 
L 32.078125 37.40625 
Q 38.96875 37.40625 42.71875 40.96875 
Q 46.484375 44.53125 46.484375 51.125 
Q 46.484375 57.671875 42.71875 61.234375 
Q 38.96875 64.796875 32.078125 64.796875 
z
M 9.8125 72.90625 
L 32.078125 72.90625 
Q 44.34375 72.90625 50.609375 67.359375 
Q 56.890625 61.8125 56.890625 51.125 
Q 56.890625 40.328125 50.609375 34.8125 
Q 44.34375 29.296875 32.078125 29.296875 
L 19.671875 29.296875 
L 19.671875 0 
L 9.8125 0 
z
" id="DejaVuSans-80"/>
      <path d="M 30.609375 48.390625 
Q 23.390625 48.390625 19.1875 42.75 
Q 14.984375 37.109375 14.984375 27.296875 
Q 14.984375 17.484375 19.15625 11.84375 
Q 23.34375 6.203125 30.609375 6.203125 
Q 37.796875 6.203125 41.984375 11.859375 
Q 46.1875 17.53125 46.1875 27.296875 
Q 46.1875 37.015625 41.984375 42.703125 
Q 37.796875 48.390625 30.609375 48.390625 
z
M 30.609375 56 
Q 42.328125 56 49.015625 48.375 
Q 55.71875 40.765625 55.71875 27.296875 
Q 55.71875 13.875 49.015625 6.21875 
Q 42.328125 -1.421875 30.609375 -1.421875 
Q 18.84375 -1.421875 12.171875 6.21875 
Q 5.515625 13.875 5.515625 27.296875 
Q 5.515625 40.765625 12.171875 48.375 
Q 18.84375 56 30.609375 56 
z
" id="DejaVuSans-111"/>
      <path d="M 44.28125 53.078125 
L 44.28125 44.578125 
Q 40.484375 46.53125 36.375 47.5 
Q 32.28125 48.484375 27.875 48.484375 
Q 21.1875 48.484375 17.84375 46.4375 
Q 14.5 44.390625 14.5 40.28125 
Q 14.5 37.15625 16.890625 35.375 
Q 19.28125 33.59375 26.515625 31.984375 
L 29.59375 31.296875 
Q 39.15625 29.25 43.1875 25.515625 
Q 47.21875 21.78125 47.21875 15.09375 
Q 47.21875 7.46875 41.1875 3.015625 
Q 35.15625 -1.421875 24.609375 -1.421875 
Q 20.21875 -1.421875 15.453125 -0.5625 
Q 10.6875 0.296875 5.421875 2 
L 5.421875 11.28125 
Q 10.40625 8.6875 15.234375 7.390625 
Q 20.0625 6.109375 24.8125 6.109375 
Q 31.15625 6.109375 34.5625 8.28125 
Q 37.984375 10.453125 37.984375 14.40625 
Q 37.984375 18.0625 35.515625 20.015625 
Q 33.0625 21.96875 24.703125 23.78125 
L 21.578125 24.515625 
Q 13.234375 26.265625 9.515625 29.90625 
Q 5.8125 33.546875 5.8125 39.890625 
Q 5.8125 47.609375 11.28125 51.796875 
Q 16.75 56 26.8125 56 
Q 31.78125 56 36.171875 55.265625 
Q 40.578125 54.546875 44.28125 53.078125 
z
" id="DejaVuSans-115"/>
      <path d="M 9.421875 54.6875 
L 18.40625 54.6875 
L 18.40625 0 
L 9.421875 0 
z
M 9.421875 75.984375 
L 18.40625 75.984375 
L 18.40625 64.59375 
L 9.421875 64.59375 
z
" id="DejaVuSans-105"/>
      <path d="M 18.3125 70.21875 
L 18.3125 54.6875 
L 36.8125 54.6875 
L 36.8125 47.703125 
L 18.3125 47.703125 
L 18.3125 18.015625 
Q 18.3125 11.328125 20.140625 9.421875 
Q 21.96875 7.515625 27.59375 7.515625 
L 36.8125 7.515625 
L 36.8125 0 
L 27.59375 0 
Q 17.1875 0 13.234375 3.875 
Q 9.28125 7.765625 9.28125 18.015625 
L 9.28125 47.703125 
L 2.6875 47.703125 
L 2.6875 54.6875 
L 9.28125 54.6875 
L 9.28125 70.21875 
z
" id="DejaVuSans-116"/>
      <path d="M 54.890625 33.015625 
L 54.890625 0 
L 45.90625 0 
L 45.90625 32.71875 
Q 45.90625 40.484375 42.875 44.328125 
Q 39.84375 48.1875 33.796875 48.1875 
Q 26.515625 48.1875 22.3125 43.546875 
Q 18.109375 38.921875 18.109375 30.90625 
L 18.109375 0 
L 9.078125 0 
L 9.078125 54.6875 
L 18.109375 54.6875 
L 18.109375 46.1875 
Q 21.34375 51.125 25.703125 53.5625 
Q 30.078125 56 35.796875 56 
Q 45.21875 56 50.046875 50.171875 
Q 54.890625 44.34375 54.890625 33.015625 
z
" id="DejaVuSans-110"/>
     </defs>
     <g transform="translate(216.695937 335.860562)scale(0.1 -0.1)">
      <use xlink:href="#DejaVuSans-80"/>
      <use x="56.677734" xlink:href="#DejaVuSans-111"/>
      <use x="117.859375" xlink:href="#DejaVuSans-115"/>
      <use x="169.958984" xlink:href="#DejaVuSans-105"/>
      <use x="197.742188" xlink:href="#DejaVuSans-116"/>
      <use x="236.951172" xlink:href="#DejaVuSans-105"/>
      <use x="264.734375" xlink:href="#DejaVuSans-111"/>
      <use x="325.916016" xlink:href="#DejaVuSans-110"/>
     </g>
    </g>
   </g>
   <g id="matplotlib.axis_2">
    <g id="ytick_1">
     <g id="line2d_7">
      <defs>
       <path d="M 0 0 
L -3.5 0 
" id="m53baa91206" style="stroke:#000000;stroke-width:0.8;"/>
      </defs>
      <g>
       <use style="stroke:#000000;stroke-width:0.8;" x="57.6" xlink:href="#m53baa91206" y="307.584"/>
      </g>
     </g>
     <g id="text_8">
      <!-- 0 -->
      <g transform="translate(44.2375 311.383219)scale(0.1 -0.1)">
       <use xlink:href="#DejaVuSans-48"/>
      </g>
     </g>
    </g>
    <g id="ytick_2">
     <g id="line2d_8">
      <g>
       <use style="stroke:#000000;stroke-width:0.8;" x="57.6" xlink:href="#m53baa91206" y="273.19594"/>
      </g>
     </g>
     <g id="text_9">
      <!-- 100 -->
      <g transform="translate(31.5125 276.995159)scale(0.1 -0.1)">
       <use xlink:href="#DejaVuSans-49"/>
       <use x="63.623047" xlink:href="#DejaVuSans-48"/>
       <use x="127.246094" xlink:href="#DejaVuSans-48"/>
      </g>
     </g>
    </g>
    <g id="ytick_3">
     <g id="line2d_9">
      <g>
       <use style="stroke:#000000;stroke-width:0.8;" x="57.6" xlink:href="#m53baa91206" y="238.807881"/>
      </g>
     </g>
     <g id="text_10">
      <!-- 200 -->
      <g transform="translate(31.5125 242.607099)scale(0.1 -0.1)">
       <use xlink:href="#DejaVuSans-50"/>
       <use x="63.623047" xlink:href="#DejaVuSans-48"/>
       <use x="127.246094" xlink:href="#DejaVuSans-48"/>
      </g>
     </g>
    </g>
    <g id="ytick_4">
     <g id="line2d_10">
      <g>
       <use style="stroke:#000000;stroke-width:0.8;" x="57.6" xlink:href="#m53baa91206" y="204.419821"/>
      </g>
     </g>
     <g id="text_11">
      <!-- 300 -->
      <g transform="translate(31.5125 208.21904)scale(0.1 -0.1)">
       <use xlink:href="#DejaVuSans-51"/>
       <use x="63.623047" xlink:href="#DejaVuSans-48"/>
       <use x="127.246094" xlink:href="#DejaVuSans-48"/>
      </g>
     </g>
    </g>
    <g id="ytick_5">
     <g id="line2d_11">
      <g>
       <use style="stroke:#000000;stroke-width:0.8;" x="57.6" xlink:href="#m53baa91206" y="170.031761"/>
      </g>
     </g>
     <g id="text_12">
      <!-- 400 -->
      <g transform="translate(31.5125 173.83098)scale(0.1 -0.1)">
       <use xlink:href="#DejaVuSans-52"/>
       <use x="63.623047" xlink:href="#DejaVuSans-48"/>
       <use x="127.246094" xlink:href="#DejaVuSans-48"/>
      </g>
     </g>
    </g>
    <g id="ytick_6">
     <g id="line2d_12">
      <g>
       <use style="stroke:#000000;stroke-width:0.8;" x="57.6" xlink:href="#m53baa91206" y="135.643701"/>
      </g>
     </g>
     <g id="text_13">
      <!-- 500 -->
      <g transform="translate(31.5125 139.44292)scale(0.1 -0.1)">
       <use xlink:href="#DejaVuSans-53"/>
       <use x="63.623047" xlink:href="#DejaVuSans-48"/>
       <use x="127.246094" xlink:href="#DejaVuSans-48"/>
      </g>
     </g>
    </g>
    <g id="ytick_7">
     <g id="line2d_13">
      <g>
       <use style="stroke:#000000;stroke-width:0.8;" x="57.6" xlink:href="#m53baa91206" y="101.255642"/>
      </g>
     </g>
     <g id="text_14">
      <!-- 600 -->
      <defs>
       <path d="M 33.015625 40.375 
Q 26.375 40.375 22.484375 35.828125 
Q 18.609375 31.296875 18.609375 23.390625 
Q 18.609375 15.53125 22.484375 10.953125 
Q 26.375 6.390625 33.015625 6.390625 
Q 39.65625 6.390625 43.53125 10.953125 
Q 47.40625 15.53125 47.40625 23.390625 
Q 47.40625 31.296875 43.53125 35.828125 
Q 39.65625 40.375 33.015625 40.375 
z
M 52.59375 71.296875 
L 52.59375 62.3125 
Q 48.875 64.0625 45.09375 64.984375 
Q 41.3125 65.921875 37.59375 65.921875 
Q 27.828125 65.921875 22.671875 59.328125 
Q 17.53125 52.734375 16.796875 39.40625 
Q 19.671875 43.65625 24.015625 45.921875 
Q 28.375 48.1875 33.59375 48.1875 
Q 44.578125 48.1875 50.953125 41.515625 
Q 57.328125 34.859375 57.328125 23.390625 
Q 57.328125 12.15625 50.6875 5.359375 
Q 44.046875 -1.421875 33.015625 -1.421875 
Q 20.359375 -1.421875 13.671875 8.265625 
Q 6.984375 17.96875 6.984375 36.375 
Q 6.984375 53.65625 15.1875 63.9375 
Q 23.390625 74.21875 37.203125 74.21875 
Q 40.921875 74.21875 44.703125 73.484375 
Q 48.484375 72.75 52.59375 71.296875 
z
" id="DejaVuSans-54"/>
      </defs>
      <g transform="translate(31.5125 105.054861)scale(0.1 -0.1)">
       <use xlink:href="#DejaVuSans-54"/>
       <use x="63.623047" xlink:href="#DejaVuSans-48"/>
       <use x="127.246094" xlink:href="#DejaVuSans-48"/>
      </g>
     </g>
    </g>
    <g id="ytick_8">
     <g id="line2d_14">
      <g>
       <use style="stroke:#000000;stroke-width:0.8;" x="57.6" xlink:href="#m53baa91206" y="66.867582"/>
      </g>
     </g>
     <g id="text_15">
      <!-- 700 -->
      <defs>
       <path d="M 8.203125 72.90625 
L 55.078125 72.90625 
L 55.078125 68.703125 
L 28.609375 0 
L 18.3125 0 
L 43.21875 64.59375 
L 8.203125 64.59375 
z
" id="DejaVuSans-55"/>
      </defs>
      <g transform="translate(31.5125 70.666801)scale(0.1 -0.1)">
       <use xlink:href="#DejaVuSans-55"/>
       <use x="63.623047" xlink:href="#DejaVuSans-48"/>
       <use x="127.246094" xlink:href="#DejaVuSans-48"/>
      </g>
     </g>
    </g>
    <g id="text_16">
     <!-- Frequency -->
     <defs>
      <path d="M 9.8125 72.90625 
L 51.703125 72.90625 
L 51.703125 64.59375 
L 19.671875 64.59375 
L 19.671875 43.109375 
L 48.578125 43.109375 
L 48.578125 34.8125 
L 19.671875 34.8125 
L 19.671875 0 
L 9.8125 0 
z
" id="DejaVuSans-70"/>
      <path d="M 41.109375 46.296875 
Q 39.59375 47.171875 37.8125 47.578125 
Q 36.03125 48 33.890625 48 
Q 26.265625 48 22.1875 43.046875 
Q 18.109375 38.09375 18.109375 28.8125 
L 18.109375 0 
L 9.078125 0 
L 9.078125 54.6875 
L 18.109375 54.6875 
L 18.109375 46.1875 
Q 20.953125 51.171875 25.484375 53.578125 
Q 30.03125 56 36.53125 56 
Q 37.453125 56 38.578125 55.875 
Q 39.703125 55.765625 41.0625 55.515625 
z
" id="DejaVuSans-114"/>
      <path d="M 56.203125 29.59375 
L 56.203125 25.203125 
L 14.890625 25.203125 
Q 15.484375 15.921875 20.484375 11.0625 
Q 25.484375 6.203125 34.421875 6.203125 
Q 39.59375 6.203125 44.453125 7.46875 
Q 49.3125 8.734375 54.109375 11.28125 
L 54.109375 2.78125 
Q 49.265625 0.734375 44.1875 -0.34375 
Q 39.109375 -1.421875 33.890625 -1.421875 
Q 20.796875 -1.421875 13.15625 6.1875 
Q 5.515625 13.8125 5.515625 26.8125 
Q 5.515625 40.234375 12.765625 48.109375 
Q 20.015625 56 32.328125 56 
Q 43.359375 56 49.78125 48.890625 
Q 56.203125 41.796875 56.203125 29.59375 
z
M 47.21875 32.234375 
Q 47.125 39.59375 43.09375 43.984375 
Q 39.0625 48.390625 32.421875 48.390625 
Q 24.90625 48.390625 20.390625 44.140625 
Q 15.875 39.890625 15.1875 32.171875 
z
" id="DejaVuSans-101"/>
      <path d="M 14.796875 27.296875 
Q 14.796875 17.390625 18.875 11.75 
Q 22.953125 6.109375 30.078125 6.109375 
Q 37.203125 6.109375 41.296875 11.75 
Q 45.40625 17.390625 45.40625 27.296875 
Q 45.40625 37.203125 41.296875 42.84375 
Q 37.203125 48.484375 30.078125 48.484375 
Q 22.953125 48.484375 18.875 42.84375 
Q 14.796875 37.203125 14.796875 27.296875 
z
M 45.40625 8.203125 
Q 42.578125 3.328125 38.25 0.953125 
Q 33.9375 -1.421875 27.875 -1.421875 
Q 17.96875 -1.421875 11.734375 6.484375 
Q 5.515625 14.40625 5.515625 27.296875 
Q 5.515625 40.1875 11.734375 48.09375 
Q 17.96875 56 27.875 56 
Q 33.9375 56 38.25 53.625 
Q 42.578125 51.265625 45.40625 46.390625 
L 45.40625 54.6875 
L 54.390625 54.6875 
L 54.390625 -20.796875 
L 45.40625 -20.796875 
z
" id="DejaVuSans-113"/>
      <path d="M 8.5 21.578125 
L 8.5 54.6875 
L 17.484375 54.6875 
L 17.484375 21.921875 
Q 17.484375 14.15625 20.5 10.265625 
Q 23.53125 6.390625 29.59375 6.390625 
Q 36.859375 6.390625 41.078125 11.03125 
Q 45.3125 15.671875 45.3125 23.6875 
L 45.3125 54.6875 
L 54.296875 54.6875 
L 54.296875 0 
L 45.3125 0 
L 45.3125 8.40625 
Q 42.046875 3.421875 37.71875 1 
Q 33.40625 -1.421875 27.6875 -1.421875 
Q 18.265625 -1.421875 13.375 4.4375 
Q 8.5 10.296875 8.5 21.578125 
z
M 31.109375 56 
z
" id="DejaVuSans-117"/>
      <path d="M 48.78125 52.59375 
L 48.78125 44.1875 
Q 44.96875 46.296875 41.140625 47.34375 
Q 37.3125 48.390625 33.40625 48.390625 
Q 24.65625 48.390625 19.8125 42.84375 
Q 14.984375 37.3125 14.984375 27.296875 
Q 14.984375 17.28125 19.8125 11.734375 
Q 24.65625 6.203125 33.40625 6.203125 
Q 37.3125 6.203125 41.140625 7.25 
Q 44.96875 8.296875 48.78125 10.40625 
L 48.78125 2.09375 
Q 45.015625 0.34375 40.984375 -0.53125 
Q 36.96875 -1.421875 32.421875 -1.421875 
Q 20.0625 -1.421875 12.78125 6.34375 
Q 5.515625 14.109375 5.515625 27.296875 
Q 5.515625 40.671875 12.859375 48.328125 
Q 20.21875 56 33.015625 56 
Q 37.15625 56 41.109375 55.140625 
Q 45.0625 54.296875 48.78125 52.59375 
z
" id="DejaVuSans-99"/>
      <path d="M 32.171875 -5.078125 
Q 28.375 -14.84375 24.75 -17.8125 
Q 21.140625 -20.796875 15.09375 -20.796875 
L 7.90625 -20.796875 
L 7.90625 -13.28125 
L 13.1875 -13.28125 
Q 16.890625 -13.28125 18.9375 -11.515625 
Q 21 -9.765625 23.484375 -3.21875 
L 25.09375 0.875 
L 2.984375 54.6875 
L 12.5 54.6875 
L 29.59375 11.921875 
L 46.6875 54.6875 
L 56.203125 54.6875 
z
" id="DejaVuSans-121"/>
     </defs>
     <g transform="translate(25.432812 200.357687)rotate(-90)scale(0.1 -0.1)">
      <use xlink:href="#DejaVuSans-70"/>
      <use x="50.269531" xlink:href="#DejaVuSans-114"/>
      <use x="89.132812" xlink:href="#DejaVuSans-101"/>
      <use x="150.65625" xlink:href="#DejaVuSans-113"/>
      <use x="214.132812" xlink:href="#DejaVuSans-117"/>
      <use x="277.511719" xlink:href="#DejaVuSans-101"/>
      <use x="339.035156" xlink:href="#DejaVuSans-110"/>
      <use x="402.414062" xlink:href="#DejaVuSans-99"/>
      <use x="457.394531" xlink:href="#DejaVuSans-121"/>
     </g>
    </g>
   </g>
   <g id="patch_263">
    <path d="M 57.6 307.584 
L 57.6 41.472 
" style="fill:none;stroke:#000000;stroke-linecap:square;stroke-linejoin:miter;stroke-width:0.8;"/>
   </g>
   <g id="patch_264">
    <path d="M 414.72 307.584 
L 414.72 41.472 
" style="fill:none;stroke:#000000;stroke-linecap:square;stroke-linejoin:miter;stroke-width:0.8;"/>
   </g>
   <g id="patch_265">
    <path d="M 57.6 307.584 
L 414.72 307.584 
" style="fill:none;stroke:#000000;stroke-linecap:square;stroke-linejoin:miter;stroke-width:0.8;"/>
   </g>
   <g id="patch_266">
    <path d="M 57.6 41.472 
L 414.72 41.472 
" style="fill:none;stroke:#000000;stroke-linecap:square;stroke-linejoin:miter;stroke-width:0.8;"/>
   </g>
   <g id="text_17">
    <!-- histogram of position indices. -->
    <defs>
     <path d="M 54.890625 33.015625 
L 54.890625 0 
L 45.90625 0 
L 45.90625 32.71875 
Q 45.90625 40.484375 42.875 44.328125 
Q 39.84375 48.1875 33.796875 48.1875 
Q 26.515625 48.1875 22.3125 43.546875 
Q 18.109375 38.921875 18.109375 30.90625 
L 18.109375 0 
L 9.078125 0 
L 9.078125 75.984375 
L 18.109375 75.984375 
L 18.109375 46.1875 
Q 21.34375 51.125 25.703125 53.5625 
Q 30.078125 56 35.796875 56 
Q 45.21875 56 50.046875 50.171875 
Q 54.890625 44.34375 54.890625 33.015625 
z
" id="DejaVuSans-104"/>
     <path d="M 45.40625 27.984375 
Q 45.40625 37.75 41.375 43.109375 
Q 37.359375 48.484375 30.078125 48.484375 
Q 22.859375 48.484375 18.828125 43.109375 
Q 14.796875 37.75 14.796875 27.984375 
Q 14.796875 18.265625 18.828125 12.890625 
Q 22.859375 7.515625 30.078125 7.515625 
Q 37.359375 7.515625 41.375 12.890625 
Q 45.40625 18.265625 45.40625 27.984375 
z
M 54.390625 6.78125 
Q 54.390625 -7.171875 48.1875 -13.984375 
Q 42 -20.796875 29.203125 -20.796875 
Q 24.46875 -20.796875 20.265625 -20.09375 
Q 16.0625 -19.390625 12.109375 -17.921875 
L 12.109375 -9.1875 
Q 16.0625 -11.328125 19.921875 -12.34375 
Q 23.78125 -13.375 27.78125 -13.375 
Q 36.625 -13.375 41.015625 -8.765625 
Q 45.40625 -4.15625 45.40625 5.171875 
L 45.40625 9.625 
Q 42.625 4.78125 38.28125 2.390625 
Q 33.9375 0 27.875 0 
Q 17.828125 0 11.671875 7.65625 
Q 5.515625 15.328125 5.515625 27.984375 
Q 5.515625 40.671875 11.671875 48.328125 
Q 17.828125 56 27.875 56 
Q 33.9375 56 38.28125 53.609375 
Q 42.625 51.21875 45.40625 46.390625 
L 45.40625 54.6875 
L 54.390625 54.6875 
z
" id="DejaVuSans-103"/>
     <path d="M 34.28125 27.484375 
Q 23.390625 27.484375 19.1875 25 
Q 14.984375 22.515625 14.984375 16.5 
Q 14.984375 11.71875 18.140625 8.90625 
Q 21.296875 6.109375 26.703125 6.109375 
Q 34.1875 6.109375 38.703125 11.40625 
Q 43.21875 16.703125 43.21875 25.484375 
L 43.21875 27.484375 
z
M 52.203125 31.203125 
L 52.203125 0 
L 43.21875 0 
L 43.21875 8.296875 
Q 40.140625 3.328125 35.546875 0.953125 
Q 30.953125 -1.421875 24.3125 -1.421875 
Q 15.921875 -1.421875 10.953125 3.296875 
Q 6 8.015625 6 15.921875 
Q 6 25.140625 12.171875 29.828125 
Q 18.359375 34.515625 30.609375 34.515625 
L 43.21875 34.515625 
L 43.21875 35.40625 
Q 43.21875 41.609375 39.140625 45 
Q 35.0625 48.390625 27.6875 48.390625 
Q 23 48.390625 18.546875 47.265625 
Q 14.109375 46.140625 10.015625 43.890625 
L 10.015625 52.203125 
Q 14.9375 54.109375 19.578125 55.046875 
Q 24.21875 56 28.609375 56 
Q 40.484375 56 46.34375 49.84375 
Q 52.203125 43.703125 52.203125 31.203125 
z
" id="DejaVuSans-97"/>
     <path d="M 52 44.1875 
Q 55.375 50.25 60.0625 53.125 
Q 64.75 56 71.09375 56 
Q 79.640625 56 84.28125 50.015625 
Q 88.921875 44.046875 88.921875 33.015625 
L 88.921875 0 
L 79.890625 0 
L 79.890625 32.71875 
Q 79.890625 40.578125 77.09375 44.375 
Q 74.3125 48.1875 68.609375 48.1875 
Q 61.625 48.1875 57.5625 43.546875 
Q 53.515625 38.921875 53.515625 30.90625 
L 53.515625 0 
L 44.484375 0 
L 44.484375 32.71875 
Q 44.484375 40.625 41.703125 44.40625 
Q 38.921875 48.1875 33.109375 48.1875 
Q 26.21875 48.1875 22.15625 43.53125 
Q 18.109375 38.875 18.109375 30.90625 
L 18.109375 0 
L 9.078125 0 
L 9.078125 54.6875 
L 18.109375 54.6875 
L 18.109375 46.1875 
Q 21.1875 51.21875 25.484375 53.609375 
Q 29.78125 56 35.6875 56 
Q 41.65625 56 45.828125 52.96875 
Q 50 49.953125 52 44.1875 
z
" id="DejaVuSans-109"/>
     <path id="DejaVuSans-32"/>
     <path d="M 37.109375 75.984375 
L 37.109375 68.5 
L 28.515625 68.5 
Q 23.6875 68.5 21.796875 66.546875 
Q 19.921875 64.59375 19.921875 59.515625 
L 19.921875 54.6875 
L 34.71875 54.6875 
L 34.71875 47.703125 
L 19.921875 47.703125 
L 19.921875 0 
L 10.890625 0 
L 10.890625 47.703125 
L 2.296875 47.703125 
L 2.296875 54.6875 
L 10.890625 54.6875 
L 10.890625 58.5 
Q 10.890625 67.625 15.140625 71.796875 
Q 19.390625 75.984375 28.609375 75.984375 
z
" id="DejaVuSans-102"/>
     <path d="M 18.109375 8.203125 
L 18.109375 -20.796875 
L 9.078125 -20.796875 
L 9.078125 54.6875 
L 18.109375 54.6875 
L 18.109375 46.390625 
Q 20.953125 51.265625 25.265625 53.625 
Q 29.59375 56 35.59375 56 
Q 45.5625 56 51.78125 48.09375 
Q 58.015625 40.1875 58.015625 27.296875 
Q 58.015625 14.40625 51.78125 6.484375 
Q 45.5625 -1.421875 35.59375 -1.421875 
Q 29.59375 -1.421875 25.265625 0.953125 
Q 20.953125 3.328125 18.109375 8.203125 
z
M 48.6875 27.296875 
Q 48.6875 37.203125 44.609375 42.84375 
Q 40.53125 48.484375 33.40625 48.484375 
Q 26.265625 48.484375 22.1875 42.84375 
Q 18.109375 37.203125 18.109375 27.296875 
Q 18.109375 17.390625 22.1875 11.75 
Q 26.265625 6.109375 33.40625 6.109375 
Q 40.53125 6.109375 44.609375 11.75 
Q 48.6875 17.390625 48.6875 27.296875 
z
" id="DejaVuSans-112"/>
     <path d="M 45.40625 46.390625 
L 45.40625 75.984375 
L 54.390625 75.984375 
L 54.390625 0 
L 45.40625 0 
L 45.40625 8.203125 
Q 42.578125 3.328125 38.25 0.953125 
Q 33.9375 -1.421875 27.875 -1.421875 
Q 17.96875 -1.421875 11.734375 6.484375 
Q 5.515625 14.40625 5.515625 27.296875 
Q 5.515625 40.1875 11.734375 48.09375 
Q 17.96875 56 27.875 56 
Q 33.9375 56 38.25 53.625 
Q 42.578125 51.265625 45.40625 46.390625 
z
M 14.796875 27.296875 
Q 14.796875 17.390625 18.875 11.75 
Q 22.953125 6.109375 30.078125 6.109375 
Q 37.203125 6.109375 41.296875 11.75 
Q 45.40625 17.390625 45.40625 27.296875 
Q 45.40625 37.203125 41.296875 42.84375 
Q 37.203125 48.484375 30.078125 48.484375 
Q 22.953125 48.484375 18.875 42.84375 
Q 14.796875 37.203125 14.796875 27.296875 
z
" id="DejaVuSans-100"/>
     <path d="M 10.6875 12.40625 
L 21 12.40625 
L 21 0 
L 10.6875 0 
z
" id="DejaVuSans-46"/>
    </defs>
    <g transform="translate(147.50625 35.472)scale(0.12 -0.12)">
     <use xlink:href="#DejaVuSans-104"/>
     <use x="63.378906" xlink:href="#DejaVuSans-105"/>
     <use x="91.162109" xlink:href="#DejaVuSans-115"/>
     <use x="143.261719" xlink:href="#DejaVuSans-116"/>
     <use x="182.470703" xlink:href="#DejaVuSans-111"/>
     <use x="243.652344" xlink:href="#DejaVuSans-103"/>
     <use x="307.128906" xlink:href="#DejaVuSans-114"/>
     <use x="348.242188" xlink:href="#DejaVuSans-97"/>
     <use x="409.521484" xlink:href="#DejaVuSans-109"/>
     <use x="506.933594" xlink:href="#DejaVuSans-32"/>
     <use x="538.720703" xlink:href="#DejaVuSans-111"/>
     <use x="599.902344" xlink:href="#DejaVuSans-102"/>
     <use x="635.107422" xlink:href="#DejaVuSans-32"/>
     <use x="666.894531" xlink:href="#DejaVuSans-112"/>
     <use x="730.371094" xlink:href="#DejaVuSans-111"/>
     <use x="791.552734" xlink:href="#DejaVuSans-115"/>
     <use x="843.652344" xlink:href="#DejaVuSans-105"/>
     <use x="871.435547" xlink:href="#DejaVuSans-116"/>
     <use x="910.644531" xlink:href="#DejaVuSans-105"/>
     <use x="938.427734" xlink:href="#DejaVuSans-111"/>
     <use x="999.609375" xlink:href="#DejaVuSans-110"/>
     <use x="1062.988281" xlink:href="#DejaVuSans-32"/>
     <use x="1094.775391" xlink:href="#DejaVuSans-105"/>
     <use x="1122.558594" xlink:href="#DejaVuSans-110"/>
     <use x="1185.9375" xlink:href="#DejaVuSans-100"/>
     <use x="1249.414062" xlink:href="#DejaVuSans-105"/>
     <use x="1277.197266" xlink:href="#DejaVuSans-99"/>
     <use x="1332.177734" xlink:href="#DejaVuSans-101"/>
     <use x="1393.701172" xlink:href="#DejaVuSans-115"/>
     <use x="1445.800781" xlink:href="#DejaVuSans-46"/>
    </g>
   </g>
  </g>
 </g>
 <defs>
  <clipPath id="p50b1fed92d">
   <rect height="266.112" width="357.12" x="57.6" y="41.472"/>
  </clipPath>
 </defs>
</svg>
