<?xml version="1.0" encoding="utf-8" standalone="no"?>
<!DOCTYPE svg PUBLIC "-//W3C//DTD SVG 1.1//EN"
  "http://www.w3.org/Graphics/SVG/1.1/DTD/svg11.dtd">
<!-- Created with matplotlib (https://matplotlib.org/) -->
<svg height="345.6pt" version="1.1" viewBox="0 0 460.8 345.6" width="460.8pt" xmlns="http://www.w3.org/2000/svg" xmlns:xlink="http://www.w3.org/1999/xlink">
 <defs>
  <style type="text/css">
*{stroke-linecap:butt;stroke-linejoin:round;}
  </style>
 </defs>
 <g id="figure_1">
  <g id="patch_1">
   <path d="M 0 345.6 
L 460.8 345.6 
L 460.8 0 
L 0 0 
z
" style="fill:#ffffff;"/>
  </g>
  <g id="axes_1">
   <g id="patch_2">
    <path d="M 57.6 307.584 
L 414.72 307.584 
L 414.72 41.472 
L 57.6 41.472 
z
" style="fill:#ffffff;"/>
   </g>
   <g id="patch_3">
    <path clip-path="url(#pbfc56c05d5)" d="M 73.832727 307.584 
L 74.69905 307.584 
L 74.69905 241.6896 
L 73.832727 241.6896 
z
" style="fill:#1f77b4;"/>
   </g>
   <g id="patch_4">
    <path clip-path="url(#pbfc56c05d5)" d="M 74.915631 307.584 
L 75.781954 307.584 
L 75.781954 224.45568 
L 74.915631 224.45568 
z
" style="fill:#1f77b4;"/>
   </g>
   <g id="patch_5">
    <path clip-path="url(#pbfc56c05d5)" d="M 75.998535 307.584 
L 76.864858 307.584 
L 76.864858 276.15744 
L 75.998535 276.15744 
z
" style="fill:#1f77b4;"/>
   </g>
   <g id="patch_6">
    <path clip-path="url(#pbfc56c05d5)" d="M 77.081439 307.584 
L 77.947762 307.584 
L 77.947762 274.12992 
L 77.081439 274.12992 
z
" style="fill:#1f77b4;"/>
   </g>
   <g id="patch_7">
    <path clip-path="url(#pbfc56c05d5)" d="M 78.164342 307.584 
L 79.030665 307.584 
L 79.030665 225.46944 
L 78.164342 225.46944 
z
" style="fill:#1f77b4;"/>
   </g>
   <g id="patch_8">
    <path clip-path="url(#pbfc56c05d5)" d="M 79.247246 307.584 
L 80.113569 307.584 
L 80.113569 280.21248 
L 79.247246 280.21248 
z
" style="fill:#1f77b4;"/>
   </g>
   <g id="patch_9">
    <path clip-path="url(#pbfc56c05d5)" d="M 80.33015 307.584 
L 81.196473 307.584 
L 81.196473 187.96032 
L 80.33015 187.96032 
z
" style="fill:#1f77b4;"/>
   </g>
   <g id="patch_10">
    <path clip-path="url(#pbfc56c05d5)" d="M 81.413054 307.584 
L 82.279377 307.584 
L 82.279377 121.05216 
L 81.413054 121.05216 
z
" style="fill:#1f77b4;"/>
   </g>
   <g id="patch_11">
    <path clip-path="url(#pbfc56c05d5)" d="M 82.495957 307.584 
L 83.36228 307.584 
L 83.36228 201.1392 
L 82.495957 201.1392 
z
" style="fill:#1f77b4;"/>
   </g>
   <g id="patch_12">
    <path clip-path="url(#pbfc56c05d5)" d="M 83.578861 307.584 
L 84.445184 307.584 
L 84.445184 78.47424 
L 83.578861 78.47424 
z
" style="fill:#1f77b4;"/>
   </g>
   <g id="patch_13">
    <path clip-path="url(#pbfc56c05d5)" d="M 84.661765 307.584 
L 85.528088 307.584 
L 85.528088 235.60704 
L 84.661765 235.60704 
z
" style="fill:#1f77b4;"/>
   </g>
   <g id="patch_14">
    <path clip-path="url(#pbfc56c05d5)" d="M 85.744669 307.584 
L 86.610992 307.584 
L 86.610992 295.41888 
L 85.744669 295.41888 
z
" style="fill:#1f77b4;"/>
   </g>
   <g id="patch_15">
    <path clip-path="url(#pbfc56c05d5)" d="M 86.827572 307.584 
L 87.693895 307.584 
L 87.693895 163.63008 
L 86.827572 163.63008 
z
" style="fill:#1f77b4;"/>
   </g>
   <g id="patch_16">
    <path clip-path="url(#pbfc56c05d5)" d="M 87.910476 307.584 
L 88.776799 307.584 
L 88.776799 280.21248 
L 87.910476 280.21248 
z
" style="fill:#1f77b4;"/>
   </g>
   <g id="patch_17">
    <path clip-path="url(#pbfc56c05d5)" d="M 88.99338 307.584 
L 89.859703 307.584 
L 89.859703 240.67584 
L 88.99338 240.67584 
z
" style="fill:#1f77b4;"/>
   </g>
   <g id="patch_18">
    <path clip-path="url(#pbfc56c05d5)" d="M 90.076284 307.584 
L 90.942607 307.584 
L 90.942607 275.14368 
L 90.076284 275.14368 
z
" style="fill:#1f77b4;"/>
   </g>
   <g id="patch_19">
    <path clip-path="url(#pbfc56c05d5)" d="M 91.159187 307.584 
L 92.02551 307.584 
L 92.02551 256.896 
L 91.159187 256.896 
z
" style="fill:#1f77b4;"/>
   </g>
   <g id="patch_20">
    <path clip-path="url(#pbfc56c05d5)" d="M 92.242091 307.584 
L 93.108414 307.584 
L 93.108414 261.9648 
L 92.242091 261.9648 
z
" style="fill:#1f77b4;"/>
   </g>
   <g id="patch_21">
    <path clip-path="url(#pbfc56c05d5)" d="M 93.324995 307.584 
L 94.191318 307.584 
L 94.191318 223.44192 
L 93.324995 223.44192 
z
" style="fill:#1f77b4;"/>
   </g>
   <g id="patch_22">
    <path clip-path="url(#pbfc56c05d5)" d="M 94.407899 307.584 
L 95.274222 307.584 
L 95.274222 140.3136 
L 94.407899 140.3136 
z
" style="fill:#1f77b4;"/>
   </g>
   <g id="patch_23">
    <path clip-path="url(#pbfc56c05d5)" d="M 95.490802 307.584 
L 96.357125 307.584 
L 96.357125 209.24928 
L 95.490802 209.24928 
z
" style="fill:#1f77b4;"/>
   </g>
   <g id="patch_24">
    <path clip-path="url(#pbfc56c05d5)" d="M 96.573706 307.584 
L 97.440029 307.584 
L 97.440029 294.40512 
L 96.573706 294.40512 
z
" style="fill:#1f77b4;"/>
   </g>
   <g id="patch_25">
    <path clip-path="url(#pbfc56c05d5)" d="M 97.65661 307.584 
L 98.522933 307.584 
L 98.522933 286.29504 
L 97.65661 286.29504 
z
" style="fill:#1f77b4;"/>
   </g>
   <g id="patch_26">
    <path clip-path="url(#pbfc56c05d5)" d="M 98.739514 307.584 
L 99.605837 307.584 
L 99.605837 233.57952 
L 98.739514 233.57952 
z
" style="fill:#1f77b4;"/>
   </g>
   <g id="patch_27">
    <path clip-path="url(#pbfc56c05d5)" d="M 99.822417 307.584 
L 100.68874 307.584 
L 100.68874 203.16672 
L 99.822417 203.16672 
z
" style="fill:#1f77b4;"/>
   </g>
   <g id="patch_28">
    <path clip-path="url(#pbfc56c05d5)" d="M 100.905321 307.584 
L 101.771644 307.584 
L 101.771644 234.59328 
L 100.905321 234.59328 
z
" style="fill:#1f77b4;"/>
   </g>
   <g id="patch_29">
    <path clip-path="url(#pbfc56c05d5)" d="M 101.988225 307.584 
L 102.854548 307.584 
L 102.854548 260.95104 
L 101.988225 260.95104 
z
" style="fill:#1f77b4;"/>
   </g>
   <g id="patch_30">
    <path clip-path="url(#pbfc56c05d5)" d="M 103.071129 307.584 
L 103.937452 307.584 
L 103.937452 189.98784 
L 103.071129 189.98784 
z
" style="fill:#1f77b4;"/>
   </g>
   <g id="patch_31">
    <path clip-path="url(#pbfc56c05d5)" d="M 104.154032 307.584 
L 105.020355 307.584 
L 105.020355 297.4464 
L 104.154032 297.4464 
z
" style="fill:#1f77b4;"/>
   </g>
   <g id="patch_32">
    <path clip-path="url(#pbfc56c05d5)" d="M 105.236936 307.584 
L 106.103259 307.584 
L 106.103259 230.53824 
L 105.236936 230.53824 
z
" style="fill:#1f77b4;"/>
   </g>
   <g id="patch_33">
    <path clip-path="url(#pbfc56c05d5)" d="M 106.31984 307.584 
L 107.186163 307.584 
L 107.186163 245.74464 
L 106.31984 245.74464 
z
" style="fill:#1f77b4;"/>
   </g>
   <g id="patch_34">
    <path clip-path="url(#pbfc56c05d5)" d="M 107.402744 307.584 
L 108.269067 307.584 
L 108.269067 207.22176 
L 107.402744 207.22176 
z
" style="fill:#1f77b4;"/>
   </g>
   <g id="patch_35">
    <path clip-path="url(#pbfc56c05d5)" d="M 108.485647 307.584 
L 109.35197 307.584 
L 109.35197 250.81344 
L 108.485647 250.81344 
z
" style="fill:#1f77b4;"/>
   </g>
   <g id="patch_36">
    <path clip-path="url(#pbfc56c05d5)" d="M 109.568551 307.584 
L 110.434874 307.584 
L 110.434874 168.69888 
L 109.568551 168.69888 
z
" style="fill:#1f77b4;"/>
   </g>
   <g id="patch_37">
    <path clip-path="url(#pbfc56c05d5)" d="M 110.651455 307.584 
L 111.517778 307.584 
L 111.517778 276.15744 
L 110.651455 276.15744 
z
" style="fill:#1f77b4;"/>
   </g>
   <g id="patch_38">
    <path clip-path="url(#pbfc56c05d5)" d="M 111.734359 307.584 
L 112.600682 307.584 
L 112.600682 275.14368 
L 111.734359 275.14368 
z
" style="fill:#1f77b4;"/>
   </g>
   <g id="patch_39">
    <path clip-path="url(#pbfc56c05d5)" d="M 112.817262 307.584 
L 113.683585 307.584 
L 113.683585 285.28128 
L 112.817262 285.28128 
z
" style="fill:#1f77b4;"/>
   </g>
   <g id="patch_40">
    <path clip-path="url(#pbfc56c05d5)" d="M 113.900166 307.584 
L 114.766489 307.584 
L 114.766489 225.46944 
L 113.900166 225.46944 
z
" style="fill:#1f77b4;"/>
   </g>
   <g id="patch_41">
    <path clip-path="url(#pbfc56c05d5)" d="M 114.98307 307.584 
L 115.849393 307.584 
L 115.849393 263.99232 
L 114.98307 263.99232 
z
" style="fill:#1f77b4;"/>
   </g>
   <g id="patch_42">
    <path clip-path="url(#pbfc56c05d5)" d="M 116.065974 307.584 
L 116.932297 307.584 
L 116.932297 196.0704 
L 116.065974 196.0704 
z
" style="fill:#1f77b4;"/>
   </g>
   <g id="patch_43">
    <path clip-path="url(#pbfc56c05d5)" d="M 117.148877 307.584 
L 118.0152 307.584 
L 118.0152 287.3088 
L 117.148877 287.3088 
z
" style="fill:#1f77b4;"/>
   </g>
   <g id="patch_44">
    <path clip-path="url(#pbfc56c05d5)" d="M 118.231781 307.584 
L 119.098104 307.584 
L 119.098104 290.35008 
L 118.231781 290.35008 
z
" style="fill:#1f77b4;"/>
   </g>
   <g id="patch_45">
    <path clip-path="url(#pbfc56c05d5)" d="M 119.314685 307.584 
L 120.181008 307.584 
L 120.181008 228.51072 
L 119.314685 228.51072 
z
" style="fill:#1f77b4;"/>
   </g>
   <g id="patch_46">
    <path clip-path="url(#pbfc56c05d5)" d="M 120.397589 307.584 
L 121.263912 307.584 
L 121.263912 282.24 
L 120.397589 282.24 
z
" style="fill:#1f77b4;"/>
   </g>
   <g id="patch_47">
    <path clip-path="url(#pbfc56c05d5)" d="M 121.480492 307.584 
L 122.346815 307.584 
L 122.346815 241.6896 
L 121.480492 241.6896 
z
" style="fill:#1f77b4;"/>
   </g>
   <g id="patch_48">
    <path clip-path="url(#pbfc56c05d5)" d="M 122.563396 307.584 
L 123.429719 307.584 
L 123.429719 247.77216 
L 122.563396 247.77216 
z
" style="fill:#1f77b4;"/>
   </g>
   <g id="patch_49">
    <path clip-path="url(#pbfc56c05d5)" d="M 123.6463 307.584 
L 124.512623 307.584 
L 124.512623 284.26752 
L 123.6463 284.26752 
z
" style="fill:#1f77b4;"/>
   </g>
   <g id="patch_50">
    <path clip-path="url(#pbfc56c05d5)" d="M 124.729204 307.584 
L 125.595527 307.584 
L 125.595527 173.76768 
L 124.729204 173.76768 
z
" style="fill:#1f77b4;"/>
   </g>
   <g id="patch_51">
    <path clip-path="url(#pbfc56c05d5)" d="M 125.812107 307.584 
L 126.67843 307.584 
L 126.67843 280.21248 
L 125.812107 280.21248 
z
" style="fill:#1f77b4;"/>
   </g>
   <g id="patch_52">
    <path clip-path="url(#pbfc56c05d5)" d="M 126.895011 307.584 
L 127.761334 307.584 
L 127.761334 283.25376 
L 126.895011 283.25376 
z
" style="fill:#1f77b4;"/>
   </g>
   <g id="patch_53">
    <path clip-path="url(#pbfc56c05d5)" d="M 127.977915 307.584 
L 128.844238 307.584 
L 128.844238 202.15296 
L 127.977915 202.15296 
z
" style="fill:#1f77b4;"/>
   </g>
   <g id="patch_54">
    <path clip-path="url(#pbfc56c05d5)" d="M 129.060819 307.584 
L 129.927142 307.584 
L 129.927142 168.69888 
L 129.060819 168.69888 
z
" style="fill:#1f77b4;"/>
   </g>
   <g id="patch_55">
    <path clip-path="url(#pbfc56c05d5)" d="M 130.143722 307.584 
L 131.010045 307.584 
L 131.010045 247.77216 
L 130.143722 247.77216 
z
" style="fill:#1f77b4;"/>
   </g>
   <g id="patch_56">
    <path clip-path="url(#pbfc56c05d5)" d="M 131.226626 307.584 
L 132.092949 307.584 
L 132.092949 298.46016 
L 131.226626 298.46016 
z
" style="fill:#1f77b4;"/>
   </g>
   <g id="patch_57">
    <path clip-path="url(#pbfc56c05d5)" d="M 132.30953 307.584 
L 133.175853 307.584 
L 133.175853 213.30432 
L 132.30953 213.30432 
z
" style="fill:#1f77b4;"/>
   </g>
   <g id="patch_58">
    <path clip-path="url(#pbfc56c05d5)" d="M 133.392434 307.584 
L 134.258757 307.584 
L 134.258757 296.43264 
L 133.392434 296.43264 
z
" style="fill:#1f77b4;"/>
   </g>
   <g id="patch_59">
    <path clip-path="url(#pbfc56c05d5)" d="M 134.475337 307.584 
L 135.341661 307.584 
L 135.341661 156.53376 
L 134.475337 156.53376 
z
" style="fill:#1f77b4;"/>
   </g>
   <g id="patch_60">
    <path clip-path="url(#pbfc56c05d5)" d="M 135.558241 307.584 
L 136.424564 307.584 
L 136.424564 273.11616 
L 135.558241 273.11616 
z
" style="fill:#1f77b4;"/>
   </g>
   <g id="patch_61">
    <path clip-path="url(#pbfc56c05d5)" d="M 136.641145 307.584 
L 137.507468 307.584 
L 137.507468 236.6208 
L 136.641145 236.6208 
z
" style="fill:#1f77b4;"/>
   </g>
   <g id="patch_62">
    <path clip-path="url(#pbfc56c05d5)" d="M 137.724049 307.584 
L 138.590372 307.584 
L 138.590372 111.92832 
L 137.724049 111.92832 
z
" style="fill:#1f77b4;"/>
   </g>
   <g id="patch_63">
    <path clip-path="url(#pbfc56c05d5)" d="M 138.806953 307.584 
L 139.673276 307.584 
L 139.673276 235.60704 
L 138.806953 235.60704 
z
" style="fill:#1f77b4;"/>
   </g>
   <g id="patch_64">
    <path clip-path="url(#pbfc56c05d5)" d="M 139.889856 307.584 
L 140.756179 307.584 
L 140.756179 248.78592 
L 139.889856 248.78592 
z
" style="fill:#1f77b4;"/>
   </g>
   <g id="patch_65">
    <path clip-path="url(#pbfc56c05d5)" d="M 140.97276 307.584 
L 141.839083 307.584 
L 141.839083 272.1024 
L 140.97276 272.1024 
z
" style="fill:#1f77b4;"/>
   </g>
   <g id="patch_66">
    <path clip-path="url(#pbfc56c05d5)" d="M 142.055664 307.584 
L 142.921987 307.584 
L 142.921987 285.28128 
L 142.055664 285.28128 
z
" style="fill:#1f77b4;"/>
   </g>
   <g id="patch_67">
    <path clip-path="url(#pbfc56c05d5)" d="M 143.138568 307.584 
L 144.004891 307.584 
L 144.004891 260.95104 
L 143.138568 260.95104 
z
" style="fill:#1f77b4;"/>
   </g>
   <g id="patch_68">
    <path clip-path="url(#pbfc56c05d5)" d="M 144.221471 307.584 
L 145.087794 307.584 
L 145.087794 262.97856 
L 144.221471 262.97856 
z
" style="fill:#1f77b4;"/>
   </g>
   <g id="patch_69">
    <path clip-path="url(#pbfc56c05d5)" d="M 145.304375 307.584 
L 146.170698 307.584 
L 146.170698 251.8272 
L 145.304375 251.8272 
z
" style="fill:#1f77b4;"/>
   </g>
   <g id="patch_70">
    <path clip-path="url(#pbfc56c05d5)" d="M 146.387279 307.584 
L 147.253602 307.584 
L 147.253602 249.79968 
L 146.387279 249.79968 
z
" style="fill:#1f77b4;"/>
   </g>
   <g id="patch_71">
    <path clip-path="url(#pbfc56c05d5)" d="M 147.470183 307.584 
L 148.336506 307.584 
L 148.336506 283.25376 
L 147.470183 283.25376 
z
" style="fill:#1f77b4;"/>
   </g>
   <g id="patch_72">
    <path clip-path="url(#pbfc56c05d5)" d="M 148.553086 307.584 
L 149.419409 307.584 
L 149.419409 248.78592 
L 148.553086 248.78592 
z
" style="fill:#1f77b4;"/>
   </g>
   <g id="patch_73">
    <path clip-path="url(#pbfc56c05d5)" d="M 149.63599 307.584 
L 150.502313 307.584 
L 150.502313 179.85024 
L 149.63599 179.85024 
z
" style="fill:#1f77b4;"/>
   </g>
   <g id="patch_74">
    <path clip-path="url(#pbfc56c05d5)" d="M 150.718894 307.584 
L 151.585217 307.584 
L 151.585217 262.97856 
L 150.718894 262.97856 
z
" style="fill:#1f77b4;"/>
   </g>
   <g id="patch_75">
    <path clip-path="url(#pbfc56c05d5)" d="M 151.801798 307.584 
L 152.668121 307.584 
L 152.668121 257.90976 
L 151.801798 257.90976 
z
" style="fill:#1f77b4;"/>
   </g>
   <g id="patch_76">
    <path clip-path="url(#pbfc56c05d5)" d="M 152.884701 307.584 
L 153.751024 307.584 
L 153.751024 250.81344 
L 152.884701 250.81344 
z
" style="fill:#1f77b4;"/>
   </g>
   <g id="patch_77">
    <path clip-path="url(#pbfc56c05d5)" d="M 153.967605 307.584 
L 154.833928 307.584 
L 154.833928 291.36384 
L 153.967605 291.36384 
z
" style="fill:#1f77b4;"/>
   </g>
   <g id="patch_78">
    <path clip-path="url(#pbfc56c05d5)" d="M 155.050509 307.584 
L 155.916832 307.584 
L 155.916832 270.07488 
L 155.050509 270.07488 
z
" style="fill:#1f77b4;"/>
   </g>
   <g id="patch_79">
    <path clip-path="url(#pbfc56c05d5)" d="M 156.133413 307.584 
L 156.999736 307.584 
L 156.999736 266.01984 
L 156.133413 266.01984 
z
" style="fill:#1f77b4;"/>
   </g>
   <g id="patch_80">
    <path clip-path="url(#pbfc56c05d5)" d="M 157.216316 307.584 
L 158.082639 307.584 
L 158.082639 284.26752 
L 157.216316 284.26752 
z
" style="fill:#1f77b4;"/>
   </g>
   <g id="patch_81">
    <path clip-path="url(#pbfc56c05d5)" d="M 158.29922 307.584 
L 159.165543 307.584 
L 159.165543 272.1024 
L 158.29922 272.1024 
z
" style="fill:#1f77b4;"/>
   </g>
   <g id="patch_82">
    <path clip-path="url(#pbfc56c05d5)" d="M 159.382124 307.584 
L 160.248447 307.584 
L 160.248447 203.16672 
L 159.382124 203.16672 
z
" style="fill:#1f77b4;"/>
   </g>
   <g id="patch_83">
    <path clip-path="url(#pbfc56c05d5)" d="M 160.465028 307.584 
L 161.331351 307.584 
L 161.331351 200.12544 
L 160.465028 200.12544 
z
" style="fill:#1f77b4;"/>
   </g>
   <g id="patch_84">
    <path clip-path="url(#pbfc56c05d5)" d="M 161.547931 307.584 
L 162.414254 307.584 
L 162.414254 265.00608 
L 161.547931 265.00608 
z
" style="fill:#1f77b4;"/>
   </g>
   <g id="patch_85">
    <path clip-path="url(#pbfc56c05d5)" d="M 162.630835 307.584 
L 163.497158 307.584 
L 163.497158 197.08416 
L 162.630835 197.08416 
z
" style="fill:#1f77b4;"/>
   </g>
   <g id="patch_86">
    <path clip-path="url(#pbfc56c05d5)" d="M 163.713739 307.584 
L 164.580062 307.584 
L 164.580062 185.9328 
L 163.713739 185.9328 
z
" style="fill:#1f77b4;"/>
   </g>
   <g id="patch_87">
    <path clip-path="url(#pbfc56c05d5)" d="M 164.796643 307.584 
L 165.662966 307.584 
L 165.662966 262.97856 
L 164.796643 262.97856 
z
" style="fill:#1f77b4;"/>
   </g>
   <g id="patch_88">
    <path clip-path="url(#pbfc56c05d5)" d="M 165.879546 307.584 
L 166.745869 307.584 
L 166.745869 282.24 
L 165.879546 282.24 
z
" style="fill:#1f77b4;"/>
   </g>
   <g id="patch_89">
    <path clip-path="url(#pbfc56c05d5)" d="M 166.96245 307.584 
L 167.828773 307.584 
L 167.828773 195.05664 
L 166.96245 195.05664 
z
" style="fill:#1f77b4;"/>
   </g>
   <g id="patch_90">
    <path clip-path="url(#pbfc56c05d5)" d="M 168.045354 307.584 
L 168.911677 307.584 
L 168.911677 175.7952 
L 168.045354 175.7952 
z
" style="fill:#1f77b4;"/>
   </g>
   <g id="patch_91">
    <path clip-path="url(#pbfc56c05d5)" d="M 169.128258 307.584 
L 169.994581 307.584 
L 169.994581 257.90976 
L 169.128258 257.90976 
z
" style="fill:#1f77b4;"/>
   </g>
   <g id="patch_92">
    <path clip-path="url(#pbfc56c05d5)" d="M 170.211161 307.584 
L 171.077484 307.584 
L 171.077484 207.22176 
L 170.211161 207.22176 
z
" style="fill:#1f77b4;"/>
   </g>
   <g id="patch_93">
    <path clip-path="url(#pbfc56c05d5)" d="M 171.294065 307.584 
L 172.160388 307.584 
L 172.160388 235.60704 
L 171.294065 235.60704 
z
" style="fill:#1f77b4;"/>
   </g>
   <g id="patch_94">
    <path clip-path="url(#pbfc56c05d5)" d="M 172.376969 307.584 
L 173.243292 307.584 
L 173.243292 91.65312 
L 172.376969 91.65312 
z
" style="fill:#1f77b4;"/>
   </g>
   <g id="patch_95">
    <path clip-path="url(#pbfc56c05d5)" d="M 173.459873 307.584 
L 174.326196 307.584 
L 174.326196 245.74464 
L 173.459873 245.74464 
z
" style="fill:#1f77b4;"/>
   </g>
   <g id="patch_96">
    <path clip-path="url(#pbfc56c05d5)" d="M 174.542776 307.584 
L 175.409099 307.584 
L 175.409099 84.5568 
L 174.542776 84.5568 
z
" style="fill:#1f77b4;"/>
   </g>
   <g id="patch_97">
    <path clip-path="url(#pbfc56c05d5)" d="M 175.62568 307.584 
L 176.492003 307.584 
L 176.492003 268.04736 
L 175.62568 268.04736 
z
" style="fill:#1f77b4;"/>
   </g>
   <g id="patch_98">
    <path clip-path="url(#pbfc56c05d5)" d="M 176.708584 307.584 
L 177.574907 307.584 
L 177.574907 216.3456 
L 176.708584 216.3456 
z
" style="fill:#1f77b4;"/>
   </g>
   <g id="patch_99">
    <path clip-path="url(#pbfc56c05d5)" d="M 177.791488 307.584 
L 178.657811 307.584 
L 178.657811 226.4832 
L 177.791488 226.4832 
z
" style="fill:#1f77b4;"/>
   </g>
   <g id="patch_100">
    <path clip-path="url(#pbfc56c05d5)" d="M 178.874391 307.584 
L 179.740714 307.584 
L 179.740714 252.84096 
L 178.874391 252.84096 
z
" style="fill:#1f77b4;"/>
   </g>
   <g id="patch_101">
    <path clip-path="url(#pbfc56c05d5)" d="M 179.957295 307.584 
L 180.823618 307.584 
L 180.823618 149.43744 
L 179.957295 149.43744 
z
" style="fill:#1f77b4;"/>
   </g>
   <g id="patch_102">
    <path clip-path="url(#pbfc56c05d5)" d="M 181.040199 307.584 
L 181.906522 307.584 
L 181.906522 141.32736 
L 181.040199 141.32736 
z
" style="fill:#1f77b4;"/>
   </g>
   <g id="patch_103">
    <path clip-path="url(#pbfc56c05d5)" d="M 182.123103 307.584 
L 182.989426 307.584 
L 182.989426 162.61632 
L 182.123103 162.61632 
z
" style="fill:#1f77b4;"/>
   </g>
   <g id="patch_104">
    <path clip-path="url(#pbfc56c05d5)" d="M 183.206006 307.584 
L 184.072329 307.584 
L 184.072329 282.24 
L 183.206006 282.24 
z
" style="fill:#1f77b4;"/>
   </g>
   <g id="patch_105">
    <path clip-path="url(#pbfc56c05d5)" d="M 184.28891 307.584 
L 185.155233 307.584 
L 185.155233 217.35936 
L 184.28891 217.35936 
z
" style="fill:#1f77b4;"/>
   </g>
   <g id="patch_106">
    <path clip-path="url(#pbfc56c05d5)" d="M 185.371814 307.584 
L 186.238137 307.584 
L 186.238137 259.93728 
L 185.371814 259.93728 
z
" style="fill:#1f77b4;"/>
   </g>
   <g id="patch_107">
    <path clip-path="url(#pbfc56c05d5)" d="M 186.454718 307.584 
L 187.321041 307.584 
L 187.321041 133.21728 
L 186.454718 133.21728 
z
" style="fill:#1f77b4;"/>
   </g>
   <g id="patch_108">
    <path clip-path="url(#pbfc56c05d5)" d="M 187.537621 307.584 
L 188.403944 307.584 
L 188.403944 296.43264 
L 187.537621 296.43264 
z
" style="fill:#1f77b4;"/>
   </g>
   <g id="patch_109">
    <path clip-path="url(#pbfc56c05d5)" d="M 188.620525 307.584 
L 189.486848 307.584 
L 189.486848 194.04288 
L 188.620525 194.04288 
z
" style="fill:#1f77b4;"/>
   </g>
   <g id="patch_110">
    <path clip-path="url(#pbfc56c05d5)" d="M 189.703429 307.584 
L 190.569752 307.584 
L 190.569752 227.49696 
L 189.703429 227.49696 
z
" style="fill:#1f77b4;"/>
   </g>
   <g id="patch_111">
    <path clip-path="url(#pbfc56c05d5)" d="M 190.786333 307.584 
L 191.652656 307.584 
L 191.652656 251.8272 
L 190.786333 251.8272 
z
" style="fill:#1f77b4;"/>
   </g>
   <g id="patch_112">
    <path clip-path="url(#pbfc56c05d5)" d="M 191.869236 307.584 
L 192.735559 307.584 
L 192.735559 183.90528 
L 191.869236 183.90528 
z
" style="fill:#1f77b4;"/>
   </g>
   <g id="patch_113">
    <path clip-path="url(#pbfc56c05d5)" d="M 192.95214 307.584 
L 193.818463 307.584 
L 193.818463 250.81344 
L 192.95214 250.81344 
z
" style="fill:#1f77b4;"/>
   </g>
   <g id="patch_114">
    <path clip-path="url(#pbfc56c05d5)" d="M 194.035044 307.584 
L 194.901367 307.584 
L 194.901367 202.15296 
L 194.035044 202.15296 
z
" style="fill:#1f77b4;"/>
   </g>
   <g id="patch_115">
    <path clip-path="url(#pbfc56c05d5)" d="M 195.117948 307.584 
L 195.984271 307.584 
L 195.984271 277.1712 
L 195.117948 277.1712 
z
" style="fill:#1f77b4;"/>
   </g>
   <g id="patch_116">
    <path clip-path="url(#pbfc56c05d5)" d="M 196.200851 307.584 
L 197.067174 307.584 
L 197.067174 289.33632 
L 196.200851 289.33632 
z
" style="fill:#1f77b4;"/>
   </g>
   <g id="patch_117">
    <path clip-path="url(#pbfc56c05d5)" d="M 197.283755 307.584 
L 198.150078 307.584 
L 198.150078 236.6208 
L 197.283755 236.6208 
z
" style="fill:#1f77b4;"/>
   </g>
   <g id="patch_118">
    <path clip-path="url(#pbfc56c05d5)" d="M 198.366659 307.584 
L 199.232982 307.584 
L 199.232982 290.35008 
L 198.366659 290.35008 
z
" style="fill:#1f77b4;"/>
   </g>
   <g id="patch_119">
    <path clip-path="url(#pbfc56c05d5)" d="M 199.449563 307.584 
L 200.315886 307.584 
L 200.315886 265.00608 
L 199.449563 265.00608 
z
" style="fill:#1f77b4;"/>
   </g>
   <g id="patch_120">
    <path clip-path="url(#pbfc56c05d5)" d="M 200.532466 307.584 
L 201.398789 307.584 
L 201.398789 287.3088 
L 200.532466 287.3088 
z
" style="fill:#1f77b4;"/>
   </g>
   <g id="patch_121">
    <path clip-path="url(#pbfc56c05d5)" d="M 201.61537 307.584 
L 202.481693 307.584 
L 202.481693 293.39136 
L 201.61537 293.39136 
z
" style="fill:#1f77b4;"/>
   </g>
   <g id="patch_122">
    <path clip-path="url(#pbfc56c05d5)" d="M 202.698274 307.584 
L 203.564597 307.584 
L 203.564597 280.21248 
L 202.698274 280.21248 
z
" style="fill:#1f77b4;"/>
   </g>
   <g id="patch_123">
    <path clip-path="url(#pbfc56c05d5)" d="M 203.781178 307.584 
L 204.647501 307.584 
L 204.647501 274.12992 
L 203.781178 274.12992 
z
" style="fill:#1f77b4;"/>
   </g>
   <g id="patch_124">
    <path clip-path="url(#pbfc56c05d5)" d="M 204.864082 307.584 
L 205.730405 307.584 
L 205.730405 213.30432 
L 204.864082 213.30432 
z
" style="fill:#1f77b4;"/>
   </g>
   <g id="patch_125">
    <path clip-path="url(#pbfc56c05d5)" d="M 205.946985 307.584 
L 206.813308 307.584 
L 206.813308 283.25376 
L 205.946985 283.25376 
z
" style="fill:#1f77b4;"/>
   </g>
   <g id="patch_126">
    <path clip-path="url(#pbfc56c05d5)" d="M 207.029889 307.584 
L 207.896212 307.584 
L 207.896212 274.12992 
L 207.029889 274.12992 
z
" style="fill:#1f77b4;"/>
   </g>
   <g id="patch_127">
    <path clip-path="url(#pbfc56c05d5)" d="M 208.112793 307.584 
L 208.979116 307.584 
L 208.979116 272.1024 
L 208.112793 272.1024 
z
" style="fill:#1f77b4;"/>
   </g>
   <g id="patch_128">
    <path clip-path="url(#pbfc56c05d5)" d="M 209.195697 307.584 
L 210.06202 307.584 
L 210.06202 133.21728 
L 209.195697 133.21728 
z
" style="fill:#1f77b4;"/>
   </g>
   <g id="patch_129">
    <path clip-path="url(#pbfc56c05d5)" d="M 210.2786 307.584 
L 211.144923 307.584 
L 211.144923 166.67136 
L 210.2786 166.67136 
z
" style="fill:#1f77b4;"/>
   </g>
   <g id="patch_130">
    <path clip-path="url(#pbfc56c05d5)" d="M 211.361504 307.584 
L 212.227827 307.584 
L 212.227827 195.05664 
L 211.361504 195.05664 
z
" style="fill:#1f77b4;"/>
   </g>
   <g id="patch_131">
    <path clip-path="url(#pbfc56c05d5)" d="M 212.444408 307.584 
L 213.310731 307.584 
L 213.310731 178.83648 
L 212.444408 178.83648 
z
" style="fill:#1f77b4;"/>
   </g>
   <g id="patch_132">
    <path clip-path="url(#pbfc56c05d5)" d="M 213.527312 307.584 
L 214.393635 307.584 
L 214.393635 191.0016 
L 213.527312 191.0016 
z
" style="fill:#1f77b4;"/>
   </g>
   <g id="patch_133">
    <path clip-path="url(#pbfc56c05d5)" d="M 214.610215 307.584 
L 215.476538 307.584 
L 215.476538 205.19424 
L 214.610215 205.19424 
z
" style="fill:#1f77b4;"/>
   </g>
   <g id="patch_134">
    <path clip-path="url(#pbfc56c05d5)" d="M 215.693119 307.584 
L 216.559442 307.584 
L 216.559442 252.84096 
L 215.693119 252.84096 
z
" style="fill:#1f77b4;"/>
   </g>
   <g id="patch_135">
    <path clip-path="url(#pbfc56c05d5)" d="M 216.776023 307.584 
L 217.642346 307.584 
L 217.642346 236.6208 
L 216.776023 236.6208 
z
" style="fill:#1f77b4;"/>
   </g>
   <g id="patch_136">
    <path clip-path="url(#pbfc56c05d5)" d="M 217.858927 307.584 
L 218.72525 307.584 
L 218.72525 304.54272 
L 217.858927 304.54272 
z
" style="fill:#1f77b4;"/>
   </g>
   <g id="patch_137">
    <path clip-path="url(#pbfc56c05d5)" d="M 218.94183 307.584 
L 219.808153 307.584 
L 219.808153 145.3824 
L 218.94183 145.3824 
z
" style="fill:#1f77b4;"/>
   </g>
   <g id="patch_138">
    <path clip-path="url(#pbfc56c05d5)" d="M 220.024734 307.584 
L 220.891057 307.584 
L 220.891057 285.28128 
L 220.024734 285.28128 
z
" style="fill:#1f77b4;"/>
   </g>
   <g id="patch_139">
    <path clip-path="url(#pbfc56c05d5)" d="M 221.107638 307.584 
L 221.973961 307.584 
L 221.973961 258.92352 
L 221.107638 258.92352 
z
" style="fill:#1f77b4;"/>
   </g>
   <g id="patch_140">
    <path clip-path="url(#pbfc56c05d5)" d="M 222.190542 307.584 
L 223.056865 307.584 
L 223.056865 205.19424 
L 222.190542 205.19424 
z
" style="fill:#1f77b4;"/>
   </g>
   <g id="patch_141">
    <path clip-path="url(#pbfc56c05d5)" d="M 223.273445 307.584 
L 224.139768 307.584 
L 224.139768 293.39136 
L 223.273445 293.39136 
z
" style="fill:#1f77b4;"/>
   </g>
   <g id="patch_142">
    <path clip-path="url(#pbfc56c05d5)" d="M 224.356349 307.584 
L 225.222672 307.584 
L 225.222672 225.46944 
L 224.356349 225.46944 
z
" style="fill:#1f77b4;"/>
   </g>
   <g id="patch_143">
    <path clip-path="url(#pbfc56c05d5)" d="M 225.439253 307.584 
L 226.305576 307.584 
L 226.305576 232.56576 
L 225.439253 232.56576 
z
" style="fill:#1f77b4;"/>
   </g>
   <g id="patch_144">
    <path clip-path="url(#pbfc56c05d5)" d="M 226.522157 307.584 
L 227.38848 307.584 
L 227.38848 255.88224 
L 226.522157 255.88224 
z
" style="fill:#1f77b4;"/>
   </g>
   <g id="patch_145">
    <path clip-path="url(#pbfc56c05d5)" d="M 227.60506 307.584 
L 228.471383 307.584 
L 228.471383 256.896 
L 227.60506 256.896 
z
" style="fill:#1f77b4;"/>
   </g>
   <g id="patch_146">
    <path clip-path="url(#pbfc56c05d5)" d="M 228.687964 307.584 
L 229.554287 307.584 
L 229.554287 267.0336 
L 228.687964 267.0336 
z
" style="fill:#1f77b4;"/>
   </g>
   <g id="patch_147">
    <path clip-path="url(#pbfc56c05d5)" d="M 229.770868 307.584 
L 230.637191 307.584 
L 230.637191 154.50624 
L 229.770868 154.50624 
z
" style="fill:#1f77b4;"/>
   </g>
   <g id="patch_148">
    <path clip-path="url(#pbfc56c05d5)" d="M 230.853772 307.584 
L 231.720095 307.584 
L 231.720095 235.60704 
L 230.853772 235.60704 
z
" style="fill:#1f77b4;"/>
   </g>
   <g id="patch_149">
    <path clip-path="url(#pbfc56c05d5)" d="M 231.936675 307.584 
L 232.802998 307.584 
L 232.802998 277.1712 
L 231.936675 277.1712 
z
" style="fill:#1f77b4;"/>
   </g>
   <g id="patch_150">
    <path clip-path="url(#pbfc56c05d5)" d="M 233.019579 307.584 
L 233.885902 307.584 
L 233.885902 225.46944 
L 233.019579 225.46944 
z
" style="fill:#1f77b4;"/>
   </g>
   <g id="patch_151">
    <path clip-path="url(#pbfc56c05d5)" d="M 234.102483 307.584 
L 234.968806 307.584 
L 234.968806 288.32256 
L 234.102483 288.32256 
z
" style="fill:#1f77b4;"/>
   </g>
   <g id="patch_152">
    <path clip-path="url(#pbfc56c05d5)" d="M 235.185387 307.584 
L 236.05171 307.584 
L 236.05171 227.49696 
L 235.185387 227.49696 
z
" style="fill:#1f77b4;"/>
   </g>
   <g id="patch_153">
    <path clip-path="url(#pbfc56c05d5)" d="M 236.26829 307.584 
L 237.134613 307.584 
L 237.134613 209.24928 
L 236.26829 209.24928 
z
" style="fill:#1f77b4;"/>
   </g>
   <g id="patch_154">
    <path clip-path="url(#pbfc56c05d5)" d="M 237.351194 307.584 
L 238.217517 307.584 
L 238.217517 285.28128 
L 237.351194 285.28128 
z
" style="fill:#1f77b4;"/>
   </g>
   <g id="patch_155">
    <path clip-path="url(#pbfc56c05d5)" d="M 238.434098 307.584 
L 239.300421 307.584 
L 239.300421 269.06112 
L 238.434098 269.06112 
z
" style="fill:#1f77b4;"/>
   </g>
   <g id="patch_156">
    <path clip-path="url(#pbfc56c05d5)" d="M 239.517002 307.584 
L 240.383325 307.584 
L 240.383325 185.9328 
L 239.517002 185.9328 
z
" style="fill:#1f77b4;"/>
   </g>
   <g id="patch_157">
    <path clip-path="url(#pbfc56c05d5)" d="M 240.599905 307.584 
L 241.466228 307.584 
L 241.466228 145.3824 
L 240.599905 145.3824 
z
" style="fill:#1f77b4;"/>
   </g>
   <g id="patch_158">
    <path clip-path="url(#pbfc56c05d5)" d="M 241.682809 307.584 
L 242.549132 307.584 
L 242.549132 304.54272 
L 241.682809 304.54272 
z
" style="fill:#1f77b4;"/>
   </g>
   <g id="patch_159">
    <path clip-path="url(#pbfc56c05d5)" d="M 242.765713 307.584 
L 243.632036 307.584 
L 243.632036 228.51072 
L 242.765713 228.51072 
z
" style="fill:#1f77b4;"/>
   </g>
   <g id="patch_160">
    <path clip-path="url(#pbfc56c05d5)" d="M 243.848617 307.584 
L 244.71494 307.584 
L 244.71494 237.63456 
L 243.848617 237.63456 
z
" style="fill:#1f77b4;"/>
   </g>
   <g id="patch_161">
    <path clip-path="url(#pbfc56c05d5)" d="M 244.93152 307.584 
L 245.797843 307.584 
L 245.797843 157.54752 
L 244.93152 157.54752 
z
" style="fill:#1f77b4;"/>
   </g>
   <g id="patch_162">
    <path clip-path="url(#pbfc56c05d5)" d="M 246.014424 307.584 
L 246.880747 307.584 
L 246.880747 265.00608 
L 246.014424 265.00608 
z
" style="fill:#1f77b4;"/>
   </g>
   <g id="patch_163">
    <path clip-path="url(#pbfc56c05d5)" d="M 247.097328 307.584 
L 247.963651 307.584 
L 247.963651 277.1712 
L 247.097328 277.1712 
z
" style="fill:#1f77b4;"/>
   </g>
   <g id="patch_164">
    <path clip-path="url(#pbfc56c05d5)" d="M 248.180232 307.584 
L 249.046555 307.584 
L 249.046555 216.3456 
L 248.180232 216.3456 
z
" style="fill:#1f77b4;"/>
   </g>
   <g id="patch_165">
    <path clip-path="url(#pbfc56c05d5)" d="M 249.263135 307.584 
L 250.129458 307.584 
L 250.129458 182.89152 
L 249.263135 182.89152 
z
" style="fill:#1f77b4;"/>
   </g>
   <g id="patch_166">
    <path clip-path="url(#pbfc56c05d5)" d="M 250.346039 307.584 
L 251.212362 307.584 
L 251.212362 115.98336 
L 250.346039 115.98336 
z
" style="fill:#1f77b4;"/>
   </g>
   <g id="patch_167">
    <path clip-path="url(#pbfc56c05d5)" d="M 251.428943 307.584 
L 252.295266 307.584 
L 252.295266 276.15744 
L 251.428943 276.15744 
z
" style="fill:#1f77b4;"/>
   </g>
   <g id="patch_168">
    <path clip-path="url(#pbfc56c05d5)" d="M 252.511847 307.584 
L 253.37817 307.584 
L 253.37817 239.66208 
L 252.511847 239.66208 
z
" style="fill:#1f77b4;"/>
   </g>
   <g id="patch_169">
    <path clip-path="url(#pbfc56c05d5)" d="M 253.59475 307.584 
L 254.461073 307.584 
L 254.461073 296.43264 
L 253.59475 296.43264 
z
" style="fill:#1f77b4;"/>
   </g>
   <g id="patch_170">
    <path clip-path="url(#pbfc56c05d5)" d="M 254.677654 307.584 
L 255.543977 307.584 
L 255.543977 223.44192 
L 254.677654 223.44192 
z
" style="fill:#1f77b4;"/>
   </g>
   <g id="patch_171">
    <path clip-path="url(#pbfc56c05d5)" d="M 255.760558 307.584 
L 256.626881 307.584 
L 256.626881 261.9648 
L 255.760558 261.9648 
z
" style="fill:#1f77b4;"/>
   </g>
   <g id="patch_172">
    <path clip-path="url(#pbfc56c05d5)" d="M 256.843462 307.584 
L 257.709785 307.584 
L 257.709785 207.22176 
L 256.843462 207.22176 
z
" style="fill:#1f77b4;"/>
   </g>
   <g id="patch_173">
    <path clip-path="url(#pbfc56c05d5)" d="M 257.926365 307.584 
L 258.792688 307.584 
L 258.792688 82.52928 
L 257.926365 82.52928 
z
" style="fill:#1f77b4;"/>
   </g>
   <g id="patch_174">
    <path clip-path="url(#pbfc56c05d5)" d="M 259.009269 307.584 
L 259.875592 307.584 
L 259.875592 277.1712 
L 259.009269 277.1712 
z
" style="fill:#1f77b4;"/>
   </g>
   <g id="patch_175">
    <path clip-path="url(#pbfc56c05d5)" d="M 260.092173 307.584 
L 260.958496 307.584 
L 260.958496 132.20352 
L 260.092173 132.20352 
z
" style="fill:#1f77b4;"/>
   </g>
   <g id="patch_176">
    <path clip-path="url(#pbfc56c05d5)" d="M 261.175077 307.584 
L 262.0414 307.584 
L 262.0414 300.48768 
L 261.175077 300.48768 
z
" style="fill:#1f77b4;"/>
   </g>
   <g id="patch_177">
    <path clip-path="url(#pbfc56c05d5)" d="M 262.25798 307.584 
L 263.124303 307.584 
L 263.124303 231.552 
L 262.25798 231.552 
z
" style="fill:#1f77b4;"/>
   </g>
   <g id="patch_178">
    <path clip-path="url(#pbfc56c05d5)" d="M 263.340884 307.584 
L 264.207207 307.584 
L 264.207207 250.81344 
L 263.340884 250.81344 
z
" style="fill:#1f77b4;"/>
   </g>
   <g id="patch_179">
    <path clip-path="url(#pbfc56c05d5)" d="M 264.423788 307.584 
L 265.290111 307.584 
L 265.290111 226.4832 
L 264.423788 226.4832 
z
" style="fill:#1f77b4;"/>
   </g>
   <g id="patch_180">
    <path clip-path="url(#pbfc56c05d5)" d="M 265.506692 307.584 
L 266.373015 307.584 
L 266.373015 290.35008 
L 265.506692 290.35008 
z
" style="fill:#1f77b4;"/>
   </g>
   <g id="patch_181">
    <path clip-path="url(#pbfc56c05d5)" d="M 266.589595 307.584 
L 267.455918 307.584 
L 267.455918 253.85472 
L 266.589595 253.85472 
z
" style="fill:#1f77b4;"/>
   </g>
   <g id="patch_182">
    <path clip-path="url(#pbfc56c05d5)" d="M 267.672499 307.584 
L 268.538822 307.584 
L 268.538822 290.35008 
L 267.672499 290.35008 
z
" style="fill:#1f77b4;"/>
   </g>
   <g id="patch_183">
    <path clip-path="url(#pbfc56c05d5)" d="M 268.755403 307.584 
L 269.621726 307.584 
L 269.621726 293.39136 
L 268.755403 293.39136 
z
" style="fill:#1f77b4;"/>
   </g>
   <g id="patch_184">
    <path clip-path="url(#pbfc56c05d5)" d="M 269.838307 307.584 
L 270.70463 307.584 
L 270.70463 132.20352 
L 269.838307 132.20352 
z
" style="fill:#1f77b4;"/>
   </g>
   <g id="patch_185">
    <path clip-path="url(#pbfc56c05d5)" d="M 270.921211 307.584 
L 271.787534 307.584 
L 271.787534 217.35936 
L 270.921211 217.35936 
z
" style="fill:#1f77b4;"/>
   </g>
   <g id="patch_186">
    <path clip-path="url(#pbfc56c05d5)" d="M 272.004114 307.584 
L 272.870437 307.584 
L 272.870437 162.61632 
L 272.004114 162.61632 
z
" style="fill:#1f77b4;"/>
   </g>
   <g id="patch_187">
    <path clip-path="url(#pbfc56c05d5)" d="M 273.087018 307.584 
L 273.953341 307.584 
L 273.953341 269.06112 
L 273.087018 269.06112 
z
" style="fill:#1f77b4;"/>
   </g>
   <g id="patch_188">
    <path clip-path="url(#pbfc56c05d5)" d="M 274.169922 307.584 
L 275.036245 307.584 
L 275.036245 284.26752 
L 274.169922 284.26752 
z
" style="fill:#1f77b4;"/>
   </g>
   <g id="patch_189">
    <path clip-path="url(#pbfc56c05d5)" d="M 275.252826 307.584 
L 276.119149 307.584 
L 276.119149 281.22624 
L 275.252826 281.22624 
z
" style="fill:#1f77b4;"/>
   </g>
   <g id="patch_190">
    <path clip-path="url(#pbfc56c05d5)" d="M 276.335729 307.584 
L 277.202052 307.584 
L 277.202052 220.40064 
L 276.335729 220.40064 
z
" style="fill:#1f77b4;"/>
   </g>
   <g id="patch_191">
    <path clip-path="url(#pbfc56c05d5)" d="M 277.418633 307.584 
L 278.284956 307.584 
L 278.284956 207.22176 
L 277.418633 207.22176 
z
" style="fill:#1f77b4;"/>
   </g>
   <g id="patch_192">
    <path clip-path="url(#pbfc56c05d5)" d="M 278.501537 307.584 
L 279.36786 307.584 
L 279.36786 276.15744 
L 278.501537 276.15744 
z
" style="fill:#1f77b4;"/>
   </g>
   <g id="patch_193">
    <path clip-path="url(#pbfc56c05d5)" d="M 279.584441 307.584 
L 280.450764 307.584 
L 280.450764 232.56576 
L 279.584441 232.56576 
z
" style="fill:#1f77b4;"/>
   </g>
   <g id="patch_194">
    <path clip-path="url(#pbfc56c05d5)" d="M 280.667344 307.584 
L 281.533667 307.584 
L 281.533667 224.45568 
L 280.667344 224.45568 
z
" style="fill:#1f77b4;"/>
   </g>
   <g id="patch_195">
    <path clip-path="url(#pbfc56c05d5)" d="M 281.750248 307.584 
L 282.616571 307.584 
L 282.616571 211.2768 
L 281.750248 211.2768 
z
" style="fill:#1f77b4;"/>
   </g>
   <g id="patch_196">
    <path clip-path="url(#pbfc56c05d5)" d="M 282.833152 307.584 
L 283.699475 307.584 
L 283.699475 214.31808 
L 282.833152 214.31808 
z
" style="fill:#1f77b4;"/>
   </g>
   <g id="patch_197">
    <path clip-path="url(#pbfc56c05d5)" d="M 283.916056 307.584 
L 284.782379 307.584 
L 284.782379 206.208 
L 283.916056 206.208 
z
" style="fill:#1f77b4;"/>
   </g>
   <g id="patch_198">
    <path clip-path="url(#pbfc56c05d5)" d="M 284.998959 307.584 
L 285.865282 307.584 
L 285.865282 219.38688 
L 284.998959 219.38688 
z
" style="fill:#1f77b4;"/>
   </g>
   <g id="patch_199">
    <path clip-path="url(#pbfc56c05d5)" d="M 286.081863 307.584 
L 286.948186 307.584 
L 286.948186 217.35936 
L 286.081863 217.35936 
z
" style="fill:#1f77b4;"/>
   </g>
   <g id="patch_200">
    <path clip-path="url(#pbfc56c05d5)" d="M 287.164767 307.584 
L 288.03109 307.584 
L 288.03109 257.90976 
L 287.164767 257.90976 
z
" style="fill:#1f77b4;"/>
   </g>
   <g id="patch_201">
    <path clip-path="url(#pbfc56c05d5)" d="M 288.247671 307.584 
L 289.113994 307.584 
L 289.113994 184.91904 
L 288.247671 184.91904 
z
" style="fill:#1f77b4;"/>
   </g>
   <g id="patch_202">
    <path clip-path="url(#pbfc56c05d5)" d="M 289.330574 307.584 
L 290.196897 307.584 
L 290.196897 207.22176 
L 289.330574 207.22176 
z
" style="fill:#1f77b4;"/>
   </g>
   <g id="patch_203">
    <path clip-path="url(#pbfc56c05d5)" d="M 290.413478 307.584 
L 291.279801 307.584 
L 291.279801 237.63456 
L 290.413478 237.63456 
z
" style="fill:#1f77b4;"/>
   </g>
   <g id="patch_204">
    <path clip-path="url(#pbfc56c05d5)" d="M 291.496382 307.584 
L 292.362705 307.584 
L 292.362705 260.95104 
L 291.496382 260.95104 
z
" style="fill:#1f77b4;"/>
   </g>
   <g id="patch_205">
    <path clip-path="url(#pbfc56c05d5)" d="M 292.579286 307.584 
L 293.445609 307.584 
L 293.445609 206.208 
L 292.579286 206.208 
z
" style="fill:#1f77b4;"/>
   </g>
   <g id="patch_206">
    <path clip-path="url(#pbfc56c05d5)" d="M 293.662189 307.584 
L 294.528512 307.584 
L 294.528512 244.73088 
L 293.662189 244.73088 
z
" style="fill:#1f77b4;"/>
   </g>
   <g id="patch_207">
    <path clip-path="url(#pbfc56c05d5)" d="M 294.745093 307.584 
L 295.611416 307.584 
L 295.611416 176.80896 
L 294.745093 176.80896 
z
" style="fill:#1f77b4;"/>
   </g>
   <g id="patch_208">
    <path clip-path="url(#pbfc56c05d5)" d="M 295.827997 307.584 
L 296.69432 307.584 
L 296.69432 242.70336 
L 295.827997 242.70336 
z
" style="fill:#1f77b4;"/>
   </g>
   <g id="patch_209">
    <path clip-path="url(#pbfc56c05d5)" d="M 296.910901 307.584 
L 297.777224 307.584 
L 297.777224 273.11616 
L 296.910901 273.11616 
z
" style="fill:#1f77b4;"/>
   </g>
   <g id="patch_210">
    <path clip-path="url(#pbfc56c05d5)" d="M 297.993804 307.584 
L 298.860127 307.584 
L 298.860127 184.91904 
L 297.993804 184.91904 
z
" style="fill:#1f77b4;"/>
   </g>
   <g id="patch_211">
    <path clip-path="url(#pbfc56c05d5)" d="M 299.076708 307.584 
L 299.943031 307.584 
L 299.943031 262.97856 
L 299.076708 262.97856 
z
" style="fill:#1f77b4;"/>
   </g>
   <g id="patch_212">
    <path clip-path="url(#pbfc56c05d5)" d="M 300.159612 307.584 
L 301.025935 307.584 
L 301.025935 212.29056 
L 300.159612 212.29056 
z
" style="fill:#1f77b4;"/>
   </g>
   <g id="patch_213">
    <path clip-path="url(#pbfc56c05d5)" d="M 301.242516 307.584 
L 302.108839 307.584 
L 302.108839 272.1024 
L 301.242516 272.1024 
z
" style="fill:#1f77b4;"/>
   </g>
   <g id="patch_214">
    <path clip-path="url(#pbfc56c05d5)" d="M 302.325419 307.584 
L 303.191742 307.584 
L 303.191742 283.25376 
L 302.325419 283.25376 
z
" style="fill:#1f77b4;"/>
   </g>
   <g id="patch_215">
    <path clip-path="url(#pbfc56c05d5)" d="M 303.408323 307.584 
L 304.274646 307.584 
L 304.274646 284.26752 
L 303.408323 284.26752 
z
" style="fill:#1f77b4;"/>
   </g>
   <g id="patch_216">
    <path clip-path="url(#pbfc56c05d5)" d="M 304.491227 307.584 
L 305.35755 307.584 
L 305.35755 273.11616 
L 304.491227 273.11616 
z
" style="fill:#1f77b4;"/>
   </g>
   <g id="patch_217">
    <path clip-path="url(#pbfc56c05d5)" d="M 305.574131 307.584 
L 306.440454 307.584 
L 306.440454 258.92352 
L 305.574131 258.92352 
z
" style="fill:#1f77b4;"/>
   </g>
   <g id="patch_218">
    <path clip-path="url(#pbfc56c05d5)" d="M 306.657034 307.584 
L 307.523357 307.584 
L 307.523357 263.99232 
L 306.657034 263.99232 
z
" style="fill:#1f77b4;"/>
   </g>
   <g id="patch_219">
    <path clip-path="url(#pbfc56c05d5)" d="M 307.739938 307.584 
L 308.606261 307.584 
L 308.606261 75.43296 
L 307.739938 75.43296 
z
" style="fill:#1f77b4;"/>
   </g>
   <g id="patch_220">
    <path clip-path="url(#pbfc56c05d5)" d="M 308.822842 307.584 
L 309.689165 307.584 
L 309.689165 298.46016 
L 308.822842 298.46016 
z
" style="fill:#1f77b4;"/>
   </g>
   <g id="patch_221">
    <path clip-path="url(#pbfc56c05d5)" d="M 309.905746 307.584 
L 310.772069 307.584 
L 310.772069 199.11168 
L 309.905746 199.11168 
z
" style="fill:#1f77b4;"/>
   </g>
   <g id="patch_222">
    <path clip-path="url(#pbfc56c05d5)" d="M 310.988649 307.584 
L 311.854972 307.584 
L 311.854972 258.92352 
L 310.988649 258.92352 
z
" style="fill:#1f77b4;"/>
   </g>
   <g id="patch_223">
    <path clip-path="url(#pbfc56c05d5)" d="M 312.071553 307.584 
L 312.937876 307.584 
L 312.937876 286.29504 
L 312.071553 286.29504 
z
" style="fill:#1f77b4;"/>
   </g>
   <g id="patch_224">
    <path clip-path="url(#pbfc56c05d5)" d="M 313.154457 307.584 
L 314.02078 307.584 
L 314.02078 217.35936 
L 313.154457 217.35936 
z
" style="fill:#1f77b4;"/>
   </g>
   <g id="patch_225">
    <path clip-path="url(#pbfc56c05d5)" d="M 314.237361 307.584 
L 315.103684 307.584 
L 315.103684 269.06112 
L 314.237361 269.06112 
z
" style="fill:#1f77b4;"/>
   </g>
   <g id="patch_226">
    <path clip-path="url(#pbfc56c05d5)" d="M 315.320264 307.584 
L 316.186587 307.584 
L 316.186587 138.28608 
L 315.320264 138.28608 
z
" style="fill:#1f77b4;"/>
   </g>
   <g id="patch_227">
    <path clip-path="url(#pbfc56c05d5)" d="M 316.403168 307.584 
L 317.269491 307.584 
L 317.269491 292.3776 
L 316.403168 292.3776 
z
" style="fill:#1f77b4;"/>
   </g>
   <g id="patch_228">
    <path clip-path="url(#pbfc56c05d5)" d="M 317.486072 307.584 
L 318.352395 307.584 
L 318.352395 154.50624 
L 317.486072 154.50624 
z
" style="fill:#1f77b4;"/>
   </g>
   <g id="patch_229">
    <path clip-path="url(#pbfc56c05d5)" d="M 318.568976 307.584 
L 319.435299 307.584 
L 319.435299 291.36384 
L 318.568976 291.36384 
z
" style="fill:#1f77b4;"/>
   </g>
   <g id="patch_230">
    <path clip-path="url(#pbfc56c05d5)" d="M 319.651879 307.584 
L 320.518202 307.584 
L 320.518202 232.56576 
L 319.651879 232.56576 
z
" style="fill:#1f77b4;"/>
   </g>
   <g id="patch_231">
    <path clip-path="url(#pbfc56c05d5)" d="M 320.734783 307.584 
L 321.601106 307.584 
L 321.601106 256.896 
L 320.734783 256.896 
z
" style="fill:#1f77b4;"/>
   </g>
   <g id="patch_232">
    <path clip-path="url(#pbfc56c05d5)" d="M 321.817687 307.584 
L 322.68401 307.584 
L 322.68401 212.29056 
L 321.817687 212.29056 
z
" style="fill:#1f77b4;"/>
   </g>
   <g id="patch_233">
    <path clip-path="url(#pbfc56c05d5)" d="M 322.900591 307.584 
L 323.766914 307.584 
L 323.766914 258.92352 
L 322.900591 258.92352 
z
" style="fill:#1f77b4;"/>
   </g>
   <g id="patch_234">
    <path clip-path="url(#pbfc56c05d5)" d="M 323.983494 307.584 
L 324.849817 307.584 
L 324.849817 186.94656 
L 323.983494 186.94656 
z
" style="fill:#1f77b4;"/>
   </g>
   <g id="patch_235">
    <path clip-path="url(#pbfc56c05d5)" d="M 325.066398 307.584 
L 325.932721 307.584 
L 325.932721 233.57952 
L 325.066398 233.57952 
z
" style="fill:#1f77b4;"/>
   </g>
   <g id="patch_236">
    <path clip-path="url(#pbfc56c05d5)" d="M 326.149302 307.584 
L 327.015625 307.584 
L 327.015625 208.23552 
L 326.149302 208.23552 
z
" style="fill:#1f77b4;"/>
   </g>
   <g id="patch_237">
    <path clip-path="url(#pbfc56c05d5)" d="M 327.232206 307.584 
L 328.098529 307.584 
L 328.098529 198.09792 
L 327.232206 198.09792 
z
" style="fill:#1f77b4;"/>
   </g>
   <g id="patch_238">
    <path clip-path="url(#pbfc56c05d5)" d="M 328.315109 307.584 
L 329.181432 307.584 
L 329.181432 234.59328 
L 328.315109 234.59328 
z
" style="fill:#1f77b4;"/>
   </g>
   <g id="patch_239">
    <path clip-path="url(#pbfc56c05d5)" d="M 329.398013 307.584 
L 330.264336 307.584 
L 330.264336 269.06112 
L 329.398013 269.06112 
z
" style="fill:#1f77b4;"/>
   </g>
   <g id="patch_240">
    <path clip-path="url(#pbfc56c05d5)" d="M 330.480917 307.584 
L 331.34724 307.584 
L 331.34724 269.06112 
L 330.480917 269.06112 
z
" style="fill:#1f77b4;"/>
   </g>
   <g id="patch_241">
    <path clip-path="url(#pbfc56c05d5)" d="M 331.563821 307.584 
L 332.430144 307.584 
L 332.430144 99.7632 
L 331.563821 99.7632 
z
" style="fill:#1f77b4;"/>
   </g>
   <g id="patch_242">
    <path clip-path="url(#pbfc56c05d5)" d="M 332.646724 307.584 
L 333.513047 307.584 
L 333.513047 260.95104 
L 332.646724 260.95104 
z
" style="fill:#1f77b4;"/>
   </g>
   <g id="patch_243">
    <path clip-path="url(#pbfc56c05d5)" d="M 333.729628 307.584 
L 334.595951 307.584 
L 334.595951 243.71712 
L 333.729628 243.71712 
z
" style="fill:#1f77b4;"/>
   </g>
   <g id="patch_244">
    <path clip-path="url(#pbfc56c05d5)" d="M 334.812532 307.584 
L 335.678855 307.584 
L 335.678855 231.552 
L 334.812532 231.552 
z
" style="fill:#1f77b4;"/>
   </g>
   <g id="patch_245">
    <path clip-path="url(#pbfc56c05d5)" d="M 335.895436 307.584 
L 336.761759 307.584 
L 336.761759 259.93728 
L 335.895436 259.93728 
z
" style="fill:#1f77b4;"/>
   </g>
   <g id="patch_246">
    <path clip-path="url(#pbfc56c05d5)" d="M 336.978339 307.584 
L 337.844663 307.584 
L 337.844663 251.8272 
L 336.978339 251.8272 
z
" style="fill:#1f77b4;"/>
   </g>
   <g id="patch_247">
    <path clip-path="url(#pbfc56c05d5)" d="M 338.061243 307.584 
L 338.927566 307.584 
L 338.927566 211.2768 
L 338.061243 211.2768 
z
" style="fill:#1f77b4;"/>
   </g>
   <g id="patch_248">
    <path clip-path="url(#pbfc56c05d5)" d="M 339.144147 307.584 
L 340.01047 307.584 
L 340.01047 267.0336 
L 339.144147 267.0336 
z
" style="fill:#1f77b4;"/>
   </g>
   <g id="patch_249">
    <path clip-path="url(#pbfc56c05d5)" d="M 340.227051 307.584 
L 341.093374 307.584 
L 341.093374 229.52448 
L 340.227051 229.52448 
z
" style="fill:#1f77b4;"/>
   </g>
   <g id="patch_250">
    <path clip-path="url(#pbfc56c05d5)" d="M 341.309955 307.584 
L 342.176278 307.584 
L 342.176278 283.25376 
L 341.309955 283.25376 
z
" style="fill:#1f77b4;"/>
   </g>
   <g id="patch_251">
    <path clip-path="url(#pbfc56c05d5)" d="M 342.392858 307.584 
L 343.259181 307.584 
L 343.259181 284.26752 
L 342.392858 284.26752 
z
" style="fill:#1f77b4;"/>
   </g>
   <g id="patch_252">
    <path clip-path="url(#pbfc56c05d5)" d="M 343.475762 307.584 
L 344.342085 307.584 
L 344.342085 135.2448 
L 343.475762 135.2448 
z
" style="fill:#1f77b4;"/>
   </g>
   <g id="patch_253">
    <path clip-path="url(#pbfc56c05d5)" d="M 344.558666 307.584 
L 345.424989 307.584 
L 345.424989 218.37312 
L 344.558666 218.37312 
z
" style="fill:#1f77b4;"/>
   </g>
   <g id="patch_254">
    <path clip-path="url(#pbfc56c05d5)" d="M 345.64157 307.584 
L 346.507893 307.584 
L 346.507893 283.25376 
L 345.64157 283.25376 
z
" style="fill:#1f77b4;"/>
   </g>
   <g id="patch_255">
    <path clip-path="url(#pbfc56c05d5)" d="M 346.724473 307.584 
L 347.590796 307.584 
L 347.590796 259.93728 
L 346.724473 259.93728 
z
" style="fill:#1f77b4;"/>
   </g>
   <g id="patch_256">
    <path clip-path="url(#pbfc56c05d5)" d="M 347.807377 307.584 
L 348.6737 307.584 
L 348.6737 153.49248 
L 347.807377 153.49248 
z
" style="fill:#1f77b4;"/>
   </g>
   <g id="patch_257">
    <path clip-path="url(#pbfc56c05d5)" d="M 348.890281 307.584 
L 349.756604 307.584 
L 349.756604 265.00608 
L 348.890281 265.00608 
z
" style="fill:#1f77b4;"/>
   </g>
   <g id="patch_258">
    <path clip-path="url(#pbfc56c05d5)" d="M 349.973185 307.584 
L 350.839508 307.584 
L 350.839508 245.74464 
L 349.973185 245.74464 
z
" style="fill:#1f77b4;"/>
   </g>
   <g id="patch_259">
    <path clip-path="url(#pbfc56c05d5)" d="M 351.056088 307.584 
L 351.922411 307.584 
L 351.922411 228.51072 
L 351.056088 228.51072 
z
" style="fill:#1f77b4;"/>
   </g>
   <g id="patch_260">
    <path clip-path="url(#pbfc56c05d5)" d="M 352.138992 307.584 
L 353.005315 307.584 
L 353.005315 262.97856 
L 352.138992 262.97856 
z
" style="fill:#1f77b4;"/>
   </g>
   <g id="patch_261">
    <path clip-path="url(#pbfc56c05d5)" d="M 353.221896 307.584 
L 354.088219 307.584 
L 354.088219 271.08864 
L 353.221896 271.08864 
z
" style="fill:#1f77b4;"/>
   </g>
   <g id="patch_262">
    <path clip-path="url(#pbfc56c05d5)" d="M 354.3048 307.584 
L 355.171123 307.584 
L 355.171123 150.4512 
L 354.3048 150.4512 
z
" style="fill:#1f77b4;"/>
   </g>
   <g id="patch_263">
    <path clip-path="url(#pbfc56c05d5)" d="M 355.387703 307.584 
L 356.254026 307.584 
L 356.254026 119.02464 
L 355.387703 119.02464 
z
" style="fill:#1f77b4;"/>
   </g>
   <g id="patch_264">
    <path clip-path="url(#pbfc56c05d5)" d="M 356.470607 307.584 
L 357.33693 307.584 
L 357.33693 232.56576 
L 356.470607 232.56576 
z
" style="fill:#1f77b4;"/>
   </g>
   <g id="patch_265">
    <path clip-path="url(#pbfc56c05d5)" d="M 357.553511 307.584 
L 358.419834 307.584 
L 358.419834 301.50144 
L 357.553511 301.50144 
z
" style="fill:#1f77b4;"/>
   </g>
   <g id="patch_266">
    <path clip-path="url(#pbfc56c05d5)" d="M 358.636415 307.584 
L 359.502738 307.584 
L 359.502738 80.50176 
L 358.636415 80.50176 
z
" style="fill:#1f77b4;"/>
   </g>
   <g id="patch_267">
    <path clip-path="url(#pbfc56c05d5)" d="M 359.719318 307.584 
L 360.585641 307.584 
L 360.585641 226.4832 
L 359.719318 226.4832 
z
" style="fill:#1f77b4;"/>
   </g>
   <g id="patch_268">
    <path clip-path="url(#pbfc56c05d5)" d="M 360.802222 307.584 
L 361.668545 307.584 
L 361.668545 145.3824 
L 360.802222 145.3824 
z
" style="fill:#1f77b4;"/>
   </g>
   <g id="patch_269">
    <path clip-path="url(#pbfc56c05d5)" d="M 361.885126 307.584 
L 362.751449 307.584 
L 362.751449 183.90528 
L 361.885126 183.90528 
z
" style="fill:#1f77b4;"/>
   </g>
   <g id="patch_270">
    <path clip-path="url(#pbfc56c05d5)" d="M 362.96803 307.584 
L 363.834353 307.584 
L 363.834353 221.4144 
L 362.96803 221.4144 
z
" style="fill:#1f77b4;"/>
   </g>
   <g id="patch_271">
    <path clip-path="url(#pbfc56c05d5)" d="M 364.050933 307.584 
L 364.917256 307.584 
L 364.917256 262.97856 
L 364.050933 262.97856 
z
" style="fill:#1f77b4;"/>
   </g>
   <g id="patch_272">
    <path clip-path="url(#pbfc56c05d5)" d="M 365.133837 307.584 
L 366.00016 307.584 
L 366.00016 221.4144 
L 365.133837 221.4144 
z
" style="fill:#1f77b4;"/>
   </g>
   <g id="patch_273">
    <path clip-path="url(#pbfc56c05d5)" d="M 366.216741 307.584 
L 367.083064 307.584 
L 367.083064 265.00608 
L 366.216741 265.00608 
z
" style="fill:#1f77b4;"/>
   </g>
   <g id="patch_274">
    <path clip-path="url(#pbfc56c05d5)" d="M 367.299645 307.584 
L 368.165968 307.584 
L 368.165968 287.3088 
L 367.299645 287.3088 
z
" style="fill:#1f77b4;"/>
   </g>
   <g id="patch_275">
    <path clip-path="url(#pbfc56c05d5)" d="M 368.382548 307.584 
L 369.248871 307.584 
L 369.248871 222.42816 
L 368.382548 222.42816 
z
" style="fill:#1f77b4;"/>
   </g>
   <g id="patch_276">
    <path clip-path="url(#pbfc56c05d5)" d="M 369.465452 307.584 
L 370.331775 307.584 
L 370.331775 263.99232 
L 369.465452 263.99232 
z
" style="fill:#1f77b4;"/>
   </g>
   <g id="patch_277">
    <path clip-path="url(#pbfc56c05d5)" d="M 370.548356 307.584 
L 371.414679 307.584 
L 371.414679 224.45568 
L 370.548356 224.45568 
z
" style="fill:#1f77b4;"/>
   </g>
   <g id="patch_278">
    <path clip-path="url(#pbfc56c05d5)" d="M 371.63126 307.584 
L 372.497583 307.584 
L 372.497583 300.48768 
L 371.63126 300.48768 
z
" style="fill:#1f77b4;"/>
   </g>
   <g id="patch_279">
    <path clip-path="url(#pbfc56c05d5)" d="M 372.714163 307.584 
L 373.580486 307.584 
L 373.580486 244.73088 
L 372.714163 244.73088 
z
" style="fill:#1f77b4;"/>
   </g>
   <g id="patch_280">
    <path clip-path="url(#pbfc56c05d5)" d="M 373.797067 307.584 
L 374.66339 307.584 
L 374.66339 242.70336 
L 373.797067 242.70336 
z
" style="fill:#1f77b4;"/>
   </g>
   <g id="patch_281">
    <path clip-path="url(#pbfc56c05d5)" d="M 374.879971 307.584 
L 375.746294 307.584 
L 375.746294 54.144 
L 374.879971 54.144 
z
" style="fill:#1f77b4;"/>
   </g>
   <g id="patch_282">
    <path clip-path="url(#pbfc56c05d5)" d="M 375.962875 307.584 
L 376.829198 307.584 
L 376.829198 215.33184 
L 375.962875 215.33184 
z
" style="fill:#1f77b4;"/>
   </g>
   <g id="patch_283">
    <path clip-path="url(#pbfc56c05d5)" d="M 377.045778 307.584 
L 377.912101 307.584 
L 377.912101 174.78144 
L 377.045778 174.78144 
z
" style="fill:#1f77b4;"/>
   </g>
   <g id="patch_284">
    <path clip-path="url(#pbfc56c05d5)" d="M 378.128682 307.584 
L 378.995005 307.584 
L 378.995005 241.6896 
L 378.128682 241.6896 
z
" style="fill:#1f77b4;"/>
   </g>
   <g id="patch_285">
    <path clip-path="url(#pbfc56c05d5)" d="M 379.211586 307.584 
L 380.077909 307.584 
L 380.077909 151.46496 
L 379.211586 151.46496 
z
" style="fill:#1f77b4;"/>
   </g>
   <g id="patch_286">
    <path clip-path="url(#pbfc56c05d5)" d="M 380.29449 307.584 
L 381.160813 307.584 
L 381.160813 244.73088 
L 380.29449 244.73088 
z
" style="fill:#1f77b4;"/>
   </g>
   <g id="patch_287">
    <path clip-path="url(#pbfc56c05d5)" d="M 381.377393 307.584 
L 382.243716 307.584 
L 382.243716 270.07488 
L 381.377393 270.07488 
z
" style="fill:#1f77b4;"/>
   </g>
   <g id="patch_288">
    <path clip-path="url(#pbfc56c05d5)" d="M 382.460297 307.584 
L 383.32662 307.584 
L 383.32662 179.85024 
L 382.460297 179.85024 
z
" style="fill:#1f77b4;"/>
   </g>
   <g id="patch_289">
    <path clip-path="url(#pbfc56c05d5)" d="M 383.543201 307.584 
L 384.409524 307.584 
L 384.409524 300.48768 
L 383.543201 300.48768 
z
" style="fill:#1f77b4;"/>
   </g>
   <g id="patch_290">
    <path clip-path="url(#pbfc56c05d5)" d="M 384.626105 307.584 
L 385.492428 307.584 
L 385.492428 229.52448 
L 384.626105 229.52448 
z
" style="fill:#1f77b4;"/>
   </g>
   <g id="patch_291">
    <path clip-path="url(#pbfc56c05d5)" d="M 385.709008 307.584 
L 386.575331 307.584 
L 386.575331 209.24928 
L 385.709008 209.24928 
z
" style="fill:#1f77b4;"/>
   </g>
   <g id="patch_292">
    <path clip-path="url(#pbfc56c05d5)" d="M 386.791912 307.584 
L 387.658235 307.584 
L 387.658235 243.71712 
L 386.791912 243.71712 
z
" style="fill:#1f77b4;"/>
   </g>
   <g id="patch_293">
    <path clip-path="url(#pbfc56c05d5)" d="M 387.874816 307.584 
L 388.741139 307.584 
L 388.741139 177.82272 
L 387.874816 177.82272 
z
" style="fill:#1f77b4;"/>
   </g>
   <g id="patch_294">
    <path clip-path="url(#pbfc56c05d5)" d="M 388.95772 307.584 
L 389.824043 307.584 
L 389.824043 192.01536 
L 388.95772 192.01536 
z
" style="fill:#1f77b4;"/>
   </g>
   <g id="patch_295">
    <path clip-path="url(#pbfc56c05d5)" d="M 390.040623 307.584 
L 390.906946 307.584 
L 390.906946 259.93728 
L 390.040623 259.93728 
z
" style="fill:#1f77b4;"/>
   </g>
   <g id="patch_296">
    <path clip-path="url(#pbfc56c05d5)" d="M 391.123527 307.584 
L 391.98985 307.584 
L 391.98985 272.1024 
L 391.123527 272.1024 
z
" style="fill:#1f77b4;"/>
   </g>
   <g id="patch_297">
    <path clip-path="url(#pbfc56c05d5)" d="M 392.206431 307.584 
L 393.072754 307.584 
L 393.072754 249.79968 
L 392.206431 249.79968 
z
" style="fill:#1f77b4;"/>
   </g>
   <g id="patch_298">
    <path clip-path="url(#pbfc56c05d5)" d="M 393.289335 307.584 
L 394.155658 307.584 
L 394.155658 232.56576 
L 393.289335 232.56576 
z
" style="fill:#1f77b4;"/>
   </g>
   <g id="patch_299">
    <path clip-path="url(#pbfc56c05d5)" d="M 394.372238 307.584 
L 395.238561 307.584 
L 395.238561 262.97856 
L 394.372238 262.97856 
z
" style="fill:#1f77b4;"/>
   </g>
   <g id="patch_300">
    <path clip-path="url(#pbfc56c05d5)" d="M 395.455142 307.584 
L 396.321465 307.584 
L 396.321465 201.1392 
L 395.455142 201.1392 
z
" style="fill:#1f77b4;"/>
   </g>
   <g id="patch_301">
    <path clip-path="url(#pbfc56c05d5)" d="M 396.538046 307.584 
L 397.404369 307.584 
L 397.404369 211.2768 
L 396.538046 211.2768 
z
" style="fill:#1f77b4;"/>
   </g>
   <g id="patch_302">
    <path clip-path="url(#pbfc56c05d5)" d="M 397.62095 307.584 
L 398.487273 307.584 
L 398.487273 169.71264 
L 397.62095 169.71264 
z
" style="fill:#1f77b4;"/>
   </g>
   <g id="matplotlib.axis_1">
    <g id="xtick_1">
     <g id="line2d_1">
      <defs>
       <path d="M 0 0 
L 0 3.5 
" id="m25ada9d1d1" style="stroke:#000000;stroke-width:0.8;"/>
      </defs>
      <g>
       <use style="stroke:#000000;stroke-width:0.8;" x="74.265889" xlink:href="#m25ada9d1d1" y="307.584"/>
      </g>
     </g>
     <g id="text_1">
      <!-- 0 -->
      <defs>
       <path d="M 31.78125 66.40625 
Q 24.171875 66.40625 20.328125 58.90625 
Q 16.5 51.421875 16.5 36.375 
Q 16.5 21.390625 20.328125 13.890625 
Q 24.171875 6.390625 31.78125 6.390625 
Q 39.453125 6.390625 43.28125 13.890625 
Q 47.125 21.390625 47.125 36.375 
Q 47.125 51.421875 43.28125 58.90625 
Q 39.453125 66.40625 31.78125 66.40625 
z
M 31.78125 74.21875 
Q 44.046875 74.21875 50.515625 64.515625 
Q 56.984375 54.828125 56.984375 36.375 
Q 56.984375 17.96875 50.515625 8.265625 
Q 44.046875 -1.421875 31.78125 -1.421875 
Q 19.53125 -1.421875 13.0625 8.265625 
Q 6.59375 17.96875 6.59375 36.375 
Q 6.59375 54.828125 13.0625 64.515625 
Q 19.53125 74.21875 31.78125 74.21875 
z
" id="DejaVuSans-48"/>
      </defs>
      <g transform="translate(71.084639 322.182437)scale(0.1 -0.1)">
       <use xlink:href="#DejaVuSans-48"/>
      </g>
     </g>
    </g>
    <g id="xtick_2">
     <g id="line2d_2">
      <g>
       <use style="stroke:#000000;stroke-width:0.8;" x="128.411076" xlink:href="#m25ada9d1d1" y="307.584"/>
      </g>
     </g>
     <g id="text_2">
      <!-- 50 -->
      <defs>
       <path d="M 10.796875 72.90625 
L 49.515625 72.90625 
L 49.515625 64.59375 
L 19.828125 64.59375 
L 19.828125 46.734375 
Q 21.96875 47.46875 24.109375 47.828125 
Q 26.265625 48.1875 28.421875 48.1875 
Q 40.625 48.1875 47.75 41.5 
Q 54.890625 34.8125 54.890625 23.390625 
Q 54.890625 11.625 47.5625 5.09375 
Q 40.234375 -1.421875 26.90625 -1.421875 
Q 22.3125 -1.421875 17.546875 -0.640625 
Q 12.796875 0.140625 7.71875 1.703125 
L 7.71875 11.625 
Q 12.109375 9.234375 16.796875 8.0625 
Q 21.484375 6.890625 26.703125 6.890625 
Q 35.15625 6.890625 40.078125 11.328125 
Q 45.015625 15.765625 45.015625 23.390625 
Q 45.015625 31 40.078125 35.4375 
Q 35.15625 39.890625 26.703125 39.890625 
Q 22.75 39.890625 18.8125 39.015625 
Q 14.890625 38.140625 10.796875 36.28125 
z
" id="DejaVuSans-53"/>
      </defs>
      <g transform="translate(122.048576 322.182437)scale(0.1 -0.1)">
       <use xlink:href="#DejaVuSans-53"/>
       <use x="63.623047" xlink:href="#DejaVuSans-48"/>
      </g>
     </g>
    </g>
    <g id="xtick_3">
     <g id="line2d_3">
      <g>
       <use style="stroke:#000000;stroke-width:0.8;" x="182.556264" xlink:href="#m25ada9d1d1" y="307.584"/>
      </g>
     </g>
     <g id="text_3">
      <!-- 100 -->
      <defs>
       <path d="M 12.40625 8.296875 
L 28.515625 8.296875 
L 28.515625 63.921875 
L 10.984375 60.40625 
L 10.984375 69.390625 
L 28.421875 72.90625 
L 38.28125 72.90625 
L 38.28125 8.296875 
L 54.390625 8.296875 
L 54.390625 0 
L 12.40625 0 
z
" id="DejaVuSans-49"/>
      </defs>
      <g transform="translate(173.012514 322.182437)scale(0.1 -0.1)">
       <use xlink:href="#DejaVuSans-49"/>
       <use x="63.623047" xlink:href="#DejaVuSans-48"/>
       <use x="127.246094" xlink:href="#DejaVuSans-48"/>
      </g>
     </g>
    </g>
    <g id="xtick_4">
     <g id="line2d_4">
      <g>
       <use style="stroke:#000000;stroke-width:0.8;" x="236.701452" xlink:href="#m25ada9d1d1" y="307.584"/>
      </g>
     </g>
     <g id="text_4">
      <!-- 150 -->
      <g transform="translate(227.157702 322.182437)scale(0.1 -0.1)">
       <use xlink:href="#DejaVuSans-49"/>
       <use x="63.623047" xlink:href="#DejaVuSans-53"/>
       <use x="127.246094" xlink:href="#DejaVuSans-48"/>
      </g>
     </g>
    </g>
    <g id="xtick_5">
     <g id="line2d_5">
      <g>
       <use style="stroke:#000000;stroke-width:0.8;" x="290.84664" xlink:href="#m25ada9d1d1" y="307.584"/>
      </g>
     </g>
     <g id="text_5">
      <!-- 200 -->
      <defs>
       <path d="M 19.1875 8.296875 
L 53.609375 8.296875 
L 53.609375 0 
L 7.328125 0 
L 7.328125 8.296875 
Q 12.9375 14.109375 22.625 23.890625 
Q 32.328125 33.6875 34.8125 36.53125 
Q 39.546875 41.84375 41.421875 45.53125 
Q 43.3125 49.21875 43.3125 52.78125 
Q 43.3125 58.59375 39.234375 62.25 
Q 35.15625 65.921875 28.609375 65.921875 
Q 23.96875 65.921875 18.8125 64.3125 
Q 13.671875 62.703125 7.8125 59.421875 
L 7.8125 69.390625 
Q 13.765625 71.78125 18.9375 73 
Q 24.125 74.21875 28.421875 74.21875 
Q 39.75 74.21875 46.484375 68.546875 
Q 53.21875 62.890625 53.21875 53.421875 
Q 53.21875 48.921875 51.53125 44.890625 
Q 49.859375 40.875 45.40625 35.40625 
Q 44.1875 33.984375 37.640625 27.21875 
Q 31.109375 20.453125 19.1875 8.296875 
z
" id="DejaVuSans-50"/>
      </defs>
      <g transform="translate(281.30289 322.182437)scale(0.1 -0.1)">
       <use xlink:href="#DejaVuSans-50"/>
       <use x="63.623047" xlink:href="#DejaVuSans-48"/>
       <use x="127.246094" xlink:href="#DejaVuSans-48"/>
      </g>
     </g>
    </g>
    <g id="xtick_6">
     <g id="line2d_6">
      <g>
       <use style="stroke:#000000;stroke-width:0.8;" x="344.991827" xlink:href="#m25ada9d1d1" y="307.584"/>
      </g>
     </g>
     <g id="text_6">
      <!-- 250 -->
      <g transform="translate(335.448077 322.182437)scale(0.1 -0.1)">
       <use xlink:href="#DejaVuSans-50"/>
       <use x="63.623047" xlink:href="#DejaVuSans-53"/>
       <use x="127.246094" xlink:href="#DejaVuSans-48"/>
      </g>
     </g>
    </g>
    <g id="xtick_7">
     <g id="line2d_7">
      <g>
       <use style="stroke:#000000;stroke-width:0.8;" x="399.137015" xlink:href="#m25ada9d1d1" y="307.584"/>
      </g>
     </g>
     <g id="text_7">
      <!-- 300 -->
      <defs>
       <path d="M 40.578125 39.3125 
Q 47.65625 37.796875 51.625 33 
Q 55.609375 28.21875 55.609375 21.1875 
Q 55.609375 10.40625 48.1875 4.484375 
Q 40.765625 -1.421875 27.09375 -1.421875 
Q 22.515625 -1.421875 17.65625 -0.515625 
Q 12.796875 0.390625 7.625 2.203125 
L 7.625 11.71875 
Q 11.71875 9.328125 16.59375 8.109375 
Q 21.484375 6.890625 26.8125 6.890625 
Q 36.078125 6.890625 40.9375 10.546875 
Q 45.796875 14.203125 45.796875 21.1875 
Q 45.796875 27.640625 41.28125 31.265625 
Q 36.765625 34.90625 28.71875 34.90625 
L 20.21875 34.90625 
L 20.21875 43.015625 
L 29.109375 43.015625 
Q 36.375 43.015625 40.234375 45.921875 
Q 44.09375 48.828125 44.09375 54.296875 
Q 44.09375 59.90625 40.109375 62.90625 
Q 36.140625 65.921875 28.71875 65.921875 
Q 24.65625 65.921875 20.015625 65.03125 
Q 15.375 64.15625 9.8125 62.3125 
L 9.8125 71.09375 
Q 15.4375 72.65625 20.34375 73.4375 
Q 25.25 74.21875 29.59375 74.21875 
Q 40.828125 74.21875 47.359375 69.109375 
Q 53.90625 64.015625 53.90625 55.328125 
Q 53.90625 49.265625 50.4375 45.09375 
Q 46.96875 40.921875 40.578125 39.3125 
z
" id="DejaVuSans-51"/>
      </defs>
      <g transform="translate(389.593265 322.182437)scale(0.1 -0.1)">
       <use xlink:href="#DejaVuSans-51"/>
       <use x="63.623047" xlink:href="#DejaVuSans-48"/>
       <use x="127.246094" xlink:href="#DejaVuSans-48"/>
      </g>
     </g>
    </g>
    <g id="text_8">
     <!-- Filter -->
     <defs>
      <path d="M 9.8125 72.90625 
L 51.703125 72.90625 
L 51.703125 64.59375 
L 19.671875 64.59375 
L 19.671875 43.109375 
L 48.578125 43.109375 
L 48.578125 34.8125 
L 19.671875 34.8125 
L 19.671875 0 
L 9.8125 0 
z
" id="DejaVuSans-70"/>
      <path d="M 9.421875 54.6875 
L 18.40625 54.6875 
L 18.40625 0 
L 9.421875 0 
z
M 9.421875 75.984375 
L 18.40625 75.984375 
L 18.40625 64.59375 
L 9.421875 64.59375 
z
" id="DejaVuSans-105"/>
      <path d="M 9.421875 75.984375 
L 18.40625 75.984375 
L 18.40625 0 
L 9.421875 0 
z
" id="DejaVuSans-108"/>
      <path d="M 18.3125 70.21875 
L 18.3125 54.6875 
L 36.8125 54.6875 
L 36.8125 47.703125 
L 18.3125 47.703125 
L 18.3125 18.015625 
Q 18.3125 11.328125 20.140625 9.421875 
Q 21.96875 7.515625 27.59375 7.515625 
L 36.8125 7.515625 
L 36.8125 0 
L 27.59375 0 
Q 17.1875 0 13.234375 3.875 
Q 9.28125 7.765625 9.28125 18.015625 
L 9.28125 47.703125 
L 2.6875 47.703125 
L 2.6875 54.6875 
L 9.28125 54.6875 
L 9.28125 70.21875 
z
" id="DejaVuSans-116"/>
      <path d="M 56.203125 29.59375 
L 56.203125 25.203125 
L 14.890625 25.203125 
Q 15.484375 15.921875 20.484375 11.0625 
Q 25.484375 6.203125 34.421875 6.203125 
Q 39.59375 6.203125 44.453125 7.46875 
Q 49.3125 8.734375 54.109375 11.28125 
L 54.109375 2.78125 
Q 49.265625 0.734375 44.1875 -0.34375 
Q 39.109375 -1.421875 33.890625 -1.421875 
Q 20.796875 -1.421875 13.15625 6.1875 
Q 5.515625 13.8125 5.515625 26.8125 
Q 5.515625 40.234375 12.765625 48.109375 
Q 20.015625 56 32.328125 56 
Q 43.359375 56 49.78125 48.890625 
Q 56.203125 41.796875 56.203125 29.59375 
z
M 47.21875 32.234375 
Q 47.125 39.59375 43.09375 43.984375 
Q 39.0625 48.390625 32.421875 48.390625 
Q 24.90625 48.390625 20.390625 44.140625 
Q 15.875 39.890625 15.1875 32.171875 
z
" id="DejaVuSans-101"/>
      <path d="M 41.109375 46.296875 
Q 39.59375 47.171875 37.8125 47.578125 
Q 36.03125 48 33.890625 48 
Q 26.265625 48 22.1875 43.046875 
Q 18.109375 38.09375 18.109375 28.8125 
L 18.109375 0 
L 9.078125 0 
L 9.078125 54.6875 
L 18.109375 54.6875 
L 18.109375 46.1875 
Q 20.953125 51.171875 25.484375 53.578125 
Q 30.03125 56 36.53125 56 
Q 37.453125 56 38.578125 55.875 
Q 39.703125 55.765625 41.0625 55.515625 
z
" id="DejaVuSans-114"/>
     </defs>
     <g transform="translate(223.776406 335.860562)scale(0.1 -0.1)">
      <use xlink:href="#DejaVuSans-70"/>
      <use x="50.269531" xlink:href="#DejaVuSans-105"/>
      <use x="78.052734" xlink:href="#DejaVuSans-108"/>
      <use x="105.835938" xlink:href="#DejaVuSans-116"/>
      <use x="145.044922" xlink:href="#DejaVuSans-101"/>
      <use x="206.568359" xlink:href="#DejaVuSans-114"/>
     </g>
    </g>
   </g>
   <g id="matplotlib.axis_2">
    <g id="ytick_1">
     <g id="line2d_8">
      <defs>
       <path d="M 0 0 
L -3.5 0 
" id="ma6e6425331" style="stroke:#000000;stroke-width:0.8;"/>
      </defs>
      <g>
       <use style="stroke:#000000;stroke-width:0.8;" x="57.6" xlink:href="#ma6e6425331" y="307.584"/>
      </g>
     </g>
     <g id="text_9">
      <!-- 0 -->
      <g transform="translate(44.2375 311.383219)scale(0.1 -0.1)">
       <use xlink:href="#DejaVuSans-48"/>
      </g>
     </g>
    </g>
    <g id="ytick_2">
     <g id="line2d_9">
      <g>
       <use style="stroke:#000000;stroke-width:0.8;" x="57.6" xlink:href="#ma6e6425331" y="256.896"/>
      </g>
     </g>
     <g id="text_10">
      <!-- 50 -->
      <g transform="translate(37.875 260.695219)scale(0.1 -0.1)">
       <use xlink:href="#DejaVuSans-53"/>
       <use x="63.623047" xlink:href="#DejaVuSans-48"/>
      </g>
     </g>
    </g>
    <g id="ytick_3">
     <g id="line2d_10">
      <g>
       <use style="stroke:#000000;stroke-width:0.8;" x="57.6" xlink:href="#ma6e6425331" y="206.208"/>
      </g>
     </g>
     <g id="text_11">
      <!-- 100 -->
      <g transform="translate(31.5125 210.007219)scale(0.1 -0.1)">
       <use xlink:href="#DejaVuSans-49"/>
       <use x="63.623047" xlink:href="#DejaVuSans-48"/>
       <use x="127.246094" xlink:href="#DejaVuSans-48"/>
      </g>
     </g>
    </g>
    <g id="ytick_4">
     <g id="line2d_11">
      <g>
       <use style="stroke:#000000;stroke-width:0.8;" x="57.6" xlink:href="#ma6e6425331" y="155.52"/>
      </g>
     </g>
     <g id="text_12">
      <!-- 150 -->
      <g transform="translate(31.5125 159.319219)scale(0.1 -0.1)">
       <use xlink:href="#DejaVuSans-49"/>
       <use x="63.623047" xlink:href="#DejaVuSans-53"/>
       <use x="127.246094" xlink:href="#DejaVuSans-48"/>
      </g>
     </g>
    </g>
    <g id="ytick_5">
     <g id="line2d_12">
      <g>
       <use style="stroke:#000000;stroke-width:0.8;" x="57.6" xlink:href="#ma6e6425331" y="104.832"/>
      </g>
     </g>
     <g id="text_13">
      <!-- 200 -->
      <g transform="translate(31.5125 108.631219)scale(0.1 -0.1)">
       <use xlink:href="#DejaVuSans-50"/>
       <use x="63.623047" xlink:href="#DejaVuSans-48"/>
       <use x="127.246094" xlink:href="#DejaVuSans-48"/>
      </g>
     </g>
    </g>
    <g id="ytick_6">
     <g id="line2d_13">
      <g>
       <use style="stroke:#000000;stroke-width:0.8;" x="57.6" xlink:href="#ma6e6425331" y="54.144"/>
      </g>
     </g>
     <g id="text_14">
      <!-- 250 -->
      <g transform="translate(31.5125 57.943219)scale(0.1 -0.1)">
       <use xlink:href="#DejaVuSans-50"/>
       <use x="63.623047" xlink:href="#DejaVuSans-53"/>
       <use x="127.246094" xlink:href="#DejaVuSans-48"/>
      </g>
     </g>
    </g>
    <g id="text_15">
     <!-- N sequences -->
     <defs>
      <path d="M 9.8125 72.90625 
L 23.09375 72.90625 
L 55.421875 11.921875 
L 55.421875 72.90625 
L 64.984375 72.90625 
L 64.984375 0 
L 51.703125 0 
L 19.390625 60.984375 
L 19.390625 0 
L 9.8125 0 
z
" id="DejaVuSans-78"/>
      <path id="DejaVuSans-32"/>
      <path d="M 44.28125 53.078125 
L 44.28125 44.578125 
Q 40.484375 46.53125 36.375 47.5 
Q 32.28125 48.484375 27.875 48.484375 
Q 21.1875 48.484375 17.84375 46.4375 
Q 14.5 44.390625 14.5 40.28125 
Q 14.5 37.15625 16.890625 35.375 
Q 19.28125 33.59375 26.515625 31.984375 
L 29.59375 31.296875 
Q 39.15625 29.25 43.1875 25.515625 
Q 47.21875 21.78125 47.21875 15.09375 
Q 47.21875 7.46875 41.1875 3.015625 
Q 35.15625 -1.421875 24.609375 -1.421875 
Q 20.21875 -1.421875 15.453125 -0.5625 
Q 10.6875 0.296875 5.421875 2 
L 5.421875 11.28125 
Q 10.40625 8.6875 15.234375 7.390625 
Q 20.0625 6.109375 24.8125 6.109375 
Q 31.15625 6.109375 34.5625 8.28125 
Q 37.984375 10.453125 37.984375 14.40625 
Q 37.984375 18.0625 35.515625 20.015625 
Q 33.0625 21.96875 24.703125 23.78125 
L 21.578125 24.515625 
Q 13.234375 26.265625 9.515625 29.90625 
Q 5.8125 33.546875 5.8125 39.890625 
Q 5.8125 47.609375 11.28125 51.796875 
Q 16.75 56 26.8125 56 
Q 31.78125 56 36.171875 55.265625 
Q 40.578125 54.546875 44.28125 53.078125 
z
" id="DejaVuSans-115"/>
      <path d="M 14.796875 27.296875 
Q 14.796875 17.390625 18.875 11.75 
Q 22.953125 6.109375 30.078125 6.109375 
Q 37.203125 6.109375 41.296875 11.75 
Q 45.40625 17.390625 45.40625 27.296875 
Q 45.40625 37.203125 41.296875 42.84375 
Q 37.203125 48.484375 30.078125 48.484375 
Q 22.953125 48.484375 18.875 42.84375 
Q 14.796875 37.203125 14.796875 27.296875 
z
M 45.40625 8.203125 
Q 42.578125 3.328125 38.25 0.953125 
Q 33.9375 -1.421875 27.875 -1.421875 
Q 17.96875 -1.421875 11.734375 6.484375 
Q 5.515625 14.40625 5.515625 27.296875 
Q 5.515625 40.1875 11.734375 48.09375 
Q 17.96875 56 27.875 56 
Q 33.9375 56 38.25 53.625 
Q 42.578125 51.265625 45.40625 46.390625 
L 45.40625 54.6875 
L 54.390625 54.6875 
L 54.390625 -20.796875 
L 45.40625 -20.796875 
z
" id="DejaVuSans-113"/>
      <path d="M 8.5 21.578125 
L 8.5 54.6875 
L 17.484375 54.6875 
L 17.484375 21.921875 
Q 17.484375 14.15625 20.5 10.265625 
Q 23.53125 6.390625 29.59375 6.390625 
Q 36.859375 6.390625 41.078125 11.03125 
Q 45.3125 15.671875 45.3125 23.6875 
L 45.3125 54.6875 
L 54.296875 54.6875 
L 54.296875 0 
L 45.3125 0 
L 45.3125 8.40625 
Q 42.046875 3.421875 37.71875 1 
Q 33.40625 -1.421875 27.6875 -1.421875 
Q 18.265625 -1.421875 13.375 4.4375 
Q 8.5 10.296875 8.5 21.578125 
z
M 31.109375 56 
z
" id="DejaVuSans-117"/>
      <path d="M 54.890625 33.015625 
L 54.890625 0 
L 45.90625 0 
L 45.90625 32.71875 
Q 45.90625 40.484375 42.875 44.328125 
Q 39.84375 48.1875 33.796875 48.1875 
Q 26.515625 48.1875 22.3125 43.546875 
Q 18.109375 38.921875 18.109375 30.90625 
L 18.109375 0 
L 9.078125 0 
L 9.078125 54.6875 
L 18.109375 54.6875 
L 18.109375 46.1875 
Q 21.34375 51.125 25.703125 53.5625 
Q 30.078125 56 35.796875 56 
Q 45.21875 56 50.046875 50.171875 
Q 54.890625 44.34375 54.890625 33.015625 
z
" id="DejaVuSans-110"/>
      <path d="M 48.78125 52.59375 
L 48.78125 44.1875 
Q 44.96875 46.296875 41.140625 47.34375 
Q 37.3125 48.390625 33.40625 48.390625 
Q 24.65625 48.390625 19.8125 42.84375 
Q 14.984375 37.3125 14.984375 27.296875 
Q 14.984375 17.28125 19.8125 11.734375 
Q 24.65625 6.203125 33.40625 6.203125 
Q 37.3125 6.203125 41.140625 7.25 
Q 44.96875 8.296875 48.78125 10.40625 
L 48.78125 2.09375 
Q 45.015625 0.34375 40.984375 -0.53125 
Q 36.96875 -1.421875 32.421875 -1.421875 
Q 20.0625 -1.421875 12.78125 6.34375 
Q 5.515625 14.109375 5.515625 27.296875 
Q 5.515625 40.671875 12.859375 48.328125 
Q 20.21875 56 33.015625 56 
Q 37.15625 56 41.109375 55.140625 
Q 45.0625 54.296875 48.78125 52.59375 
z
" id="DejaVuSans-99"/>
     </defs>
     <g transform="translate(25.432812 206.557687)rotate(-90)scale(0.1 -0.1)">
      <use xlink:href="#DejaVuSans-78"/>
      <use x="74.804688" xlink:href="#DejaVuSans-32"/>
      <use x="106.591797" xlink:href="#DejaVuSans-115"/>
      <use x="158.691406" xlink:href="#DejaVuSans-101"/>
      <use x="220.214844" xlink:href="#DejaVuSans-113"/>
      <use x="283.691406" xlink:href="#DejaVuSans-117"/>
      <use x="347.070312" xlink:href="#DejaVuSans-101"/>
      <use x="408.59375" xlink:href="#DejaVuSans-110"/>
      <use x="471.972656" xlink:href="#DejaVuSans-99"/>
      <use x="526.953125" xlink:href="#DejaVuSans-101"/>
      <use x="588.476562" xlink:href="#DejaVuSans-115"/>
     </g>
    </g>
   </g>
   <g id="patch_303">
    <path d="M 57.6 307.584 
L 57.6 41.472 
" style="fill:none;stroke:#000000;stroke-linecap:square;stroke-linejoin:miter;stroke-width:0.8;"/>
   </g>
   <g id="patch_304">
    <path d="M 414.72 307.584 
L 414.72 41.472 
" style="fill:none;stroke:#000000;stroke-linecap:square;stroke-linejoin:miter;stroke-width:0.8;"/>
   </g>
   <g id="patch_305">
    <path d="M 57.6 307.584 
L 414.72 307.584 
" style="fill:none;stroke:#000000;stroke-linecap:square;stroke-linejoin:miter;stroke-width:0.8;"/>
   </g>
   <g id="patch_306">
    <path d="M 57.6 41.472 
L 414.72 41.472 
" style="fill:none;stroke:#000000;stroke-linecap:square;stroke-linejoin:miter;stroke-width:0.8;"/>
   </g>
   <g id="text_16">
    <!-- Number of sequences activating each filter -->
    <defs>
     <path d="M 52 44.1875 
Q 55.375 50.25 60.0625 53.125 
Q 64.75 56 71.09375 56 
Q 79.640625 56 84.28125 50.015625 
Q 88.921875 44.046875 88.921875 33.015625 
L 88.921875 0 
L 79.890625 0 
L 79.890625 32.71875 
Q 79.890625 40.578125 77.09375 44.375 
Q 74.3125 48.1875 68.609375 48.1875 
Q 61.625 48.1875 57.5625 43.546875 
Q 53.515625 38.921875 53.515625 30.90625 
L 53.515625 0 
L 44.484375 0 
L 44.484375 32.71875 
Q 44.484375 40.625 41.703125 44.40625 
Q 38.921875 48.1875 33.109375 48.1875 
Q 26.21875 48.1875 22.15625 43.53125 
Q 18.109375 38.875 18.109375 30.90625 
L 18.109375 0 
L 9.078125 0 
L 9.078125 54.6875 
L 18.109375 54.6875 
L 18.109375 46.1875 
Q 21.1875 51.21875 25.484375 53.609375 
Q 29.78125 56 35.6875 56 
Q 41.65625 56 45.828125 52.96875 
Q 50 49.953125 52 44.1875 
z
" id="DejaVuSans-109"/>
     <path d="M 48.6875 27.296875 
Q 48.6875 37.203125 44.609375 42.84375 
Q 40.53125 48.484375 33.40625 48.484375 
Q 26.265625 48.484375 22.1875 42.84375 
Q 18.109375 37.203125 18.109375 27.296875 
Q 18.109375 17.390625 22.1875 11.75 
Q 26.265625 6.109375 33.40625 6.109375 
Q 40.53125 6.109375 44.609375 11.75 
Q 48.6875 17.390625 48.6875 27.296875 
z
M 18.109375 46.390625 
Q 20.953125 51.265625 25.265625 53.625 
Q 29.59375 56 35.59375 56 
Q 45.5625 56 51.78125 48.09375 
Q 58.015625 40.1875 58.015625 27.296875 
Q 58.015625 14.40625 51.78125 6.484375 
Q 45.5625 -1.421875 35.59375 -1.421875 
Q 29.59375 -1.421875 25.265625 0.953125 
Q 20.953125 3.328125 18.109375 8.203125 
L 18.109375 0 
L 9.078125 0 
L 9.078125 75.984375 
L 18.109375 75.984375 
z
" id="DejaVuSans-98"/>
     <path d="M 30.609375 48.390625 
Q 23.390625 48.390625 19.1875 42.75 
Q 14.984375 37.109375 14.984375 27.296875 
Q 14.984375 17.484375 19.15625 11.84375 
Q 23.34375 6.203125 30.609375 6.203125 
Q 37.796875 6.203125 41.984375 11.859375 
Q 46.1875 17.53125 46.1875 27.296875 
Q 46.1875 37.015625 41.984375 42.703125 
Q 37.796875 48.390625 30.609375 48.390625 
z
M 30.609375 56 
Q 42.328125 56 49.015625 48.375 
Q 55.71875 40.765625 55.71875 27.296875 
Q 55.71875 13.875 49.015625 6.21875 
Q 42.328125 -1.421875 30.609375 -1.421875 
Q 18.84375 -1.421875 12.171875 6.21875 
Q 5.515625 13.875 5.515625 27.296875 
Q 5.515625 40.765625 12.171875 48.375 
Q 18.84375 56 30.609375 56 
z
" id="DejaVuSans-111"/>
     <path d="M 37.109375 75.984375 
L 37.109375 68.5 
L 28.515625 68.5 
Q 23.6875 68.5 21.796875 66.546875 
Q 19.921875 64.59375 19.921875 59.515625 
L 19.921875 54.6875 
L 34.71875 54.6875 
L 34.71875 47.703125 
L 19.921875 47.703125 
L 19.921875 0 
L 10.890625 0 
L 10.890625 47.703125 
L 2.296875 47.703125 
L 2.296875 54.6875 
L 10.890625 54.6875 
L 10.890625 58.5 
Q 10.890625 67.625 15.140625 71.796875 
Q 19.390625 75.984375 28.609375 75.984375 
z
" id="DejaVuSans-102"/>
     <path d="M 34.28125 27.484375 
Q 23.390625 27.484375 19.1875 25 
Q 14.984375 22.515625 14.984375 16.5 
Q 14.984375 11.71875 18.140625 8.90625 
Q 21.296875 6.109375 26.703125 6.109375 
Q 34.1875 6.109375 38.703125 11.40625 
Q 43.21875 16.703125 43.21875 25.484375 
L 43.21875 27.484375 
z
M 52.203125 31.203125 
L 52.203125 0 
L 43.21875 0 
L 43.21875 8.296875 
Q 40.140625 3.328125 35.546875 0.953125 
Q 30.953125 -1.421875 24.3125 -1.421875 
Q 15.921875 -1.421875 10.953125 3.296875 
Q 6 8.015625 6 15.921875 
Q 6 25.140625 12.171875 29.828125 
Q 18.359375 34.515625 30.609375 34.515625 
L 43.21875 34.515625 
L 43.21875 35.40625 
Q 43.21875 41.609375 39.140625 45 
Q 35.0625 48.390625 27.6875 48.390625 
Q 23 48.390625 18.546875 47.265625 
Q 14.109375 46.140625 10.015625 43.890625 
L 10.015625 52.203125 
Q 14.9375 54.109375 19.578125 55.046875 
Q 24.21875 56 28.609375 56 
Q 40.484375 56 46.34375 49.84375 
Q 52.203125 43.703125 52.203125 31.203125 
z
" id="DejaVuSans-97"/>
     <path d="M 2.984375 54.6875 
L 12.5 54.6875 
L 29.59375 8.796875 
L 46.6875 54.6875 
L 56.203125 54.6875 
L 35.6875 0 
L 23.484375 0 
z
" id="DejaVuSans-118"/>
     <path d="M 45.40625 27.984375 
Q 45.40625 37.75 41.375 43.109375 
Q 37.359375 48.484375 30.078125 48.484375 
Q 22.859375 48.484375 18.828125 43.109375 
Q 14.796875 37.75 14.796875 27.984375 
Q 14.796875 18.265625 18.828125 12.890625 
Q 22.859375 7.515625 30.078125 7.515625 
Q 37.359375 7.515625 41.375 12.890625 
Q 45.40625 18.265625 45.40625 27.984375 
z
M 54.390625 6.78125 
Q 54.390625 -7.171875 48.1875 -13.984375 
Q 42 -20.796875 29.203125 -20.796875 
Q 24.46875 -20.796875 20.265625 -20.09375 
Q 16.0625 -19.390625 12.109375 -17.921875 
L 12.109375 -9.1875 
Q 16.0625 -11.328125 19.921875 -12.34375 
Q 23.78125 -13.375 27.78125 -13.375 
Q 36.625 -13.375 41.015625 -8.765625 
Q 45.40625 -4.15625 45.40625 5.171875 
L 45.40625 9.625 
Q 42.625 4.78125 38.28125 2.390625 
Q 33.9375 0 27.875 0 
Q 17.828125 0 11.671875 7.65625 
Q 5.515625 15.328125 5.515625 27.984375 
Q 5.515625 40.671875 11.671875 48.328125 
Q 17.828125 56 27.875 56 
Q 33.9375 56 38.28125 53.609375 
Q 42.625 51.21875 45.40625 46.390625 
L 45.40625 54.6875 
L 54.390625 54.6875 
z
" id="DejaVuSans-103"/>
     <path d="M 54.890625 33.015625 
L 54.890625 0 
L 45.90625 0 
L 45.90625 32.71875 
Q 45.90625 40.484375 42.875 44.328125 
Q 39.84375 48.1875 33.796875 48.1875 
Q 26.515625 48.1875 22.3125 43.546875 
Q 18.109375 38.921875 18.109375 30.90625 
L 18.109375 0 
L 9.078125 0 
L 9.078125 75.984375 
L 18.109375 75.984375 
L 18.109375 46.1875 
Q 21.34375 51.125 25.703125 53.5625 
Q 30.078125 56 35.796875 56 
Q 45.21875 56 50.046875 50.171875 
Q 54.890625 44.34375 54.890625 33.015625 
z
" id="DejaVuSans-104"/>
    </defs>
    <g transform="translate(106.418438 35.472)scale(0.12 -0.12)">
     <use xlink:href="#DejaVuSans-78"/>
     <use x="74.804688" xlink:href="#DejaVuSans-117"/>
     <use x="138.183594" xlink:href="#DejaVuSans-109"/>
     <use x="235.595703" xlink:href="#DejaVuSans-98"/>
     <use x="299.072266" xlink:href="#DejaVuSans-101"/>
     <use x="360.595703" xlink:href="#DejaVuSans-114"/>
     <use x="401.708984" xlink:href="#DejaVuSans-32"/>
     <use x="433.496094" xlink:href="#DejaVuSans-111"/>
     <use x="494.677734" xlink:href="#DejaVuSans-102"/>
     <use x="529.882812" xlink:href="#DejaVuSans-32"/>
     <use x="561.669922" xlink:href="#DejaVuSans-115"/>
     <use x="613.769531" xlink:href="#DejaVuSans-101"/>
     <use x="675.292969" xlink:href="#DejaVuSans-113"/>
     <use x="738.769531" xlink:href="#DejaVuSans-117"/>
     <use x="802.148438" xlink:href="#DejaVuSans-101"/>
     <use x="863.671875" xlink:href="#DejaVuSans-110"/>
     <use x="927.050781" xlink:href="#DejaVuSans-99"/>
     <use x="982.03125" xlink:href="#DejaVuSans-101"/>
     <use x="1043.554688" xlink:href="#DejaVuSans-115"/>
     <use x="1095.654297" xlink:href="#DejaVuSans-32"/>
     <use x="1127.441406" xlink:href="#DejaVuSans-97"/>
     <use x="1188.720703" xlink:href="#DejaVuSans-99"/>
     <use x="1243.701172" xlink:href="#DejaVuSans-116"/>
     <use x="1282.910156" xlink:href="#DejaVuSans-105"/>
     <use x="1310.693359" xlink:href="#DejaVuSans-118"/>
     <use x="1369.873047" xlink:href="#DejaVuSans-97"/>
     <use x="1431.152344" xlink:href="#DejaVuSans-116"/>
     <use x="1470.361328" xlink:href="#DejaVuSans-105"/>
     <use x="1498.144531" xlink:href="#DejaVuSans-110"/>
     <use x="1561.523438" xlink:href="#DejaVuSans-103"/>
     <use x="1625" xlink:href="#DejaVuSans-32"/>
     <use x="1656.787109" xlink:href="#DejaVuSans-101"/>
     <use x="1718.310547" xlink:href="#DejaVuSans-97"/>
     <use x="1779.589844" xlink:href="#DejaVuSans-99"/>
     <use x="1834.570312" xlink:href="#DejaVuSans-104"/>
     <use x="1897.949219" xlink:href="#DejaVuSans-32"/>
     <use x="1929.736328" xlink:href="#DejaVuSans-102"/>
     <use x="1964.941406" xlink:href="#DejaVuSans-105"/>
     <use x="1992.724609" xlink:href="#DejaVuSans-108"/>
     <use x="2020.507812" xlink:href="#DejaVuSans-116"/>
     <use x="2059.716797" xlink:href="#DejaVuSans-101"/>
     <use x="2121.240234" xlink:href="#DejaVuSans-114"/>
    </g>
   </g>
  </g>
 </g>
 <defs>
  <clipPath id="pbfc56c05d5">
   <rect height="266.112" width="357.12" x="57.6" y="41.472"/>
  </clipPath>
 </defs>
</svg>
